<?xml version="1.0" encoding="UTF-8"?>
<svg width="28px" height="26px" viewBox="0 0 28 26" version="1.1" xmlns="http://www.w3.org/2000/svg" xmlns:xlink="http://www.w3.org/1999/xlink">
    <title>events</title>
    <g id="Page-1" stroke="none" stroke-width="1" fill="none" fill-rule="evenodd">
        <g id="Glocal-CSR-Test-Result-opt2" transform="translate(-416.000000, -586.000000)" fill-rule="nonzero">
            <g id="Group-8" transform="translate(83.000000, 216.000000)">
                <g id="Group-9" transform="translate(0.000000, 297.000000)">
                    <g id="Group-4" transform="translate(313.000000, 53.000000)">
                        <g id="events" transform="translate(21.000000, 21.000000)">
                            <path d="M3,1 L23,1 C24.6568542,1 26,2.34314575 26,4 L26,20.4714286 C26,22.1282828 24.6568542,23.4714286 23,23.4714286 L3,23.4714286 C1.34314575,23.4714286 2.02906125e-16,22.1282828 0,20.4714286 L0,4 C-2.02906125e-16,2.34314575 1.34314575,1 3,1 Z" id="Rectangle" stroke="#0057A8" stroke-width="2" fill="#FFFFFF"></path>
                            <path d="M5.39603175,18.4888889 C4.97043651,18.4888889 4.62222222,18.8371032 4.62222222,19.2626984 C4.62222222,19.6882937 4.97043651,20.0365079 5.39603175,20.0365079 L18.7055556,20.0365079 C19.1311508,20.0365079 19.4793651,19.6882937 19.4793651,19.2626984 C19.4793651,18.8371032 19.1311508,18.4888889 18.7055556,18.4888889 L5.39603175,18.4888889 Z" id="Path" fill="#E01F27"></path>
                            <path d="M7.69412879,16.7555556 L7.69412879,13.378346 L8.96827652,13.378346 L8.96827652,12.5535354 L5.41666667,12.5535354 L5.41666667,13.378346 L6.69286616,13.378346 L6.69286616,16.7555556 L7.69412879,16.7555556 Z M10.3757891,16.7555556 L10.6519111,15.8738667 L12.1032889,15.8738667 L12.3803662,16.7555556 L13.4719066,16.7555556 L12.0541351,12.5535354 L10.7020202,12.5535354 L9.28424874,16.7555556 L10.3757891,16.7555556 Z M11.8606222,15.1019556 L10.8934222,15.1019556 L11.3606376,13.6122475 L11.3934659,13.6122475 L11.8606222,15.1019556 Z M14.9327652,16.7555556 L15.7206439,15.4136995 L15.7534722,15.4136995 L16.541351,16.7555556 L17.7067551,16.7555556 L16.3977273,14.6545455 L17.6657197,12.5535354 L16.5290404,12.5535354 L15.7534722,13.881029 L15.7206439,13.881029 L14.9532828,12.5535354 L13.8083965,12.5535354 L15.0784407,14.6545455 L13.7755682,16.7555556 L14.9327652,16.7555556 Z" id="TAX" fill="#E01F27"></path>
                            <path d="M3,0.301269841 L23,0.301269841 C24.6568542,0.301269841 26,1.64441559 26,3.30126984 L26,7.76698413 L26,7.76698413 L0,7.76698413 L0,3.30126984 C-2.02906125e-16,1.64441559 1.34314575,0.301269841 3,0.301269841 Z" id="Rectangle" stroke="#0057A8" stroke-width="2" fill="#FFFFFF"></path>
                            <path d="M4.95238111,3.13650794 C4.27142864,3.13650794 3.71428571,3.69365086 3.71428571,4.37460333 C3.71428571,5.0555558 4.27142864,5.61269872 4.95238111,5.61269872 C5.63333357,5.61269872 6.1904765,5.0555558 6.1904765,4.37460333 C6.1904765,3.69365086 5.63333357,3.13650794 4.95238111,3.13650794" id="Path" fill="#0057A8"></path>
                            <path d="M8.97619063,2.87031746 C8.29523816,2.87031746 7.73809524,3.42746039 7.73809524,4.10841285 C7.73809524,4.78936532 8.29523816,5.34650825 8.97619063,5.34650825 C9.6571431,5.34650825 10.214286,4.78936532 10.214286,4.10841285 C10.214286,3.42746039 9.6571431,2.87031746 8.97619063,2.87031746" id="Path" fill="#0057A8"></path>
                            <path d="M12.6904763,2.87031746 C12.0095239,2.87031746 11.452381,3.42746039 11.452381,4.10841285 C11.452381,4.78936532 12.0095239,5.34650825 12.6904763,5.34650825 C13.3714288,5.34650825 13.9285717,4.78936532 13.9285717,4.10841285 C13.9285717,3.42746039 13.3714288,2.87031746 12.6904763,2.87031746" id="Path" fill="#0057A8"></path>
                        </g>
                    </g>
                </g>
            </g>
        </g>
    </g>
</svg>