<?xml version="1.0" encoding="UTF-8"?>
<svg width="27px" height="31px" viewBox="0 0 27 31" version="1.1" xmlns="http://www.w3.org/2000/svg" xmlns:xlink="http://www.w3.org/1999/xlink">
    <title>Fundings</title>
    <g id="Page-1" stroke="none" stroke-width="1" fill="none" fill-rule="evenodd">
        <g id="Glocal-CSR-Test-Result-opt2" transform="translate(-416.000000, -757.000000)" fill-rule="nonzero">
            <g id="Group-8" transform="translate(83.000000, 216.000000)">
                <g id="Group-9" transform="translate(0.000000, 297.000000)">
                    <g id="Group-4" transform="translate(313.000000, 222.000000)">
                        <g id="Fundings" transform="translate(21.000000, 23.000000)">
                            <path d="M2.77777778,-1.0658141e-12 L22.2222222,-1.0658141e-12 C23.7541676,-1.0658141e-12 25,1.24583327 25,2.77777778 L25,20.8333333 C25,22.3652787 23.7541676,23.6111111 22.2222222,23.6111111 L16.6666667,23.6111111 L12.5,27.7777778 L8.33333333,23.6111111 L2.77777778,23.6111111 C1.24583327,23.6111111 0,22.3652787 0,20.8333333 L0,2.77777778 C0,1.24583327 1.24583327,-1.0658141e-12 2.77777778,-1.0658141e-12 L2.77777778,-1.0658141e-12 Z" id="user-/-user_pin" stroke="#0057A8" stroke-width="2" fill="#FFFFFF"></path>
                            <path d="M15.0223581,19.7850278 L15.0223581,19.7079307 L10.1266961,13.3666992 C10.1780942,13.3666992 10.2037932,13.3538497 10.2037932,13.3281507 C10.6471012,13.3281507 11.3955849,13.0261873 12.4492444,12.4222605 C13.6378238,11.5035208 14.2321135,10.559082 14.2321135,9.58894428 L14.2321135,9.58894428 L16.4004677,9.58894428 C16.4518657,9.58894428 16.4775648,9.56324527 16.4775648,9.51184725 L16.4775648,9.51184725 L16.4775648,8.64450555 C16.4775648,8.59953228 16.4518657,8.57383326 16.4004677,8.56740851 L16.4004677,8.56740851 L14.1453793,8.56740851 L14.1068308,8.28793174 C13.8369912,7.47198808 13.4579307,6.9323088 12.9696495,6.66889391 L12.9696495,6.66889391 L12.9696495,6.59179688 L16.4004677,6.59179688 C16.4518657,6.59179688 16.4775648,6.56609786 16.4775648,6.51469984 L16.4775648,6.51469984 L16.4775648,5.64735814 C16.4775648,5.60238487 16.4518657,5.57668586 16.4004677,5.5702611 L16.4004677,5.5702611 L7.2837428,5.5702611 C7.23876953,5.5702611 7.21307052,5.59596012 7.20664576,5.64735814 L7.20664576,5.64735814 L7.20664576,6.51469984 C7.20664576,6.56609786 7.23234478,6.59179688 7.2837428,6.59179688 L7.2837428,6.59179688 L8.94132915,6.59179688 C9.5131322,6.59179688 10.1459704,6.77490234 10.8398438,7.14111328 C11.3409745,7.50732422 11.6686369,7.98275596 11.822831,8.56740851 L11.822831,8.56740851 L7.2837428,8.56740851 C7.23876953,8.56740851 7.21307052,8.59310752 7.20664576,8.64450555 L7.20664576,8.64450555 L7.20664576,9.51184725 C7.20664576,9.56324527 7.23234478,9.58894428 7.2837428,9.58894428 L7.2837428,9.58894428 L11.8613795,9.58894428 L11.8613795,9.70458984 C11.8613795,9.81381065 11.84853,9.9583676 11.822831,10.1382607 C11.405222,11.6352282 10.1556075,12.383712 8.07398746,12.383712 L8.07398746,12.383712 L7.48612253,12.383712 L7.48612253,12.4222605 C11.251028,17.330772 13.1431178,19.7850278 13.1623921,19.7850278 L13.1623921,19.7850278 L15.0223581,19.7850278 Z" id="`" fill="#E01F27"></path>
                        </g>
                    </g>
                </g>
            </g>
        </g>
    </g>
</svg>