<?xml version="1.0" encoding="UTF-8"?>
<svg width="23px" height="29px" viewBox="0 0 23 29" version="1.1" xmlns="http://www.w3.org/2000/svg" xmlns:xlink="http://www.w3.org/1999/xlink">
    <title>Group 15</title>
    <g id="Page-1" stroke="none" stroke-width="1" fill="none" fill-rule="evenodd">
        <g id="Glocal-CSR-Test-Result-opt2" transform="translate(-712.000000, -756.000000)">
            <g id="Group-8" transform="translate(83.000000, 216.000000)">
                <g id="Group-9" transform="translate(0.000000, 297.000000)">
                    <g id="Group-4" transform="translate(608.000000, 222.000000)">
                        <g id="Group-15" transform="translate(21.000000, 21.000000)">
                            <path d="M16.0150352,0.900933518 C16.2205372,0.900933518 16.3987505,0.968280748 16.5622488,1.04652246 L16.563,1.046 L16.5196672,1.08917278 C16.112281,1.48985175 15.8253319,1.82249198 15.6070877,2.17380006 L15.5283656,2.30658499 C15.2679325,2.7674432 15.1064606,3.27544788 15.0516505,3.79082113 C15.0317323,3.97810948 15.0257897,4.16740908 15.0338811,4.35676362 L15.0338811,4.35676362 L14.2543412,5.83543053 L15.2098219,6.66327746 C18.5497589,9.55706345 21.1073523,13.5011741 21.9295621,17.8984862 C22.1944496,19.2815358 22.1658371,20.7925473 21.7423076,22.165995 C21.3852598,23.3238521 20.744657,24.3846691 19.7472542,25.1656904 C17.0867698,27.2463432 13.5696099,27.4702949 10.3995922,27.3855808 C8.78731045,27.3451206 6.31374554,27.3114143 4.29873869,26.3055584 C3.18575688,25.7499776 2.21542389,24.8802959 1.76902535,23.4828509 C0.839276953,20.5722852 0.643933488,18.0387578 1.23363959,15.887057 C2.25416983,12.2211249 4.58485416,8.99905735 7.56460115,6.67857983 L7.56460115,6.67857983 L8.58988752,5.88013822 L7.48188588,5.20112901 C7.69494438,3.25278768 7.53172533,2.75709795 7.27737821,2.30730157 C7.03562442,1.87924462 6.71153504,1.49193784 6.31189839,1.17552081 L6.219,1.106 L6.31718082,1.06223423 C6.47912127,0.993160789 6.64159143,0.934879099 6.81341373,0.911244937 L6.98868017,0.900043497 C7.29429395,0.904254715 7.54074243,1.05271877 7.76996874,1.16503002 C8.34357298,1.44538636 8.78776415,1.60741736 9.25175418,1.60741736 C9.72885629,1.60741736 10.1552059,1.43799686 10.6495214,1.18973 C10.9006832,1.06343323 11.1645672,0.900933518 11.5060637,0.900933518 C11.8460833,0.900933518 12.1088554,1.06160659 12.3422255,1.17922716 C12.8616529,1.44100193 13.286443,1.60741736 13.7608359,1.60741736 C14.2325426,1.60741736 14.6805538,1.43656296 15.1786031,1.19155927 C15.4480963,1.05845475 15.6998047,0.900933518 16.0150352,0.900933518 Z" id="Shape" stroke="#0057A8" stroke-width="1.8" fill="#FFFFFF" fill-rule="nonzero"></path>
                            <rect id="Rectangle" fill="#0057A8" x="4.6" y="4.6" width="13.2888889" height="1.02222222" rx="0.511111111"></rect>
                            <path d="M14.0311163,23.357207 L14.0311163,23.2935641 L9.98979413,18.0589381 C10.0322227,18.0589381 10.053437,18.0483309 10.053437,18.0271166 C10.4193835,18.0271166 11.0372497,17.7778487 11.9070356,17.2793129 C12.8881965,16.5209021 13.3787769,15.7412769 13.3787769,14.9404375 L13.3787769,14.9404375 L15.1687326,14.9404375 C15.2111612,14.9404375 15.2323755,14.9192232 15.2323755,14.8767946 L15.2323755,14.8767946 L15.2323755,14.1608123 C15.2323755,14.1236873 15.2111612,14.102473 15.1687326,14.0971695 L15.1687326,14.0971695 L13.3071787,14.0971695 L13.2753573,13.8664641 C13.0526072,13.1929104 12.7396964,12.7474103 12.3366249,12.5299638 L12.3366249,12.5299638 L12.3366249,12.4663209 L15.1687326,12.4663209 C15.2111612,12.4663209 15.2323755,12.4451066 15.2323755,12.4026781 L15.2323755,12.4026781 L15.2323755,11.6866958 C15.2323755,11.6495708 15.2111612,11.6283565 15.1687326,11.6230529 L15.1687326,11.6230529 L7.64296332,11.6230529 C7.60583832,11.6230529 7.58462403,11.6442672 7.57932045,11.6866958 L7.57932045,11.6866958 L7.57932045,12.4026781 C7.57932045,12.4451066 7.60053474,12.4663209 7.64296332,12.4663209 L7.64296332,12.4663209 L9.01128501,12.4663209 C9.48330296,12.4663209 10.0057048,12.6174727 10.5784907,12.9197764 C10.9921693,13.22208 11.2626515,13.6145444 11.3899373,14.0971695 L11.3899373,14.0971695 L7.64296332,14.0971695 C7.60583832,14.0971695 7.58462403,14.1183838 7.57932045,14.1608123 L7.57932045,14.1608123 L7.57932045,14.8767946 C7.57932045,14.9192232 7.60053474,14.9404375 7.64296332,14.9404375 L7.64296332,14.9404375 L11.4217587,14.9404375 L11.4217587,15.0359018 C11.4217587,15.1260625 11.4111515,15.2453929 11.3899373,15.3938929 C11.045205,16.6296253 10.0136602,17.2474915 8.29530273,17.2474915 L8.29530273,17.2474915 L7.81002585,17.2474915 L7.81002585,17.2793129 C10.9179193,21.3312423 12.4798214,23.357207 12.4957321,23.357207 L12.4957321,23.357207 L14.0311163,23.357207 Z" id="`" fill="#E01F27" fill-rule="nonzero"></path>
                        </g>
                    </g>
                </g>
            </g>
        </g>
    </g>
</svg>