<?xml version="1.0" encoding="UTF-8"?>
<svg width="22px" height="28px" viewBox="0 0 22 28" version="1.1" xmlns="http://www.w3.org/2000/svg" xmlns:xlink="http://www.w3.org/1999/xlink">
    <title>Information System</title>
    <g id="Page-1" stroke="none" stroke-width="1" fill="none" fill-rule="evenodd">
        <g id="Glocal-CSR-Test-Result-opt2" transform="translate(-1007.000000, -756.000000)" fill-rule="nonzero">
            <g id="Group-8" transform="translate(83.000000, 216.000000)">
                <g id="Group-9" transform="translate(0.000000, 297.000000)">
                    <g id="Group-4" transform="translate(903.000000, 222.000000)">
                        <g id="Information-System" transform="translate(21.000000, 21.000000)">
                            <path d="M13.138125,1 L13.483,1.372 L13.4833333,6.34791667 L13.4908295,6.53764334 C13.5304586,7.03715331 13.7243983,7.48284892 14.0053608,7.81732799 C14.3791531,8.26231887 14.9015448,8.51666667 15.4650833,8.51666667 L15.4650833,8.51666667 L20.107,8.516 L20.9020139,9.37307165 L21,24.0625 C21,24.7318138 20.7191668,25.3375934 20.2699886,25.7769304 C19.8584434,26.179459 19.3056891,26.4431225 18.6921529,26.4918299 L18.4855,26.5 L3.513125,26.5 C2.81774097,26.5 2.18656629,26.2243301 1.72965038,25.7772499 C1.32549382,25.3817934 1.05780226,24.8514486 1.00830551,24.2613205 L1,24.0625 L1,3.4375 C1,2.76807115 1.28058754,2.1621462 1.72965038,1.72275007 C2.1408747,1.32037794 2.69324862,1.05684809 3.30654612,1.00816584 L3.513125,1 L13.138125,1 Z" id="sessions" stroke="#0057A8" stroke-width="2" fill="#FFFFFF"></path>
                            <path d="M15.5788981,14.3385081 C15.5776759,14.2945075 15.5648424,14.2529513 15.5532311,14.2107841 C15.5440643,14.1753392 15.5397865,14.1392831 15.5245085,14.1068938 C15.5104527,14.0751156 15.4866191,14.0494486 15.465841,14.0201148 C15.440174,13.9828365 15.4169515,13.9455582 15.383951,13.9150023 C15.3784509,13.9095022 15.3760065,13.9021688 15.3698953,13.8972798 C15.347895,13.8783351 15.3210057,13.8716128 15.297172,13.8563348 C15.2605049,13.8325011 15.2244488,13.8080564 15.1828927,13.7921672 C15.1419477,13.7775004 15.1016138,13.7738337 15.0594466,13.7677225 C15.0301128,13.7634446 15.0038347,13.75 14.9726676,13.75 L11.9170701,13.75 C11.579121,13.75 11.3059506,14.0237815 11.3059506,14.3611195 C11.3059506,14.6984575 11.579121,14.972239 11.9170701,14.972239 L13.6440938,14.972239 L11.1776155,17.8493896 L8.56446852,16.2818681 C8.30596497,16.1254215 7.97351597,16.1828667 7.7804022,16.414481 L4.72480471,20.081198 C4.50907953,20.3403127 4.54391334,20.7259291 4.80302801,20.9416543 C4.91791847,21.0369889 5.05603148,21.083434 5.19414449,21.083434 C5.36953578,21.083434 5.54309372,21.0088774 5.66409538,20.863431 L8.38479939,17.5988306 L10.9912241,19.1632965 C11.2472831,19.3166875 11.5760654,19.262909 11.7697903,19.0367948 L14.3615481,16.0129755 L14.3615481,17.416717 C14.3615481,17.754055 14.6347185,18.0278365 14.9726676,18.0278365 C15.3106167,18.0278365 15.5837871,17.754055 15.5837871,17.416717 L15.5837871,14.3611195 C15.5837871,14.3531749 15.5795092,14.3464526 15.5788981,14.3385081" id="🎨-Icon-Сolor" fill="#E01F27"></path>
                        </g>
                    </g>
                </g>
            </g>
        </g>
    </g>
</svg>