<?xml version="1.0" encoding="UTF-8"?>
<svg width="26px" height="31px" viewBox="0 0 26 31" version="1.1" xmlns="http://www.w3.org/2000/svg" xmlns:xlink="http://www.w3.org/1999/xlink">
    <title>Legal Compliances</title>
    <g id="Page-1" stroke="none" stroke-width="1" fill="none" fill-rule="evenodd">
        <g id="Glocal-CSR-Test-Result-opt2" transform="translate(-122.000000, -586.000000)" fill-rule="nonzero">
            <g id="Group-8" transform="translate(83.000000, 216.000000)">
                <g id="Group-9" transform="translate(0.000000, 297.000000)">
                    <g id="Group-4" transform="translate(18.000000, 53.000000)">
                        <g id="Legal-Compliances" transform="translate(21.000000, 20.000000)">
                            <g id="Group-3" transform="translate(0.446916, 0.000000)">
                                <path d="M24.004596,16.0027576 L24.004596,26.5055152 C24.004596,27.1958712 23.724774,27.8208712 23.272363,28.2732822 C22.8199519,28.7256932 22.1949519,29.0055152 21.504596,29.0055152 L21.504596,29.0055152 L20.5031253,29.0055152 C19.8127693,29.0055152 19.1877693,28.7256932 18.7353583,28.2732822 C18.2829473,27.8208712 18.0031253,27.1958712 18.0031253,26.5055152 L18.0031253,26.5055152 L18.0031253,18.5027576 C18.0031253,17.8124017 18.2829473,17.1874017 18.7353583,16.7349907 C19.1877693,16.2825796 19.8127693,16.0027576 20.5031253,16.0027576 L20.5031253,16.0027576 L24.004596,16.0027576 Z" id="Rectangle" stroke="#0057A8" stroke-width="2" fill="#FFFFFF"></path>
                                <path d="M11.9459457,1 L13.093,2.506 L13.0939884,6.92627309 L13.102153,7.14036113 C13.1398371,7.63255024 13.3050324,8.0707355 13.5363794,8.40123122 C13.907752,8.93176351 14.4383416,9.20150749 14.9866525,9.20150749 L14.9866525,9.20150749 L18.199,9.201 L18.881051,10.0969766 L18.7440994,29.0032498 L16.8080894,29.0055152 L3.19433714,29.0055152 C2.60503105,29.0055152 2.08142871,28.7073908 1.69810187,28.2573006 C1.30479217,27.7954888 1.05397742,27.1735276 1.00774756,26.4862189 L1,26.2548258 L1,3.7506894 C1,2.97217834 1.2610911,2.26133879 1.69810187,1.7482146 C2.04309603,1.34313339 2.50171333,1.06114453 3.019591,1.00879757 L3.19433714,1 L11.9459457,1 Z" id="sessions" stroke="#0057A8" stroke-width="2" fill="#FFFFFF"></path>
                                <path d="M5.95656044,17.0152733 C5.57794834,17.0152733 5.2681748,17.3250468 5.2681748,17.7036589 C5.2681748,18.082271 5.57794834,18.3920445 5.95656044,18.3920445 L11.1882913,18.3920445 C11.5669034,18.3920445 11.8766769,18.082271 11.8766769,17.7036589 C11.8766769,17.3250468 11.5669034,17.0152733 11.1882913,17.0152733 L5.95656044,17.0152733 Z" id="Path" fill="#E01F27"></path>
                                <path d="M5.95656044,20.5948786 C5.57794834,20.5948786 5.2681748,20.9046521 5.2681748,21.2832642 C5.2681748,21.6618763 5.57794834,21.9716499 5.95656044,21.9716499 L13.9782778,21.9716499 C14.3568899,21.9716499 14.6666634,21.6618763 14.6666634,21.2832642 C14.6666634,20.9046521 14.3568899,20.5948786 13.9782778,20.5948786 L5.95656044,20.5948786 Z" id="Path" fill="#E01F27"></path>
                            </g>
                        </g>
                    </g>
                </g>
            </g>
        </g>
    </g>
</svg>