<?xml version="1.0" encoding="UTF-8"?>
<svg width="29px" height="31px" viewBox="0 0 29 31" version="1.1" xmlns="http://www.w3.org/2000/svg" xmlns:xlink="http://www.w3.org/1999/xlink">
    <title>workshop</title>
    <g id="Page-1" stroke="none" stroke-width="1" fill="none" fill-rule="evenodd">
        <g id="Glocal-CSR-Test-Result-opt2" transform="translate(-1006.000000, -583.000000)">
            <g id="Group-8" transform="translate(83.000000, 216.000000)">
                <g id="Group-9" transform="translate(0.000000, 297.000000)">
                    <g id="Group-4" transform="translate(903.000000, 53.000000)">
                        <g id="workshop" transform="translate(22.000000, 19.000000)">
                            <path d="M21.6045039,1.99123537 L3.39549613,1.99123537 C1.64652965,1.99123537 0.228712175,3.40905284 0.228712175,5.15801932 L0.228712175,17.8011644 C0.228712175,19.5501308 1.64652965,20.9679483 3.39549613,20.9679483 L21.6045039,20.9679483 C23.3534704,20.9679483 24.7712878,19.5501308 24.7712878,17.8011644 L24.7712878,5.15801932 C24.7712878,3.40905284 23.3534704,1.99123537 21.6045039,1.99123537 Z" id="Rectangle" stroke="#0057A8" stroke-width="2.5" fill="#FFFFFF" fill-rule="nonzero"></path>
                            <path d="M7.79042401,7.58616384 C7.14285721,7.58616384 6.61302983,8.11599122 6.61302983,8.76355802 C6.61302983,9.41112482 7.14285721,9.9409522 7.79042401,9.9409522 C8.43799081,9.9409522 8.96781819,9.41112482 8.96781819,8.76355802 C8.96781819,8.11599122 8.43799081,7.58616384 7.79042401,7.58616384" id="Path" fill="#E01F27" fill-rule="nonzero"></path>
                            <path d="M12.0584772,7.77347652 C11.653748,7.77347652 11.322606,8.1046186 11.322606,8.5093478 C11.322606,8.91407699 11.653748,9.24521907 12.0584772,9.24521907 L17.6510989,9.24521907 C18.0558281,9.24521907 18.3869702,8.91407699 18.3869702,8.5093478 C18.3869702,8.1046186 18.0558281,7.77347652 17.6510989,7.77347652 L12.0584772,7.77347652 Z" id="Path" fill="#E01F27" fill-rule="nonzero"></path>
                            <path d="M7.79042401,11.064828 C7.14285721,11.064828 6.61302983,11.5946554 6.61302983,12.2422222 C6.61302983,12.889789 7.14285721,13.4196164 7.79042401,13.4196164 C8.43799081,13.4196164 8.96781819,12.889789 8.96781819,12.2422222 C8.96781819,11.5946554 8.43799081,11.064828 7.79042401,11.064828" id="Path" fill="#E01F27" fill-rule="nonzero"></path>
                            <path d="M12.0584772,11.2521407 C11.653748,11.2521407 11.322606,11.5832828 11.322606,11.988012 C11.322606,12.3927412 11.653748,12.7238833 12.0584772,12.7238833 L17.6510989,12.7238833 C18.0558281,12.7238833 18.3869702,12.3927412 18.3869702,11.988012 C18.3869702,11.5832828 18.0558281,11.2521407 17.6510989,11.2521407 L12.0584772,11.2521407 Z" id="Path" fill="#E01F27" fill-rule="nonzero"></path>
                            <line x1="12.5" y1="0" x2="12.5" y2="1.81960896" id="Line-2" stroke="#0057A8" stroke-width="2.5" stroke-linecap="round"></line>
                            <path d="M6.97383818,19.7745222 C7.27151175,19.3161451 7.88441192,19.1858692 8.34278901,19.4835428 C8.77060764,19.7613714 8.91261371,20.3137975 8.6876268,20.7588971 L8.6337685,20.8524936 L4.23242907,27.629962 C3.9347555,28.0883391 3.32185534,28.218615 2.86347824,27.9209415 C2.43565961,27.6431128 2.29365354,27.0906867 2.51864045,26.6455872 L2.57249876,26.5519906 L6.97383818,19.7745222 Z" id="Line-2" fill="#0057A8" fill-rule="nonzero"></path>
                            <path d="M20.888495,19.7745222 C21.1861685,19.3161451 21.7990687,19.1858692 22.2574458,19.4835428 C22.6852644,19.7613714 22.8272705,20.3137975 22.6022836,20.7588971 L22.5484253,20.8524936 L18.1470858,27.629962 C17.8494123,28.0883391 17.2365121,28.218615 16.778135,27.9209415 C16.3503164,27.6431128 16.2083103,27.0906867 16.4332972,26.6455872 L16.4871555,26.5519906 L20.888495,19.7745222 Z" id="Line-2" fill="#0057A8" fill-rule="nonzero" transform="translate(19.517790, 23.702242) scale(-1, 1) translate(-19.517790, -23.702242) "></path>
                            <path d="M12.5,19.3925693 C13.0123925,19.3925693 13.4338323,19.7819845 13.4845107,20.2810063 L13.48962,20.3821892 L13.48962,27.9531897 C13.48962,28.4997417 13.046552,28.9428097 12.5,28.9428097 C11.9876075,28.9428097 11.5661677,28.5533945 11.5154893,28.0543726 L11.51038,27.9531897 L11.51038,20.3821892 C11.51038,19.8356372 11.953448,19.3925693 12.5,19.3925693 Z" id="Line-2" fill="#0057A8" fill-rule="nonzero"></path>
                        </g>
                    </g>
                </g>
            </g>
        </g>
    </g>
</svg>