<?xml version="1.0" encoding="UTF-8"?>
<svg width="48px" height="46px" viewBox="0 0 48 46" version="1.1" xmlns="http://www.w3.org/2000/svg" xmlns:xlink="http://www.w3.org/1999/xlink">
    <title>Academic</title>
    <g id="Academic" stroke="none" stroke-width="1" fill="none" fill-rule="evenodd">
        <g transform="translate(8.000000, 5.000000)">
            <path d="M10.7302822,14.0269514 L20.9621663,14.0269514 C22.6190205,14.0269514 23.9621663,15.3700972 23.9621663,17.0269514 L23.9621663,23.6280193 C23.9621663,25.2848736 22.6190205,26.6280193 20.9621663,26.6280193 L10.7302822,26.6280193 C9.07342798,26.6280193 7.73028223,25.2848736 7.73028223,23.6280193 L7.73028223,17.0269514 C7.73028223,15.3700972 9.07342798,14.0269514 10.7302822,14.0269514 Z" id="Rectangle" stroke="#0057A8" stroke-width="2" fill="#FFFFFF" fill-rule="nonzero"></path>
            <line x1="27.7211289" y1="16.8888889" x2="27.7211289" y2="23.0826341" id="Line-2" stroke="#E01F27" stroke-width="2.5" stroke-linecap="round"></line>
            <path d="M13.155379,11.9614258 L22.2290504,5.41377602 C22.6769063,5.09059881 23.3019521,5.19167089 23.6251294,5.63952682 C23.8460261,5.94564337 23.8757154,6.35006401 23.7018913,6.68515785 L18.4800953,16.7516083 C18.3103264,17.0788846 18.0816846,17.3720637 17.8056299,17.6164508 L9.51033063,24.9601538 C9.09680867,25.3262385 8.46481257,25.287783 8.09872783,24.8742611 C7.84848088,24.5915872 7.77875932,24.1920756 7.91846694,23.841348 L12.1238454,13.2839963 C12.3349501,12.7540308 12.6927817,12.2952406 13.155379,11.9614258 Z" id="Rectangle" stroke="#0057A8" stroke-width="2" fill="#FFFFFF" fill-rule="nonzero" transform="translate(16.000000, 15.350511) rotate(51.000000) translate(-16.000000, -15.350511) "></path>
        </g>
    </g>
</svg>