<?xml version="1.0" encoding="UTF-8"?>
<svg width="48px" height="46px" viewBox="0 0 48 46" version="1.1" xmlns="http://www.w3.org/2000/svg" xmlns:xlink="http://www.w3.org/1999/xlink">
    <title>ad copy</title>
    <g id="ad-copy" stroke="none" stroke-width="1" fill="none" fill-rule="evenodd">
        <g id="ad" transform="translate(15.000000, 14.000000)" fill-rule="nonzero">
            <path d="M19,13.832068 C19,14.5109841 18.4668125,15.0642207 17.8125,15.0642207 L5.407875,15.0642207 C4.7630625,15.0642207 4.1289375,15.2465793 3.574375,15.591582 L0,17.8168498 L0,1.51054098 C0,0.831624841 0.5331875,0.278388278 1.1875,0.278388278 L17.8125,0.278388278 C18.4668125,0.278388278 19,0.831624841 19,1.51054098 L19,13.832068 Z" id="Path" stroke="#0057A8" stroke-width="2" fill="#FFFFFF"></path>
            <path d="M4.22977194,10.4140695 L4.78733782,8.63589204 L7.32871444,8.63589204 L7.88917794,10.4140695 L9.19587296,10.4140695 L6.81346436,3.2014652 L5.30218578,3.2014652 L2.92307692,10.4140695 L4.22977194,10.4140695 Z M6.99884654,7.58663844 L5.11720572,7.58663844 L6.03142719,4.68061256 L6.08422295,4.68061256 L6.99884654,7.58663844 Z M11.9162015,10.5091575 C12.2065781,10.5091575 12.4474588,10.4575047 12.6388434,10.3541992 C12.830228,10.2508937 12.9842157,10.1258705 13.1008063,9.97912971 C13.2173969,9.8323889 13.3064898,9.69327861 13.3680848,9.56179884 L13.3680848,9.56179884 L13.440679,9.56179884 L13.440679,10.4140695 L14.6153846,10.4140695 L14.6153846,3.2014652 L13.4175808,3.2014652 L13.4175808,5.89914824 L13.3680848,5.89914824 C13.3064898,5.76766848 13.2195968,5.62738426 13.1074058,5.4782956 C12.9952148,5.32920694 12.843427,5.20124895 12.6520424,5.09442164 C12.4606577,4.98759433 12.2164773,4.93418068 11.9195012,4.93418068 C11.5301325,4.93418068 11.1770609,5.04042102 10.8602863,5.25290172 C10.5435118,5.46538241 10.2921819,5.77882078 10.1062969,6.19321682 C9.92041182,6.60761287 9.82746928,7.11533607 9.82746928,7.71638642 C9.82746928,8.31039322 9.91876195,8.81518161 10.1013473,9.23075158 C10.2839326,9.64632155 10.5325126,9.9632817 10.8470874,10.181632 C11.1616621,10.3999823 11.5180335,10.5091575 11.9162015,10.5091575 Z M12.2494747,9.46318902 C11.9876957,9.46318902 11.7671634,9.38747076 11.5878778,9.23603425 C11.4085923,9.08459773 11.2733031,8.87681275 11.1820105,8.61267929 C11.0907178,8.34854583 11.0450715,8.04743369 11.0450715,7.70934287 C11.0450715,7.37359989 11.0901678,7.07542257 11.1803606,6.81481089 C11.2705533,6.55419921 11.4047426,6.34993601 11.5829282,6.20202127 C11.7611139,6.05410654 11.9832961,5.98014917 12.2494747,5.98014917 C12.506854,5.98014917 12.7240866,6.05175868 12.9011723,6.19497771 C13.0782581,6.33819674 13.2124473,6.53893817 13.30374,6.79720199 C13.3950327,7.05546582 13.440679,7.35951278 13.440679,7.70934287 C13.440679,8.05917296 13.3944827,8.36556777 13.3020901,8.6285273 C13.2096976,8.89148683 13.0744084,9.096337 12.8962227,9.24307781 C12.7180371,9.38981862 12.5024544,9.46318902 12.2494747,9.46318902 Z" id="Ad" fill="#E01F27"></path>
        </g>
    </g>
</svg>