<?xml version="1.0" encoding="UTF-8"?>
<svg width="46px" height="45px" viewBox="0 0 46 45" version="1.1" xmlns="http://www.w3.org/2000/svg" xmlns:xlink="http://www.w3.org/1999/xlink">
    <title>arrow-doodle</title>
    <g id="Page-1" stroke="none" stroke-width="1" fill="none" fill-rule="evenodd">
        <g id="Glocal-Dashboard" transform="translate(-856.000000, -170.000000)" fill="#000000" fill-rule="nonzero">
            <g id="Group-12" transform="translate(83.000000, 157.000000)">
                <g id="Group-6" transform="translate(418.000000, 0.000000)">
                    <g id="noun_Hand-drawn-arrow_2092514" transform="translate(377.944985, 35.452176) scale(-1, -1) rotate(-98.000000) translate(-377.944985, -35.452176) translate(352.944985, 15.952176)">
                        <path d="M49.05,0.288888889 C47.9722222,-0.0611111111 46.7777778,0.277777778 45.7111111,0.505555556 C44.4611111,0.772222222 43.2166667,1.04444444 41.9777778,1.32777778 C39.45,1.9 36.9277778,2.50555556 34.4055556,3.10555556 C33.7,3.27222222 33.1166667,5.08333333 34.0777778,4.85555556 C36.1888889,4.35 38.2944444,3.85 40.4055556,3.36111111 C42.1888889,2.95 43.9833333,2.48333333 45.7833333,2.15 C38.9444444,4.81111111 32.2277778,7.82222222 25.9222222,11.5888889 C19.1,15.6666667 12.7777778,20.6388889 7.57222222,26.6722222 C4.70555556,30 2.2,33.65 0.2,37.5611111 C0.0444444444,37.8611111 -0.172222222,38.4666667 0.216666667,38.6944444 C0.588888889,38.9111111 1.06111111,38.4333333 1.20555556,38.1444444 C4.63333333,31.4333333 9.56666667,25.6277778 15.2888889,20.7611111 C21.4777778,15.5055556 28.5388889,11.3833333 35.8777778,7.96111111 C39.7611111,6.15 43.7277778,4.53333333 47.7333333,3.01666667 C47.2222222,3.56666667 46.7055556,4.11111111 46.1888889,4.65555556 C44.7111111,6.21111111 43.2,7.73333333 41.6666667,9.22777778 C41.3611111,9.52222222 41.0333333,10.0333333 41.1833333,10.4833333 C41.3222222,10.8944444 41.7777778,10.8444444 42.05,10.5777778 C43.8166667,8.85555556 45.55,7.1 47.2444444,5.30555556 C48.0611111,4.45555556 51.6944444,1.14444444 49.05,0.288888889 Z" id="arrow-doodle"></path>
                    </g>
                </g>
            </g>
        </g>
    </g>
</svg>