<?xml version="1.0" encoding="UTF-8"?>
<svg width="48px" height="48px" viewBox="0 0 48 48" version="1.1" xmlns="http://www.w3.org/2000/svg" xmlns:xlink="http://www.w3.org/1999/xlink">
    <title>awards</title>
    <defs>
        <path d="M14.890935,9.1668805 C14.9743559,9.1668805 15.0577767,9.18681757 15.1338524,9.22616703 L17.1112942,10.2597464 L16.7351133,8.07873658 C16.7052077,7.90769757 16.7623956,7.73351059 16.8872646,7.61231423 L18.480131,6.07191378 L16.2749869,5.75082213 C16.1044726,5.72616313 15.9570432,5.61965724 15.8804429,5.46540733 L14.890935,3.47484897 L13.9014271,5.46540733 C13.8248268,5.61965724 13.6773974,5.72616313 13.5068831,5.75082213 L11.301739,6.07191378 L12.8946054,7.61231423 C13.0194744,7.73351059 13.0766623,7.90769757 13.0467567,8.07873658 L12.6705758,10.2597464 L14.6480176,9.22616703 C14.7240933,9.18681757 14.8075141,9.1668805 14.890935,9.1668805" id="path-1"></path>
    </defs>
    <g id="awards" stroke="none" stroke-width="1" fill="none" fill-rule="evenodd">
        <g transform="translate(9.000000, 9.000000)">
            <path d="M10.6470588,22.9411765 L21,22.9411765 C22.1045695,22.9411765 23,23.836607 23,24.9411765 L23,28.1352941 L23,28.1352941 L8.64705882,28.1352941 L8.64705882,24.9411765 C8.64705882,23.836607 9.54248932,22.9411765 10.6470588,22.9411765 Z" id="Rectangle" stroke="#0057A8" stroke-width="2" fill="#FFFFFF" fill-rule="nonzero"></path>
            <path d="M5.29411765,0 L24.7058824,0 L24.7058824,5.78280543 C24.7058824,11.1432162 20.3604108,15.4886878 15,15.4886878 C9.63958919,15.4886878 5.29411765,11.1432162 5.29411765,5.78280543 L5.29411765,0 L5.29411765,0 Z" id="Rectangle" stroke="#0057A8" stroke-width="2" fill="#FFFFFF" fill-rule="nonzero"></path>
            <mask id="mask-2" fill="white">
                <use xlink:href="#path-1"></use>
            </mask>
            <use id="🎨-Icon-Сolor" fill="#E01F27" fill-rule="nonzero" xlink:href="#path-1"></use>
            <path d="M-0.882352941,4.11764706 L7.94117647,2.64705882 L7.94117647,4.08371041 C7.94117647,6.52026077 5.96596213,8.49547511 3.52941176,8.49547511 L3.49547511,8.49547511 C1.07766744,8.49547511 -0.882352941,6.53545473 -0.882352941,4.11764706 L-0.882352941,4.11764706 L-0.882352941,4.11764706 Z" id="Rectangle" stroke="#0057A8" stroke-width="2" fill="#FFFFFF" fill-rule="nonzero" transform="translate(3.529412, 5.571267) rotate(-270.000000) translate(-3.529412, -5.571267) "></path>
            <path d="M22.0588235,4.11764706 L30.8823529,2.64705882 L30.8823529,4.08371041 C30.8823529,6.52026077 28.9071386,8.49547511 26.4705882,8.49547511 L26.4366516,8.49547511 C24.0188439,8.49547511 22.0588235,6.53545473 22.0588235,4.11764706 L22.0588235,4.11764706 L22.0588235,4.11764706 Z" id="Rectangle" stroke="#0057A8" stroke-width="2" fill="#FFFFFF" fill-rule="nonzero" transform="translate(26.470588, 5.571267) scale(-1, 1) rotate(-270.000000) translate(-26.470588, -5.571267) "></path>
            <line x1="5.05882353" y1="28.5" x2="25.7058824" y2="28.5" id="Line" stroke="#0057A8" stroke-width="2" stroke-linecap="round"></line>
            <line x1="15.3823529" y1="14.6470588" x2="15.3823529" y2="22.9411765" id="Line" stroke="#0057A8" stroke-width="3"></line>
        </g>
    </g>
</svg>