<?xml version="1.0" encoding="UTF-8"?>
<svg width="48px" height="46px" viewBox="0 0 48 46" version="1.1" xmlns="http://www.w3.org/2000/svg" xmlns:xlink="http://www.w3.org/1999/xlink">
    <title>broucher</title>
    <g id="broucher" stroke="none" stroke-width="1" fill="none" fill-rule="evenodd">
        <g transform="translate(2.000000, 11.000000)" fill-rule="nonzero">
            <path d="M1.7397977,14.8696995 C0.792764961,14.8696995 0.025711296,14.1026459 0.025711296,13.1556131 C0.025711296,12.2085804 0.792764961,11.4415267 1.7397977,11.4415267 C2.68683043,11.4415267 3.4538841,12.2085804 3.4538841,13.1556131 C3.4538841,14.1026459 2.68254522,14.8696995 1.7397977,14.8696995 Z M1.7397977,12.2985699 C1.26842394,12.2985699 0.882754497,12.6842394 0.882754497,13.1556131 C0.882754497,13.6269869 1.26842394,14.0126563 1.7397977,14.0126563 C2.21117146,14.0126563 2.5968409,13.6269869 2.5968409,13.1556131 C2.5968409,12.6842394 2.21117146,12.2985699 1.7397977,12.2985699 Z" id="Shape" fill="#000000"></path>
            <path d="M42.2479446,4.25093428 C42.136529,4.25093428 42.0293986,4.20808212 41.9436943,4.12666301 L38.7940605,0.977029249 C38.6269371,0.809905825 38.6269371,0.539937217 38.7940605,0.372813792 C38.9611839,0.205690368 39.2311525,0.205690368 39.3982759,0.372813792 L42.5479097,3.52244756 C42.7150331,3.68957098 42.7150331,3.95953959 42.5479097,4.12666301 C42.4664906,4.20808212 42.3593602,4.25093428 42.2479446,4.25093428 Z" id="Path" fill="#000000"></path>
            <path d="M39.0983108,4.25093428 C38.9868952,4.25093428 38.8797648,4.20808212 38.7940605,4.12666301 C38.6269371,3.95953959 38.6269371,3.68957098 38.7940605,3.52244756 L41.9436943,0.372813792 C42.1108177,0.205690368 42.3807863,0.205690368 42.5479097,0.372813792 C42.7150331,0.539937217 42.7150331,0.809905825 42.5479097,0.977029249 L39.3982759,4.12666301 C39.3168568,4.20808212 39.2097264,4.25093428 39.0983108,4.25093428 Z" id="Path" fill="#000000"></path>
            <g id="Group-5" transform="translate(10.000000, 2.000000)" fill="#FFFFFF" stroke="#0057A8" stroke-width="2">
                <path d="M6.70216902,0.999881665 L6.73036123,1.00349605 C6.75174767,1.01086852 6.77038499,1.01385826 6.78060932,1.01781002 C6.80808952,1.0288021 6.8357474,1.03851866 6.86365677,1.04718908 L6.86365677,1.04718908 L12,3.35496669 L17.1388818,1.04604849 C17.159208,1.0396305 17.1792065,1.03272089 17.1988056,1.02531243 L17.1988056,1.02531243 L17.21,1.021 L17.2652213,1.01394135 C17.3151658,1.00643796 17.3382287,1.00096725 17.3543246,0.999686229 L17.3688357,0.999881665 L17.3970279,1.00349605 C17.4184143,1.01086852 17.4370517,1.01385826 17.447276,1.01781002 C17.4747282,1.02879092 17.5023578,1.03849889 17.5302382,1.04716261 L17.5302382,1.04716261 L22.8041315,3.41777722 C22.8636548,3.44447154 22.9125396,3.48744074 22.9465657,3.54003693 C22.9808048,3.59296255 23,3.65561908 23,3.72133333 L23,3.72133333 L23,19.9906667 C23,20.1044321 22.9416097,20.2099516 22.8478401,20.2708218 C22.7931211,20.306189 22.7300215,20.324 22.6666667,20.324 C22.6205646,20.324 22.5741117,20.314448 22.5298364,20.2945076 L22.5298364,20.2945076 L17.3333333,17.9597 L12.2341757,20.2507699 L12.1803438,20.2622235 C12.1585151,20.2743494 12.1343976,20.2827696 12.1112423,20.2920713 C12.0753874,20.3064746 12.0393285,20.324 12,20.324 C11.9606715,20.324 11.9246126,20.3064746 11.8887577,20.2920713 C11.8846872,20.2904361 11.8805871,20.2888282 11.8764689,20.2872251 C11.8733667,20.2860287 11.8702516,20.2848439 11.8671234,20.2836708 C11.8342278,20.271335 11.801566,20.260928 11.7689928,20.2521936 L11.7689928,20.2521936 L6.66666662,17.9597 L1.46934594,20.2948754 C1.42588825,20.314448 1.3794354,20.324 1.33333333,20.324 C1.26997849,20.324 1.20687893,20.306189 1.15380434,20.271887 C1.0583903,20.2099516 1,20.1044321 1,19.9906667 L1,19.9906667 L1,3.72133333 C1,3.65561908 1.01919518,3.59296255 1.05343434,3.54003693 C1.08746039,3.48744074 1.13634516,3.44447154 1.19665206,3.41742542 L1.19665206,3.41742542 L6.47229988,1.04602173 C6.4925969,1.03961129 6.51256702,1.03271059 6.53213892,1.02531243 C6.55315706,1.01778862 6.57443474,1.01283439 6.59605305,1.00742979 L6.59605305,1.00742979 L6.60240545,1.00584041 C6.63098582,0.999248118 6.65130365,1 6.672,1 C6.68215544,1 6.6921979,0.998603316 6.70216902,0.999881665 L6.70216902,0.999881665 Z" id="Path"></path>
                <line x1="6.5" y1="1.5" x2="6.5" y2="17.5" id="Line"></line>
                <line x1="11.5" y1="3.5" x2="11.5" y2="19.5" id="Line"></line>
                <line x1="17.5" y1="1.5" x2="17.5" y2="18.5" id="Line"></line>
            </g>
        </g>
    </g>
</svg>