<?xml version="1.0" encoding="UTF-8"?>
<svg width="43px" height="38px" viewBox="0 0 43 38" version="1.1" xmlns="http://www.w3.org/2000/svg" xmlns:xlink="http://www.w3.org/1999/xlink">
    <title>certification</title>
    <defs>
        <path d="M22.376393,12.1820709 C22.4825578,12.1820709 22.5887226,12.2074437 22.6855395,12.2575214 L25.2021117,13.5728961 L24.7233687,10.7972551 C24.6853097,10.579584 24.7580893,10.3579066 24.9170026,10.2036672 L26.9441486,8.24329153 L24.1377933,7.83465735 C23.9207899,7.80327531 23.7331653,7.66773162 23.6356807,7.47142697 L22.376393,4.93816216 L21.1171054,7.47142697 C21.0196208,7.66773162 20.8319962,7.80327531 20.6149928,7.83465735 L17.8086375,8.24329153 L19.8357835,10.2036672 C19.9946968,10.3579066 20.0674764,10.579584 20.0294174,10.7972551 L19.5506744,13.5728961 L22.0672466,12.2575214 C22.1640635,12.2074437 22.2702283,12.1820709 22.376393,12.1820709" id="path-1"></path>
    </defs>
    <g id="Page-1" stroke="none" stroke-width="1" fill="none" fill-rule="evenodd">
        <g id="Course-details" transform="translate(-47.000000, -461.000000)">
            <g id="Group-16" transform="translate(0.000000, 124.000000)">
                <g id="Group-10" transform="translate(15.000000, 289.000000)">
                    <g id="Group-6" transform="translate(2.000000, 35.000000)">
                        <g id="Group-8" transform="translate(16.000000, 14.000000)">
                            <g id="certification" transform="translate(14.000000, 0.000000)">
                                <polygon id="Rectangle" stroke="#0057A8" stroke-width="2" fill="#FFFFFF" fill-rule="nonzero" points="17.3126023 18.4503546 27.1828969 18.4503546 29.5053191 33.5460993 21.6892569 27.1594381 14.4095745 33.5460993"></polygon>
                                <path d="M1.7397977,14.8696995 C0.792764961,14.8696995 0.025711296,14.1026459 0.025711296,13.1556131 C0.025711296,12.2085804 0.792764961,11.4415267 1.7397977,11.4415267 C2.68683043,11.4415267 3.4538841,12.2085804 3.4538841,13.1556131 C3.4538841,14.1026459 2.68254522,14.8696995 1.7397977,14.8696995 Z M1.7397977,12.2985699 C1.26842394,12.2985699 0.882754497,12.6842394 0.882754497,13.1556131 C0.882754497,13.6269869 1.26842394,14.0126563 1.7397977,14.0126563 C2.21117146,14.0126563 2.5968409,13.6269869 2.5968409,13.1556131 C2.5968409,12.6842394 2.21117146,12.2985699 1.7397977,12.2985699 Z" id="Shape" fill="#000000" fill-rule="nonzero"></path>
                                <path d="M42.2479446,4.25093428 C42.136529,4.25093428 42.0293986,4.20808212 41.9436943,4.12666301 L38.7940605,0.977029249 C38.6269371,0.809905825 38.6269371,0.539937217 38.7940605,0.372813792 C38.9611839,0.205690368 39.2311525,0.205690368 39.3982759,0.372813792 L42.5479097,3.52244756 C42.7150331,3.68957098 42.7150331,3.95953959 42.5479097,4.12666301 C42.4664906,4.20808212 42.3593602,4.25093428 42.2479446,4.25093428 Z" id="Path" fill="#000000" fill-rule="nonzero"></path>
                                <path d="M39.0983108,4.25093428 C38.9868952,4.25093428 38.8797648,4.20808212 38.7940605,4.12666301 C38.6269371,3.95953959 38.6269371,3.68957098 38.7940605,3.52244756 L41.9436943,0.372813792 C42.1108177,0.205690368 42.3807863,0.205690368 42.5479097,0.372813792 C42.7150331,0.539937217 42.7150331,0.809905825 42.5479097,0.977029249 L39.3982759,4.12666301 C39.3168568,4.20808212 39.2097264,4.25093428 39.0983108,4.25093428 Z" id="Path" fill="#000000" fill-rule="nonzero"></path>
                                <circle id="Oval" stroke="#0057A8" stroke-width="2" fill="#FFFFFF" fill-rule="nonzero" cx="21.9574468" cy="10.0638298" r="10.0638298"></circle>
                                <mask id="mask-2" fill="white">
                                    <use xlink:href="#path-1"></use>
                                </mask>
                                <use id="🎨-Icon-Сolor" fill="#E01F27" fill-rule="nonzero" xlink:href="#path-1"></use>
                            </g>
                        </g>
                    </g>
                </g>
            </g>
        </g>
    </g>
</svg>