<?xml version="1.0" encoding="UTF-8"?>
<svg width="14px" height="18px" viewBox="0 0 14 18" version="1.1" xmlns="http://www.w3.org/2000/svg" xmlns:xlink="http://www.w3.org/1999/xlink">
    <title>contact</title>
    <g id="Page-1" stroke="none" stroke-width="1" fill="none" fill-rule="evenodd">
        <g id="Glocal-Login" transform="translate(-824.000000, -409.000000)" fill="#FFFFFF" fill-rule="nonzero" stroke="#8392B3" stroke-width="1.3">
            <g id="Group-6" transform="translate(431.000000, 141.000000)">
                <g id="Group-4" transform="translate(60.000000, 251.000000)">
                    <path d="M333,22.22 C333,20.4441 334.4441,19 336.22,19 C336.402,19 336.5819,19.0154 336.7562,19.0455 C336.9263,19.0728 337.0971,19.1162 337.2637,19.1736 C337.4912,19.2527 337.6627,19.4438 337.7166,19.679 L338.6749,23.8538 C338.7281,24.0834 338.6616,24.3242 338.4978,24.495 C338.4026,24.5944 338.4005,24.5965 337.5325,25.0508 C338.2353,26.5726 339.4568,27.7899 340.9478,28.4689 C341.4028,27.6002 341.4056,27.5974 341.505,27.5022 C341.6758,27.3384 341.918,27.2747 342.1462,27.3251 L346.3217,28.2834 C346.5562,28.3373 346.7473,28.5081 346.8257,28.7356 C346.8831,28.9008 346.9265,29.0716 346.9552,29.2473 C346.9846,29.4202 347,29.5994 347,29.78 C347,31.5559 345.5552,33 343.78,33 C337.8356,33 333,28.1644 333,22.22 Z" id="contact" transform="translate(340.000000, 26.000000) rotate(17.000000) translate(-340.000000, -26.000000) "></path>
                </g>
            </g>
        </g>
    </g>
</svg>