<?xml version="1.0" encoding="UTF-8"?>
<svg width="48px" height="46px" viewBox="0 0 48 46" version="1.1" xmlns="http://www.w3.org/2000/svg" xmlns:xlink="http://www.w3.org/1999/xlink">
    <title>cose</title>
    <g id="cose" stroke="none" stroke-width="1" fill="none" fill-rule="evenodd">
        <path d="M27.5351616,24.00025 L38.2673933,13.2680183 C39.2448689,12.2905427 39.2448689,10.7105822 38.2673933,9.73310667 C37.2899178,8.75563111 35.7099573,8.75563111 34.7324817,9.73310667 L24.00025,20.4653384 L13.2680183,9.73310667 C12.2905427,8.75563111 10.7105822,8.75563111 9.73310667,9.73310667 C8.75563111,10.7105822 8.75563111,12.2905427 9.73310667,13.2680183 L20.4653384,24.00025 L9.73310667,34.7324817 C8.75563111,35.7099573 8.75563111,37.2899178 9.73310667,38.2673933 C10.2205945,38.7548811 10.8605785,38.999875 11.5005625,38.999875 C12.1405465,38.999875 12.7805305,38.7548811 13.2680183,38.2673933 L24.00025,27.5351616 L34.7324817,38.2673933 C35.2199695,38.7548811 35.8599535,38.999875 36.4999375,38.999875 C37.1399215,38.999875 37.7799055,38.7548811 38.2673933,38.2673933 C39.2448689,37.2899178 39.2448689,35.7099573 38.2673933,34.7324817 L27.5351616,24.00025 Z" fill="#2E3A44" fill-rule="nonzero"></path>
    </g>
</svg>