<?xml version="1.0" encoding="UTF-8"?>
<svg width="30px" height="41px" viewBox="0 0 30 41" version="1.1" xmlns="http://www.w3.org/2000/svg" xmlns:xlink="http://www.w3.org/1999/xlink">
    <title>courses-active</title>
    <g id="courses-active" stroke="none" stroke-width="1" fill="none" fill-rule="evenodd">
        <g id="courses" transform="translate(2.000000, 3.000000)" fill="#FFFFFF" fill-rule="nonzero">
            <path d="M2.6648872,4.04935694 L-0.149647058,4.20852708 L-0.14860681,30.2068676 C-0.148606811,33.3255956 2.37966754,35.85387 5.49845201,35.85387 L25.4117647,35.85387 L25.4117647,6.23501078 L2.94070588,6.49411765 L2.6648872,4.04935694 Z M22.5868235,33.0296471 L5.49845201,33.0303406 L5.2877287,33.022596 C3.82675007,32.914809 2.6749226,31.6953219 2.6749226,30.2068111 L2.67247059,9.32047059 L22.5868235,9.09176471 L22.5868235,33.0296471 Z" id="Rectangle"></path>
            <path d="M6.99595142,15.5465587 C6.46153846,15.5465587 6.0242915,15.9838057 6.0242915,16.5182186 C6.0242915,17.0526316 6.46153846,17.4898785 6.99595142,17.4898785 L14.3805668,17.4898785 C14.9149798,17.4898785 15.3522267,17.0526316 15.3522267,16.5182186 C15.3522267,15.9838057 14.9149798,15.5465587 14.3805668,15.5465587 L6.99595142,15.5465587 Z" id="Path"></path>
            <path d="M6.99595142,20.5991903 C6.46153846,20.5991903 6.0242915,21.0364372 6.0242915,21.5708502 C6.0242915,22.1052632 6.46153846,22.5425101 6.99595142,22.5425101 L16.9068826,22.5425101 C17.4412955,22.5425101 17.8785425,22.1052632 17.8785425,21.5708502 C17.8785425,21.0364372 17.4412955,20.5991903 16.9068826,20.5991903 L6.99595142,20.5991903 Z" id="Path"></path>
            <path d="M23.7676285,1.04886535 L25.9915854,-1.32755418 L5.17894737,-1.32755418 C2.23662044,-1.32755418 -0.148606811,1.05767307 -0.148606811,4 C-0.148606811,6.94232693 2.23662044,9.32755418 5.17894737,9.32755418 L25.1975317,9.32755418 L23.955606,7.20326282 C23.2353908,5.97134794 22.8854489,4.77420945 22.8854489,3.59457237 C22.8854489,2.49821378 23.1816761,1.67498752 23.7676285,1.04886535 Z M20.2710976,1.78845793 C20.1315468,2.35407518 20.0619195,2.95726779 20.0619195,3.59457237 L20.0721611,4.01949134 C20.1062803,4.72704861 20.2255504,5.43131752 20.4285006,6.13104843 L20.5454118,6.50402477 L5.17894737,6.50402477 C3.79601268,6.50402477 2.6749226,5.38293469 2.6749226,4 L2.68322337,3.79463104 C2.78768622,2.50775903 3.86515941,1.49597523 5.17894737,1.49597523 L20.3505882,1.49505882 L20.2710976,1.78845793 Z" id="Rectangle"></path>
        </g>
    </g>
</svg>