<?xml version="1.0" encoding="UTF-8"?>
<svg width="48px" height="46px" viewBox="0 0 48 46" version="1.1" xmlns="http://www.w3.org/2000/svg" xmlns:xlink="http://www.w3.org/1999/xlink">
    <title>download</title>
    <g id="download" stroke="none" stroke-width="1" fill="none" fill-rule="evenodd">
        <g transform="translate(9.000000, 8.000000)">
            <path d="M7,0 L23,0 C26.8659932,-7.10171439e-16 30,3.13400675 30,7 L30,23 C30,26.8659932 26.8659932,30 23,30 L7,30 C3.13400675,30 4.73447626e-16,26.8659932 0,23 L0,7 C-4.73447626e-16,3.13400675 3.13400675,7.10171439e-16 7,0 Z" id="Rectangle" fill="#E1F0F7"></path>
            <path d="M21.1875,18.5625 C21.634375,18.5625 22,18.928125 22,19.375 L22,21 L22,21 C22,21.4125 21.6884615,21.7557692 21.2890533,21.8061391 L21.1875,21.8125 L21.1875,21.8125 L9.8125,21.8125 C9.365625,21.8125 9,21.446875 9,21 L9,19.375 C9,18.928125 9.365625,18.5625 9.8125,18.5625 C10.259375,18.5625 10.625,18.928125 10.625,19.375 L10.625,20.187 L20.375,20.187 L20.375,19.375 C20.375,18.928125 20.740625,18.5625 21.1875,18.5625 Z M15.5,8 C15.9493125,8 16.3125,8.364 16.3125,8.8125 L16.3125,15.3125 L18.2625,13.85 C18.621625,13.5794375 19.1310625,13.653375 19.4,14.0125 C19.66975,14.371625 19.596625,14.8810625 19.2375,15.15 L15.9875,17.5875 C15.8436875,17.6955625 15.6714375,17.75 15.5,17.75 C15.3366875,17.75 15.173375,17.7004375 15.0328125,17.602125 L11.7828125,15.31575 C11.4155625,15.057375 11.327,14.550375 11.585375,14.1839375 C11.84375,13.8166875 12.3499375,13.728125 12.7171875,13.9865 L14.6899298,15.3758243 C14.6883198,15.3549269 14.6875,15.3338088 14.6875,15.3125 L14.6875,8.8125 C14.6875,8.364 15.0506875,8 15.5,8 Z" fill="#0057A8" fill-rule="nonzero"></path>
        </g>
    </g>
</svg>