<?xml version="1.0" encoding="UTF-8"?>
<svg width="48px" height="46px" viewBox="0 0 48 46" version="1.1" xmlns="http://www.w3.org/2000/svg" xmlns:xlink="http://www.w3.org/1999/xlink">
    <title>error</title>
    <g id="error" stroke="none" stroke-width="1" fill="none" fill-rule="evenodd">
        <path d="M25,27.5 C25.828,27.5 26.5,28.172 26.5,29 C26.5,29.828 25.828,30.5 25,30.5 C24.172,30.5 23.5,29.828 23.5,29 C23.5,28.172 24.172,27.5 25,27.5 Z M25,15.5 C25.828,15.5 26.5,16.172 26.5,17 L26.5,17 L26.5,24.5 C26.5,25.328 25.828,26 25,26 C24.172,26 23.5,25.328 23.5,24.5 L23.5,24.5 L23.5,17 C23.5,16.172 24.172,15.5 25,15.5 Z M25,35 C18.3835,35 13,29.6165 13,23 C13,16.3835 18.3835,11 25,11 C31.6165,11 37,16.3835 37,23 C37,29.6165 31.6165,35 25,35 M25,8 C16.7155,8 10,14.7155 10,23 C10,31.2845 16.7155,38 25,38 C33.2845,38 40,31.2845 40,23 C40,14.7155 33.2845,8 25,8" fill="#E01F27" fill-rule="nonzero"></path>
    </g>
</svg>