<?xml version="1.0" encoding="UTF-8"?>
<svg width="81px" height="47px" viewBox="0 0 81 47" version="1.1" xmlns="http://www.w3.org/2000/svg" xmlns:xlink="http://www.w3.org/1999/xlink">
    <title>events</title>
    <g id="Page-1" stroke="none" stroke-width="1" fill="none" fill-rule="evenodd">
        <g id="Glocal-Dashboard" transform="translate(-489.000000, -328.000000)">
            <g id="Group-12" transform="translate(83.000000, 157.000000)">
                <g id="Group-5" transform="translate(0.000000, 135.000000)">
                    <g id="Group-9" transform="translate(311.000000, 0.000000)">
                        <g id="Group-8" transform="translate(17.000000, 36.000000)">
                            <g id="events" transform="translate(78.000000, 0.000000)">
                                <path d="M2.95361005,32.9415829 C1.34585679,32.9415829 0.0436494095,31.6393755 0.0436494095,30.0316223 C0.0436494095,28.423869 1.34585679,27.1216617 2.95361005,27.1216617 C4.5613633,27.1216617 5.86357068,28.423869 5.86357068,30.0316223 C5.86357068,31.6393755 4.5540884,32.9415829 2.95361005,32.9415829 Z M2.95361005,28.576642 C2.15337087,28.576642 1.49862973,29.2313831 1.49862973,30.0316223 C1.49862973,30.8318615 2.15337087,31.4866026 2.95361005,31.4866026 C3.75384922,31.4866026 4.40859036,30.8318615 4.40859036,30.0316223 C4.40859036,29.2313831 3.75384922,28.576642 2.95361005,28.576642 Z" id="Shape" fill="#000000" fill-rule="nonzero"></path>
                                <g transform="translate(20.840000, 6.000000)">
                                    <path d="M3,6 L36.9,6 C38.5568542,6 39.9,7.34314575 39.9,9 L39.9,36.6 C39.9,38.2568542 38.5568542,39.6 36.9,39.6 L3,39.6 C1.34314575,39.6 2.41027941e-15,38.2568542 0,36.6 L0,9 C2.41183085e-16,7.34314575 1.34314575,6 3,6 Z" id="Rectangle" stroke="#0057A8" stroke-width="2" fill="#FFFFFF" fill-rule="nonzero"></path>
                                    <path d="M12.936,27.3 C11.781,27.3 10.836,28.245 10.836,29.4 C10.836,30.555 11.781,31.5 12.936,31.5 C14.091,31.5 15.036,30.555 15.036,29.4 C15.036,28.245 14.091,27.3 12.936,27.3" id="Path" fill="#E01F27" fill-rule="nonzero"></path>
                                    <path d="M18.4485,27.3 C17.726625,27.3 17.136,27.7725 17.136,28.35 C17.136,28.9275 17.726625,29.4 18.4485,29.4 L28.4235,29.4 C29.145375,29.4 29.736,28.9275 29.736,28.35 C29.736,27.7725 29.145375,27.3 28.4235,27.3 L18.4485,27.3 Z" id="Path" fill="#E01F27" fill-rule="nonzero"></path>
                                    <path d="M3.336,4.2 L37.236,4.2 C38.8928542,4.2 40.236,5.54314575 40.236,7.2 L40.236,18.9 L40.236,18.9 L0.336,18.9 L0.336,7.2 C0.336,5.54314575 1.67914575,4.2 3.336,4.2 Z" id="Rectangle" stroke="#0057A8" stroke-width="2" fill="#FFFFFF" fill-rule="nonzero"></path>
                                    <line x1="9.786" y1="0" x2="9.786" y2="8.4" id="Line-2" stroke="#0057A8" stroke-width="2.5" stroke-linecap="round"></line>
                                    <line x1="30.786" y1="0" x2="30.786" y2="8.4" id="Line-2" stroke="#0057A8" stroke-width="2.5" stroke-linecap="round"></line>
                                </g>
                                <path d="M79.7232548,6.9143768 C79.5341073,6.9143768 79.3522348,6.84162778 79.2067368,6.70340465 L73.8596841,1.35635198 C73.5759629,1.07263082 73.5759629,0.614312019 73.8596841,0.330590857 C74.1434053,0.0468696949 74.6017241,0.0468696949 74.8854452,0.330590857 L80.2324979,5.67764353 C80.516219,5.96136469 80.516219,6.41968349 80.2324979,6.70340465 C80.0942748,6.84162778 79.9124022,6.9143768 79.7232548,6.9143768 Z" id="Path" fill="#000000" fill-rule="nonzero"></path>
                                <path d="M74.3762021,6.9143768 C74.1870547,6.9143768 74.0051821,6.84162778 73.8596841,6.70340465 C73.5759629,6.41968349 73.5759629,5.96136469 73.8596841,5.67764353 L79.2067368,0.330590857 C79.4904579,0.0468696949 79.9487767,0.0468696949 80.2324979,0.330590857 C80.516219,0.614312019 80.516219,1.07263082 80.2324979,1.35635198 L74.8854452,6.70340465 C74.7472221,6.84162778 74.5653495,6.9143768 74.3762021,6.9143768 Z" id="Path" fill="#000000" fill-rule="nonzero"></path>
                            </g>
                        </g>
                    </g>
                </g>
            </g>
        </g>
    </g>
</svg>