<?xml version="1.0" encoding="UTF-8"?>
<svg width="33px" height="30px" viewBox="0 0 33 30" version="1.1" xmlns="http://www.w3.org/2000/svg" xmlns:xlink="http://www.w3.org/1999/xlink">
    <title>events-active</title>
    <g id="events-active" stroke="none" stroke-width="1" fill="none" fill-rule="evenodd">
        <g id="events" transform="translate(2.000000, 1.000000)" fill="#FFFFFF" fill-rule="nonzero">
            <path d="M23.4,3.45454545 L5.67272727,3.45454545 C2.660265,3.45454545 0.218181818,5.89662864 0.218181818,8.90909091 L0.218181818,22.5454545 C0.218181818,25.5579168 2.660265,28 5.67272727,28 L23.4,28 C26.4124623,28 28.8545455,25.5579168 28.8545455,22.5454545 L28.8545455,8.90909091 C28.8545455,5.89662864 26.4124623,3.45454545 23.4,3.45454545 Z M5.67272727,6.18181818 L23.4,6.18181818 C24.9062311,6.18181818 26.1272727,7.40285977 26.1272727,8.90909091 L26.1272727,22.5454545 C26.1272727,24.0516857 24.9062311,25.2727273 23.4,25.2727273 L5.67272727,25.2727273 C4.16649614,25.2727273 2.94545455,24.0516857 2.94545455,22.5454545 L2.94545455,8.90909091 C2.94545455,7.40285977 4.16649614,6.18181818 5.67272727,6.18181818 Z" id="Rectangle"></path>
            <path d="M9.76363636,18 C9.01363636,18 8.4,18.6136364 8.4,19.3636364 C8.4,20.1136364 9.01363636,20.7272727 9.76363636,20.7272727 C10.5136364,20.7272727 11.1272727,20.1136364 11.1272727,19.3636364 C11.1272727,18.6136364 10.5136364,18 9.76363636,18" id="Path"></path>
            <path d="M13.3431818,18.8181818 C12.8744318,18.8181818 12.4909091,19.125 12.4909091,19.5 C12.4909091,19.875 12.8744318,20.1818182 13.3431818,20.1818182 L19.8204545,20.1818182 C20.2892045,20.1818182 20.6727273,19.875 20.6727273,19.5 C20.6727273,19.125 20.2892045,18.8181818 19.8204545,18.8181818 L13.3431818,18.8181818 Z" id="Path"></path>
            <path d="M23.4,3.09090909 L5.67272727,3.09090909 C2.660265,3.09090909 0.218181818,5.53299227 0.218181818,8.54545455 L0.218181818,14.3636364 L28.8545455,14.3636364 L28.8545455,8.54545455 C28.8545455,5.53299227 26.4124623,3.09090909 23.4,3.09090909 Z M23.4,5.81818182 L23.6035396,5.82566237 C25.0147121,5.92977483 26.1272727,7.10768846 26.1272727,8.54545455 L26.1272727,11.6363636 L2.94545455,11.6363636 L2.94545455,8.54545455 C2.94545455,7.03922341 4.16649614,5.81818182 5.67272727,5.81818182 L23.4,5.81818182 Z" id="Rectangle"></path>
            <path d="M9.21818186,0.0227272727 C9.84185572,0.0227272727 10.3548237,0.496715604 10.4165084,1.10411499 L10.4227274,1.22727277 L10.4227274,7.08181837 C10.4227274,7.74707048 9.88343397,8.28636387 9.21818186,8.28636387 C8.59450801,8.28636387 8.08154006,7.81237554 8.0198553,7.20497615 L8.01363636,7.08181837 L8.01363636,1.22727277 C8.01363636,0.562020663 8.55292975,0.0227272727 9.21818186,0.0227272727 Z" id="Line-2"></path>
            <path d="M19.8545455,0.0227272727 C20.4782194,0.0227272727 20.9911873,0.496715604 21.0528721,1.10411499 L21.059091,1.22727277 L21.059091,7.08181837 C21.059091,7.74707048 20.5197976,8.28636387 19.8545455,8.28636387 C19.2308716,8.28636387 18.7179037,7.81237554 18.6562189,7.20497615 L18.65,7.08181837 L18.65,1.22727277 C18.65,0.562020663 19.1892934,0.0227272727 19.8545455,0.0227272727 Z" id="Line-2"></path>
        </g>
    </g>
</svg>