<?xml version="1.0" encoding="UTF-8"?>
<svg width="45px" height="34px" viewBox="0 0 45 34" version="1.1" xmlns="http://www.w3.org/2000/svg" xmlns:xlink="http://www.w3.org/1999/xlink">
    <title>expert</title>
    <g id="Page-1" stroke="none" stroke-width="1" fill="none" fill-rule="evenodd">
        <g id="Course-details" transform="translate(-159.000000, -465.000000)" fill-rule="nonzero">
            <g id="Group-16" transform="translate(0.000000, 124.000000)">
                <g id="Group-10" transform="translate(15.000000, 289.000000)">
                    <g id="Group-6" transform="translate(115.000000, 35.000000)">
                        <g id="expert" transform="translate(29.000000, 17.000000)">
                            <path d="M1.82071852,15.5613135 C0.82963775,15.5613135 0.0269071703,14.7585829 0.0269071703,13.7675021 C0.0269071703,12.7764213 0.82963775,11.9736908 1.82071852,11.9736908 C2.81179929,11.9736908 3.61452987,12.7764213 3.61452987,13.7675021 C3.61452987,14.7585829 2.80731476,15.5613135 1.82071852,15.5613135 Z M1.82071852,12.8705964 C1.3274204,12.8705964 0.923812846,13.274204 0.923812846,13.7675021 C0.923812846,14.2608002 1.3274204,14.6644078 1.82071852,14.6644078 C2.31401664,14.6644078 2.7176242,14.2608002 2.7176242,13.7675021 C2.7176242,13.274204 2.31401664,12.8705964 1.82071852,12.8705964 Z" id="Shape" fill="#000000"></path>
                            <path d="M44.2129653,4.44865215 C44.0963675,4.44865215 43.9842543,4.40380687 43.8945638,4.31860083 L40.5984354,1.02247247 C40.4235388,0.847575863 40.4235388,0.565050576 40.5984354,0.390153969 C40.773332,0.215257362 41.0558573,0.215257362 41.2307539,0.390153969 L44.5268823,3.68628233 C44.7017789,3.86117893 44.7017789,4.14370422 44.5268823,4.31860083 C44.4416762,4.40380687 44.329563,4.44865215 44.2129653,4.44865215 Z" id="Path" fill="#000000"></path>
                            <path d="M40.9168369,4.44865215 C40.8002392,4.44865215 40.688126,4.40380687 40.5984354,4.31860083 C40.4235388,4.14370422 40.4235388,3.86117893 40.5984354,3.68628233 L43.8945638,0.390153969 C44.0694604,0.215257362 44.3519856,0.215257362 44.5268823,0.390153969 C44.7017789,0.565050576 44.7017789,0.847575863 44.5268823,1.02247247 L41.2307539,4.31860083 C41.1455479,4.40380687 41.0334347,4.44865215 40.9168369,4.44865215 Z" id="Path" fill="#000000"></path>
                            <g id="noun_like_70066" transform="translate(9.574468, 3.829787)" fill="#FFFFFF" stroke="#0057A8" stroke-width="2">
                                <path d="M10.7049392,13.7426444 L10.7049392,25.5684802 C10.8283131,25.9717021 12.3539362,27.0549848 12.9918693,27.0549848 L26.8759422,27.0549848 C27.0745441,27.0549848 27.3348328,26.8849696 27.5906079,26.5915805 C28.1984498,25.8919605 28.6257447,24.6597264 28.5204255,23.8969149 C28.4767933,23.5854711 28.6302584,23.2845593 28.9086018,23.1295897 C30.130304,22.4705927 30.1634043,20.5282067 30.0776444,19.4268693 C30.055076,19.1861398 30.1588906,18.949924 30.3454559,18.7889362 C31.437766,17.8801824 31.1007447,16.2131307 30.7877964,15.7361854 C30.6538906,15.5300608 30.6298176,15.269772 30.7185866,15.0455927 C30.8118693,14.8199088 31.0044529,14.6468845 31.2466869,14.5927204 C31.2150912,14.5520973 31.4317477,13.9382371 31.4317477,12.8353951 C31.4317477,11.6121884 29.1959726,10.49731 28.3263374,10.49731 L21.0171884,10.49731 C20.7809726,10.49731 20.5598024,10.3889818 20.4198784,10.2009119 C20.2799544,10.0128419 20.2318085,9.76910334 20.2965046,9.54191489 C21.2594225,6.13709726 21.0201976,3.14603343 19.6495441,1.3300304 C18.9183283,0.358085106 18.0607295,0.0150455927 17.5070517,0.0150455927 C17.1775532,0.0150455927 16.9172644,0.121869301 16.7306991,0.335516717 L16.7306991,4.25790274 C16.7306991,4.34516717 16.7156535,4.4218997 16.690076,4.5031459 C15.1900304,8.84079027 13.6508663,11.917614 10.7049392,13.7426444 Z" id="Shape"></path>
                                <path d="M1.30746201,10.5063374 C0.68156535,10.5063374 0.173024316,11.0148784 0.173024316,11.6392705 L0.173024316,27.4281155 C0.173024316,28.0540122 0.68156535,28.5625532 1.30746201,28.5625532 L9.57050152,28.5625532 C10.1963982,28.5625532 10.7049392,28.0540122 10.7049392,27.4281155 L10.7049392,11.6392705 C10.7049392,11.0148784 10.1963982,10.5063374 9.57050152,10.5063374 L1.30746201,10.5063374 Z" id="Shape"></path>
                            </g>
                            <circle id="Oval" fill="#E01F27" cx="14.3617021" cy="19.1489362" r="1.91489362"></circle>
                        </g>
                    </g>
                </g>
            </g>
        </g>
    </g>
</svg>