<?xml version="1.0" encoding="UTF-8"?>
<svg width="135px" height="74px" viewBox="0 0 135 74" version="1.1" xmlns="http://www.w3.org/2000/svg" xmlns:xlink="http://www.w3.org/1999/xlink">
    <title>externnal-commu</title>
    <g id="Page-1" stroke="none" stroke-width="1" fill="none" fill-rule="evenodd">
        <g id="Glocal-CSR-Test-Q3" transform="translate(-609.000000, -246.000000)">
            <g id="Group-6" transform="translate(435.000000, 193.000000)">
                <g id="Group-8" transform="translate(121.000000, 54.000000)">
                    <g id="externnal-commu" transform="translate(54.000000, 0.000000)">
                        <path d="M30.2628182,46.3228383 C28.4908346,46.3228383 27.0556082,44.8876118 27.0556082,43.1156283 C27.0556082,41.3436448 28.4908346,39.9084183 30.2628182,39.9084183 C32.0348017,39.9084183 33.4700282,41.3436448 33.4700282,43.1156283 C33.4700282,44.8876118 32.0267837,46.3228383 30.2628182,46.3228383 Z M30.2628182,41.5120233 C29.3808354,41.5120233 28.6592132,42.2336455 28.6592132,43.1156283 C28.6592132,43.997611 29.3808354,44.7192333 30.2628182,44.7192333 C31.1448009,44.7192333 31.8664232,43.997611 31.8664232,43.1156283 C31.8664232,42.2336455 31.1448009,41.5120233 30.2628182,41.5120233 Z" id="Shape" fill="#000000" fill-rule="nonzero"></path>
                        <ellipse id="Oval" fill="#E6ECF2" cx="74" cy="67" rx="60" ry="6"></ellipse>
                        <g id="network" transform="translate(38.000000, 19.000000)">
                            <line x1="33.3967742" y1="28.1322581" x2="33.3967742" y2="36.0290323" id="Line-4" stroke="#2E3A44" stroke-width="2" stroke-linecap="round"></line>
                            <line x1="32.9342699" y1="36.2546298" x2="24.7560526" y2="38.5453702" id="Line-4" stroke="#2E3A44" stroke-width="2" stroke-linecap="round"></line>
                            <line x1="41.7084635" y1="36.2546298" x2="33.5302462" y2="38.5453702" id="Line-4" stroke="#2E3A44" stroke-width="2" stroke-linecap="round" transform="translate(37.619355, 37.400000) scale(1, -1) translate(-37.619355, -37.400000) "></line>
                            <path d="M34.3838694,16.533871 C31.8612532,16.533871 29.6735095,17.9676265 28.5910699,20.064698 C30.3359952,20.932196 32.3029658,21.42 34.383871,21.42 C36.4647746,21.42 38.4317452,20.932196 40.1766697,20.064698 C39.0942302,17.9676249 36.9064856,16.533871 34.3838694,16.533871 Z" id="user-/-user_circle" fill="#E01F27" fill-rule="nonzero"></path>
                            <circle id="Oval" stroke="#0057A8" stroke-width="2" fill-rule="nonzero" cx="33.8903226" cy="10.8580645" r="10.8580645"></circle>
                            <circle id="Oval" fill="#E01F27" fill-rule="nonzero" cx="34.383871" cy="10.3645161" r="3.45483871"></circle>
                            <g id="Group-11" transform="translate(0.000000, 24.129032)" fill-rule="nonzero">
                                <path d="M9.28768201,13.5277126 C7.2237233,13.5277126 5.43375114,14.7007853 4.54811881,16.4165711 C5.97578494,17.1263422 7.58512449,17.5254545 9.28768328,17.5254545 C10.9902408,17.5254545 12.5995804,17.1263422 14.0272458,16.4165711 C13.1416135,14.700784 11.3516407,13.5277126 9.28768201,13.5277126 Z" id="user-/-user_circle" fill="#E01F27"></path>
                                <circle id="Oval" stroke="#0057A8" stroke-width="2" cx="8.88387097" cy="8.88387097" r="8.88387097"></circle>
                                <circle id="Oval" fill="#E01F27" cx="9.28768328" cy="8.48005865" r="2.82668622"></circle>
                            </g>
                            <g id="Group-11" transform="translate(50.232258, 24.129032)" fill-rule="nonzero">
                                <path d="M9.28768201,13.5277126 C7.2237233,13.5277126 5.43375114,14.7007853 4.54811881,16.4165711 C5.97578494,17.1263422 7.58512449,17.5254545 9.28768328,17.5254545 C10.9902408,17.5254545 12.5995804,17.1263422 14.0272458,16.4165711 C13.1416135,14.700784 11.3516407,13.5277126 9.28768201,13.5277126 Z" id="user-/-user_circle" fill="#E01F27"></path>
                                <circle id="Oval" stroke="#0057A8" stroke-width="2" cx="8.88387097" cy="8.88387097" r="8.88387097"></circle>
                                <circle id="Oval" fill="#E01F27" cx="9.28768328" cy="8.48005865" r="2.82668622"></circle>
                            </g>
                        </g>
                        <path d="M18.8181818,4.09090909 C21.2401301,4.09090909 23.2777943,5.85316186 23.6781299,8.199189 C25.5426165,8.38009391 27,9.95167023 27,11.8636364 C27,13.8970485 25.351594,15.5454545 23.3181818,15.5454545 L20.8636364,15.5454545 C20.6377016,15.5454545 20.4545455,15.3622984 20.4545455,15.1363636 C20.4545455,14.9104289 20.6377016,14.7272727 20.8636364,14.7272727 L23.3181818,14.7272727 C24.8997244,14.7272727 26.1818182,13.445179 26.1818182,11.8636364 C26.1818182,10.2820938 24.8997244,9 23.3181818,9 C23.1077164,9 22.9315938,8.84031014 22.9110455,8.63084986 C22.7048065,6.52856073 20.9370048,4.90909091 18.8181818,4.90909091 C18.436183,4.90909091 18.0615588,4.96134123 17.701533,5.06324086 C17.4964594,5.1212835 17.2811802,5.01215318 17.2067727,4.81243418 C16.3193645,2.43052077 14.0388517,0.818181818 11.4545455,0.818181818 C8.63689623,0.818181818 6.20108959,2.73346855 5.51047827,5.42404882 C5.4655875,5.59894091 5.31134673,5.72371855 5.130936,5.73109118 C2.72567741,5.82938509 0.818181818,7.81167559 0.818181818,10.2272727 C0.818181818,12.712554 2.83290055,14.7272727 5.31818182,14.7272727 L6.13636364,14.7272727 C6.36229841,14.7272727 6.54545455,14.9104289 6.54545455,15.1363636 C6.54545455,15.3622984 6.36229841,15.5454545 6.13636364,15.5454545 L5.31818182,15.5454545 C2.381031,15.5454545 0,13.1644235 0,10.2272727 C0,7.47336191 2.09752936,5.19616677 4.79806486,4.93420541 C5.67576041,2.03540523 8.36203336,0 11.4545455,0 C14.259411,0 16.7484506,1.67588468 17.8374604,4.18896532 C18.157804,4.12398368 18.4859018,4.09090909 18.8181818,4.09090909 Z" id="Path" stroke="#C1D0DD" stroke-width="0.5" fill="#C3D0DC"></path>
                        <g id="Group-14" transform="translate(109.632343, 5.698019)" fill="#000000" fill-rule="nonzero">
                            <path d="M6.02086967,6.73450762 C5.8334496,6.73450762 5.653238,6.66242297 5.50906871,6.52546216 L0.210847576,1.22724102 C-0.0702825253,0.946110917 -0.0702825253,0.491977677 0.210847576,0.210847576 C0.491977677,-0.0702825253 0.946110917,-0.0702825253 1.22724102,0.210847576 L6.52546216,5.50906871 C6.80659226,5.79019881 6.80659226,6.24433205 6.52546216,6.52546216 C6.38850134,6.66242297 6.20828973,6.73450762 6.02086967,6.73450762 Z" id="Path"></path>
                            <path d="M0.722648529,6.73450762 C0.535228462,6.73450762 0.355016859,6.66242297 0.210847576,6.52546216 C-0.0702825253,6.24433205 -0.0702825253,5.79019881 0.210847576,5.50906871 L5.50906871,0.210847576 C5.79019881,-0.0702825253 6.24433205,-0.0702825253 6.52546216,0.210847576 C6.80659226,0.491977677 6.80659226,0.946110917 6.52546216,1.22724102 L1.22724102,6.52546216 C1.0902802,6.66242297 0.910068597,6.73450762 0.722648529,6.73450762 Z" id="Path"></path>
                        </g>
                    </g>
                </g>
            </g>
        </g>
    </g>
</svg>