<?xml version="1.0" encoding="UTF-8"?>
<svg width="48px" height="46px" viewBox="0 0 48 46" version="1.1" xmlns="http://www.w3.org/2000/svg" xmlns:xlink="http://www.w3.org/1999/xlink">
    <title>fellowship</title>
    <g id="fellowship" stroke="none" stroke-width="1" fill="none" fill-rule="evenodd">
        <g transform="translate(15.000000, 12.000000)" fill="#FFFFFF" fill-rule="nonzero" id="user-/-user_pin">
            <path d="M2.11111111,-8.08242362e-13 L16.8888889,-8.08242362e-13 C18.0531673,-8.08242362e-13 19,0.946833286 19,2.11111111 L19,15.8333333 C19,16.9976118 18.0531673,17.9444444 16.8888889,17.9444444 L12.6666667,17.9444444 L9.5,21.1111111 L6.33333333,17.9444444 L2.11111111,17.9444444 C0.946833286,17.9444444 0,16.9976118 0,15.8333333 L0,2.11111111 C0,0.946833286 0.946833286,-8.08242362e-13 2.11111111,-8.08242362e-13 L2.11111111,-8.08242362e-13 Z" stroke="#0057A8" stroke-width="2"></path>
            <path d="M9.5,8.44444444 C8.28611101,8.44444444 7.38888889,7.54933328 7.38888889,6.33333333 C7.38888889,5.11733339 8.28611101,4.22222222 9.5,4.22222222 C10.7149445,4.22222222 11.6111111,5.11733339 11.6111111,6.33333333 C11.6111111,7.54933328 10.7149445,8.44444444 9.5,8.44444444 Z" stroke="#E01F27" stroke-width="1.5"></path>
            <path d="M9.5,9.5 C11.8317218,9.5 13.7222222,11.201556 13.7222222,13.3000004 L13.7222222,13.7074445 L5.27777778,13.7074445 L5.27777778,13.3000004 C5.27777778,11.201556 7.16827766,9.5 9.5,9.5 Z" stroke="#E01F27" stroke-width="1.5"></path>
        </g>
    </g>
</svg>