<?xml version="1.0" encoding="UTF-8"?>
<svg width="135px" height="74px" viewBox="0 0 135 74" version="1.1" xmlns="http://www.w3.org/2000/svg" xmlns:xlink="http://www.w3.org/1999/xlink">
    <title>Financial-mgt</title>
    <g id="Page-1" stroke="none" stroke-width="1" fill="none" fill-rule="evenodd">
        <g id="Glocal-CSR-Test-Q6" transform="translate(-609.000000, -246.000000)">
            <g id="Group-6" transform="translate(435.000000, 193.000000)">
                <g id="Group-8" transform="translate(132.000000, 54.000000)">
                    <g id="Financial-mgt" transform="translate(43.000000, 0.000000)">
                        <path d="M30.2628182,46.3228383 C28.4908346,46.3228383 27.0556082,44.8876118 27.0556082,43.1156283 C27.0556082,41.3436448 28.4908346,39.9084183 30.2628182,39.9084183 C32.0348017,39.9084183 33.4700282,41.3436448 33.4700282,43.1156283 C33.4700282,44.8876118 32.0267837,46.3228383 30.2628182,46.3228383 Z M30.2628182,41.5120233 C29.3808354,41.5120233 28.6592132,42.2336455 28.6592132,43.1156283 C28.6592132,43.997611 29.3808354,44.7192333 30.2628182,44.7192333 C31.1448009,44.7192333 31.8664232,43.997611 31.8664232,43.1156283 C31.8664232,42.2336455 31.1448009,41.5120233 30.2628182,41.5120233 Z" id="Shape" fill="#000000" fill-rule="nonzero"></path>
                        <ellipse id="Oval" fill="#E6ECF2" cx="74" cy="67" rx="60" ry="6"></ellipse>
                        <path d="M18.8181818,4.09090909 C21.2401301,4.09090909 23.2777943,5.85316186 23.6781299,8.199189 C25.5426165,8.38009391 27,9.95167023 27,11.8636364 C27,13.8970485 25.351594,15.5454545 23.3181818,15.5454545 L20.8636364,15.5454545 C20.6377016,15.5454545 20.4545455,15.3622984 20.4545455,15.1363636 C20.4545455,14.9104289 20.6377016,14.7272727 20.8636364,14.7272727 L23.3181818,14.7272727 C24.8997244,14.7272727 26.1818182,13.445179 26.1818182,11.8636364 C26.1818182,10.2820938 24.8997244,9 23.3181818,9 C23.1077164,9 22.9315938,8.84031014 22.9110455,8.63084986 C22.7048065,6.52856073 20.9370048,4.90909091 18.8181818,4.90909091 C18.436183,4.90909091 18.0615588,4.96134123 17.701533,5.06324086 C17.4964594,5.1212835 17.2811802,5.01215318 17.2067727,4.81243418 C16.3193645,2.43052077 14.0388517,0.818181818 11.4545455,0.818181818 C8.63689623,0.818181818 6.20108959,2.73346855 5.51047827,5.42404882 C5.4655875,5.59894091 5.31134673,5.72371855 5.130936,5.73109118 C2.72567741,5.82938509 0.818181818,7.81167559 0.818181818,10.2272727 C0.818181818,12.712554 2.83290055,14.7272727 5.31818182,14.7272727 L6.13636364,14.7272727 C6.36229841,14.7272727 6.54545455,14.9104289 6.54545455,15.1363636 C6.54545455,15.3622984 6.36229841,15.5454545 6.13636364,15.5454545 L5.31818182,15.5454545 C2.381031,15.5454545 0,13.1644235 0,10.2272727 C0,7.47336191 2.09752936,5.19616677 4.79806486,4.93420541 C5.67576041,2.03540523 8.36203336,0 11.4545455,0 C14.259411,0 16.7484506,1.67588468 17.8374604,4.18896532 C18.157804,4.12398368 18.4859018,4.09090909 18.8181818,4.09090909 Z" id="Path" stroke="#C1D0DD" stroke-width="0.5" fill="#C3D0DC"></path>
                        <g id="Group-14" transform="translate(109.632343, 5.698019)" fill="#000000" fill-rule="nonzero">
                            <path d="M6.02086967,6.73450762 C5.8334496,6.73450762 5.653238,6.66242297 5.50906871,6.52546216 L0.210847576,1.22724102 C-0.0702825253,0.946110917 -0.0702825253,0.491977677 0.210847576,0.210847576 C0.491977677,-0.0702825253 0.946110917,-0.0702825253 1.22724102,0.210847576 L6.52546216,5.50906871 C6.80659226,5.79019881 6.80659226,6.24433205 6.52546216,6.52546216 C6.38850134,6.66242297 6.20828973,6.73450762 6.02086967,6.73450762 Z" id="Path"></path>
                            <path d="M0.722648529,6.73450762 C0.535228462,6.73450762 0.355016859,6.66242297 0.210847576,6.52546216 C-0.0702825253,6.24433205 -0.0702825253,5.79019881 0.210847576,5.50906871 L5.50906871,0.210847576 C5.79019881,-0.0702825253 6.24433205,-0.0702825253 6.52546216,0.210847576 C6.80659226,0.491977677 6.80659226,0.946110917 6.52546216,1.22724102 L1.22724102,6.52546216 C1.0902802,6.66242297 0.910068597,6.73450762 0.722648529,6.73450762 Z" id="Path"></path>
                        </g>
                        <g id="Fundings" transform="translate(49.000000, 15.000000)" fill-rule="nonzero">
                            <path d="M5,-1.91846539e-12 L40,-1.91846539e-12 C42.7575016,-1.91846539e-12 45,2.24249989 45,5 L45,37.5 C45,40.2575016 42.7575016,42.5 40,42.5 L30,42.5 L22.5,50 L15,42.5 L5,42.5 C2.24249989,42.5 0,40.2575016 0,37.5 L0,5 C0,2.24249989 2.24249989,-1.91846539e-12 5,-1.91846539e-12 L5,-1.91846539e-12 Z" id="user-/-user_pin" stroke="#0057A8" stroke-width="2" fill="#FFFFFF"></path>
                            <path d="M27.0402447,35.61305 L27.0402447,35.4742753 L18.228053,24.0600586 C18.3205695,24.0600586 18.3668277,24.0369295 18.3668277,23.9906713 C19.1647821,23.9906713 20.5120528,23.4471371 22.40864,22.3600689 C24.5480829,20.7063374 25.6178043,19.0063477 25.6178043,17.2600997 L25.6178043,17.2600997 L29.5208419,17.2600997 C29.6133583,17.2600997 29.6596166,17.2138415 29.6596166,17.121325 L29.6596166,17.121325 L29.6596166,15.56011 C29.6596166,15.4791581 29.6133583,15.4328999 29.5208419,15.4213353 L29.5208419,15.4213353 L25.4616828,15.4213353 L25.3922954,14.9182771 C24.9065841,13.4495785 24.2242753,12.4781558 23.345369,12.004009 L23.345369,12.004009 L23.345369,11.8652344 L29.5208419,11.8652344 C29.6133583,11.8652344 29.6596166,11.8189762 29.6596166,11.7264597 L29.6596166,11.7264597 L29.6596166,10.1652447 C29.6596166,10.0842928 29.6133583,10.0380345 29.5208419,10.02647 L29.5208419,10.02647 L13.110737,10.02647 C13.0297852,10.02647 12.9835269,10.0727282 12.9719624,10.1652447 L12.9719624,10.1652447 L12.9719624,11.7264597 C12.9719624,11.8189762 13.0182206,11.8652344 13.110737,11.8652344 L13.110737,11.8652344 L16.0943925,11.8652344 C17.123638,11.8652344 18.2627467,12.1948242 19.5117188,12.8540039 C20.4137541,13.5131836 21.0035465,14.3689607 21.2810958,15.4213353 L21.2810958,15.4213353 L13.110737,15.4213353 C13.0297852,15.4213353 12.9835269,15.4675935 12.9719624,15.56011 L12.9719624,15.56011 L12.9719624,17.121325 C12.9719624,17.2138415 13.0182206,17.2600997 13.110737,17.2600997 L13.110737,17.2600997 L21.3504831,17.2600997 L21.3504831,17.4682617 C21.3504831,17.6648592 21.327354,17.9250617 21.2810958,18.2488692 C20.5293997,20.9434108 18.2800935,22.2906815 14.5331774,22.2906815 L14.5331774,22.2906815 L13.4750206,22.2906815 L13.4750206,22.3600689 C20.2518503,31.1953896 23.657612,35.61305 23.6923057,35.61305 L23.6923057,35.61305 L27.0402447,35.61305 Z" id="`" fill="#E01F27"></path>
                        </g>
                    </g>
                </g>
            </g>
        </g>
    </g>
</svg>