<?xml version="1.0" encoding="UTF-8"?>
<svg width="48px" height="46px" viewBox="0 0 48 46" version="1.1" xmlns="http://www.w3.org/2000/svg" xmlns:xlink="http://www.w3.org/1999/xlink">
    <title>flag</title>
    <defs>
        <rect id="path-1" x="0" y="0" width="21" height="15"></rect>
    </defs>
    <g id="flag" stroke="none" stroke-width="1" fill="none" fill-rule="evenodd">
        <g transform="translate(14.000000, 16.000000)">
            <mask id="mask-2" fill="white">
                <use xlink:href="#path-1"></use>
            </mask>
            <use id="Mask" fill="#D8D8D8" xlink:href="#path-1"></use>
            <g id="Group-107" mask="url(#mask-2)">
                <g transform="translate(-4.200000, -1.500000)">
                    <polygon id="Fill-1" fill="#FEFEFE" points="0 16.3062843 27.9967205 16.3062843 27.9967205 -2.42326333e-05 0 -2.42326333e-05"></polygon>
                    <polygon id="Fill-2" fill="#EF8117" points="0 5.31470113 27.9967205 5.31470113 27.9967205 -2.42326333e-05 0 -2.42326333e-05"></polygon>
                    <polygon id="Fill-3" fill="#427E31" points="0 16.3062843 27.9967205 16.3062843 27.9967205 10.991462 0 10.991462"></polygon>
                    <g id="Group-106" stroke-width="1" fill="none" transform="translate(11.444265, 5.304669)">
                        <path d="M5.31431632,2.84865994 C5.31431632,4.41837722 4.12639709,5.69153554 2.66078481,5.69153554 C1.19544394,5.69153554 0.00750210016,4.41837722 0.00750210016,2.84865994 C0.00750210016,1.27826414 1.19544394,0.00539660743 2.66078481,0.00539660743 C4.12639709,0.00539660743 5.31431632,1.27826414 5.31431632,2.84865994" id="Fill-4" fill="#134886"></path>
                        <path d="M5.02533053,2.84865994 C5.02533053,4.24790065 3.96664556,5.38152746 2.66077803,5.38152746 C1.35524976,5.38152746 0.296496931,4.24790065 0.296496931,2.84865994 C0.296496931,1.44922536 1.35524976,0.315016963 2.66077803,0.315016963 C3.96664556,0.315016963 5.02533053,1.44922536 5.02533053,2.84865994" id="Fill-6" fill="#FEFEFE"></path>
                        <path d="M3.04182456,2.84865994 C3.04182456,3.07404766 2.87122359,3.25654362 2.66077124,3.25654362 C2.45068078,3.25654362 2.27998934,3.07404766 2.27998934,2.84865994 C2.27998934,2.62336914 2.45068078,2.44038853 2.66077124,2.44038853 C2.87122359,2.44038853 3.04182456,2.62336914 3.04182456,2.84865994" id="Fill-8" fill="#134886"></path>
                        <path d="M2.75610695,1.68672456 C2.75610695,2.27371163 2.66077577,2.5251252 2.66077577,2.5251252 C2.66077577,2.5251252 2.56571599,2.27371163 2.56571599,1.68672456 C2.56571599,1.09973748 2.66077577,0.399559774 2.66077577,0.399559774 C2.66077577,0.399559774 2.75610695,1.09973748 2.75610695,1.68672456" id="Fill-10" fill="#134886"></path>
                        <path d="M2.52622649,4.02432068 C2.52622649,3.43772132 2.62146721,3.18650162 2.62146721,3.18650162 C2.62146721,3.18650162 2.71670792,3.43772132 2.71670792,4.02432068 C2.71670792,4.61130775 2.62146721,5.31167932 2.62146721,5.31167932 C2.62146721,5.31167932 2.52622649,4.61130775 2.52622649,4.02432068" id="Fill-12" fill="#134886"></path>
                        <path d="M3.7509958,2.96707754 C3.2031412,2.96196446 2.96946107,2.85822456 2.96946107,2.85822456 C2.96946107,2.85822456 3.20483748,2.75797415 3.75233021,2.76269952 C4.30025267,2.76744911 4.95298288,2.87555089 4.95298288,2.87555089 C4.95298288,2.87555089 4.298579,2.97143942 3.7509958,2.96707754" id="Fill-14" fill="#134886"></path>
                        <path d="M1.5707412,2.74425121 C2.11841486,2.74907351 2.35218546,2.8531042 2.35218546,2.8531042 C2.35218546,2.8531042 2.11698998,2.95277302 1.56933893,2.94843538 C1.0215748,2.94332229 0.36875412,2.83560824 0.36875412,2.83560824 C0.36875412,2.83560824 1.023158,2.73962278 1.5707412,2.74425121" id="Fill-16" fill="#134886"></path>
                        <path d="M3.04138352,1.75516236 C2.89640775,2.32160016 2.74231729,2.53647092 2.74231729,2.53647092 C2.74231729,2.53647092 2.71255315,2.26717367 2.85734798,1.70148708 C3.00241422,1.13534006 3.26712504,0.487214055 3.26712504,0.487214055 C3.26712504,0.487214055 3.18608788,1.18911228 3.04138352,1.75516236" id="Fill-18" fill="#134886"></path>
                        <path d="M2.25800097,3.94689015 C2.4027958,3.38120355 2.55688627,3.16577544 2.55688627,3.16577544 C2.55688627,3.16577544 2.58655994,3.43487884 2.44176511,4.00056543 C2.29687981,4.5669063 2.0321916,5.21503231 2.0321916,5.21503231 C2.0321916,5.21503231 2.11329661,4.51257674 2.25800097,3.94689015" id="Fill-20" fill="#134886"></path>
                        <path d="M3.68482262,3.27178352 C3.15773053,3.11209047 2.95788562,2.94587884 2.95788562,2.94587884 C2.95788562,2.94587884 3.2095916,2.91568498 3.73641228,3.07554766 C4.2636853,3.23543457 4.86665784,3.52368174 4.86665784,3.52368174 C4.86665784,3.52368174 4.21182423,3.43167044 3.68482262,3.27178352" id="Fill-22" fill="#134886"></path>
                        <path d="M1.63700258,2.43926171 C2.16425299,2.5990517 2.36375864,2.76574798 2.36375864,2.76574798 C2.36375864,2.76574798 2.1122336,2.79536026 1.58532246,2.63566721 C1.0581399,2.47626494 0.455167367,2.18746042 0.455167367,2.18746042 C0.455167367,2.18746042 1.1099105,2.27947173 1.63700258,2.43926171" id="Fill-24" fill="#134886"></path>
                        <path d="M3.27356187,1.89241842 C2.99686397,2.39902585 2.79629532,2.56402585 2.79629532,2.56402585 C2.79629532,2.56402585 2.83243748,2.2958433 3.10913538,1.78933279 C3.38576543,1.28291922 3.79798514,0.7299063 3.79798514,0.7299063 C3.79798514,0.7299063 3.55010145,1.38581099 3.27356187,1.89241842" id="Fill-26" fill="#134886"></path>
                        <path d="M3.52871244,3.53578837 C3.05825363,3.23542488 2.90540711,3.0187609 2.90540711,3.0187609 C2.90540711,3.0187609 3.15571082,3.05973829 3.62616963,3.35990792 C4.09660582,3.66027141 4.60929079,4.10668498 4.60929079,4.10668498 C4.60929079,4.10668498 3.99917124,3.83615186 3.52871244,3.53578837" id="Fill-28" fill="#134886"></path>
                        <path d="M1.7518546,2.16361551 C2.22231341,2.463979 2.37515994,2.68006139 2.37515994,2.68006139 C2.37515994,2.68006139 2.12485622,2.63898708 1.65448788,2.3393021 C1.18402908,2.03847819 0.671344103,1.5926462 0.671344103,1.5926462 C0.671344103,1.5926462 1.28148627,1.86308239 1.7518546,2.16361551" id="Fill-30" fill="#134886"></path>
                        <path d="M3.48727787,2.10587399 C3.09536834,2.51564782 2.86098708,2.61853958 2.86098708,2.61853958 C2.86098708,2.61853958 2.96231179,2.36969467 3.35404039,1.95999354 C3.7457916,1.54966236 4.27984976,1.13344265 4.27984976,1.13344265 C4.27984976,1.13344265 3.87900646,1.69561551 3.48727787,2.10587399" id="Fill-32" fill="#134886"></path>
                        <path d="M1.79337738,3.59334087 C2.18528691,3.18366397 2.41941939,3.08086914 2.41941939,3.08086914 C2.41941939,3.08086914 2.31825299,3.3291567 1.92661486,3.73929402 C1.53468271,4.1495525 1.00071502,4.56586914 1.00071502,4.56586914 C1.00071502,4.56586914 1.40173926,4.00350242 1.79337738,3.59334087" id="Fill-34" fill="#134886"></path>
                        <path d="M2.00232116,3.79666721 C2.27910953,3.29061712 2.47983651,3.12535057 2.47983651,3.12535057 C2.47983651,3.12535057 2.44335509,3.39360582 2.16656672,3.89975283 C1.88968788,4.40626333 1.47692536,4.95850081 1.47692536,4.95850081 C1.47692536,4.95850081 1.72526139,4.30317771 2.00232116,3.79666721" id="Fill-36" fill="#134886"></path>
                        <path d="M1.64618966,3.34079079 C2.11902326,3.04498304 2.36957577,3.00645315 2.36957577,3.00645315 C2.36957577,3.00645315 2.21514604,3.22096042 1.74222197,3.51686511 C1.26947884,3.81332714 0.657120194,4.07809289 0.657120194,4.07809289 C0.657120194,4.07809289 1.17344653,3.63688934 1.64618966,3.34079079" id="Fill-38" fill="#134886"></path>
                        <path d="M3.32789725,3.76258885 C2.94817835,3.34004443 2.85427205,3.08785541 2.85427205,3.08785541 C2.85427205,3.08785541 3.0854643,3.19823506 3.46500226,3.62097334 C3.84481163,4.04409935 4.22914443,4.61981826 4.22914443,4.61981826 C4.22914443,4.61981826 3.70752569,4.18581179 3.32789725,3.76258885" id="Fill-40" fill="#134886"></path>
                        <path d="M1.95293441,1.93624556 C2.33256284,2.35927464 2.42640129,2.61107593 2.42640129,2.61107593 C2.42640129,2.61107593 2.1952769,2.50108401 1.81546753,2.077958 C1.4358391,1.65473506 1.05168724,1.07911309 1.05168724,1.07911309 C1.05168724,1.07911309 1.57330598,1.5136042 1.95293441,1.93624556" id="Fill-42" fill="#134886"></path>
                        <path d="M3.62695444,2.35927464 C3.14704168,2.64173021 2.89551664,2.67364459 2.89551664,2.67364459 C2.89551664,2.67364459 3.05541971,2.46301454 3.535242,2.18036511 C4.01542617,1.89771567 4.63377835,1.65017932 4.63377835,1.65017932 C4.63377835,1.65017932 4.10695767,2.07672213 3.62695444,2.35927464" id="Fill-44" fill="#134886"></path>
                        <path d="M3.09960452,3.93950646 C2.83242843,3.42655008 2.80142036,3.15790711 2.80142036,3.15790711 C2.80142036,3.15790711 2.99898094,3.32743861 3.26579515,3.83993457 C3.53260937,4.35250323 3.7678727,5.01303635 3.7678727,5.01303635 C3.7678727,5.01303635 3.3662378,4.45190549 3.09960452,3.93950646" id="Fill-46" fill="#134886"></path>
                        <path d="M2.19112213,1.75582391 C2.45121906,2.27210016 2.47869887,2.54178514 2.47869887,2.54178514 C2.47869887,2.54178514 2.28335477,2.36929725 2.02361971,1.85265751 C1.76361325,1.33601777 1.53698966,0.671025848 1.53698966,0.671025848 C1.53698966,0.671025848 1.9310252,1.23945073 2.19112213,1.75582391" id="Fill-48" fill="#134886"></path>
                        <path d="M3.70832407,2.66019548 C3.17548724,2.7966979 2.92538708,2.75579321 2.92538708,2.75579321 C2.92538708,2.75579321 3.13106721,2.59808724 3.66388142,2.46141519 C4.19653732,2.32491276 4.85428853,2.26110824 4.85428853,2.26110824 C4.85428853,2.26110824 4.2408895,2.52303877 3.70832407,2.66019548" id="Fill-50" fill="#134886"></path>
                        <path d="M1.57657189,3.03267528 C2.10576737,2.88073667 2.35713409,2.91502585 2.35713409,2.91502585 C2.35713409,2.91502585 2.1550727,3.07801454 1.62596769,3.2294685 C1.0967496,3.38121325 0.440852989,3.4637496 0.440852989,3.4637496 C0.440852989,3.4637496 1.0476252,3.18393538 1.57657189,3.03267528" id="Fill-52" fill="#134886"></path>
                        <path d="M2.81273796,4.00520113 C2.66432439,3.44045961 2.69250533,3.17116236 2.69250533,3.17116236 C2.69250533,3.17116236 2.84772666,3.38508805 2.99614023,3.94982956 C3.14430501,4.51512843 3.22982036,5.21644507 3.22982036,5.21644507 C3.22982036,5.21644507 2.96115153,4.57020921 2.81273796,4.00520113" id="Fill-54" fill="#134886"></path>
                        <path d="M2.45890436,1.66400646 C2.59177997,2.23298869 2.5564294,2.50136511 2.5564294,2.50136511 C2.5564294,2.50136511 2.40713376,2.28249596 2.27416769,1.71331987 C2.14111115,1.14424071 2.07477512,0.439870759 2.07477512,0.439870759 C2.07477512,0.439870759 2.32584782,1.09444265 2.45890436,1.66400646" id="Fill-56" fill="#134886"></path>
                        <path d="M5.11562036,3.24414378 C5.10342973,3.33029079 5.02815994,3.39009693 4.9474168,3.37686591 C4.86683199,3.36407108 4.81117124,3.28352181 4.82327141,3.19672052 C4.8355525,3.11076737 4.91082229,3.05076737 4.99140711,3.06373183 C5.07224071,3.07705977 5.12781099,3.15743942 5.11562036,3.24414378" id="Fill-58" fill="#134886"></path>
                        <path d="M0.469038449,2.49302666 C0.456757351,2.57992488 0.381578029,2.63897981 0.300563489,2.62611228 C0.220069144,2.61295396 0.164589338,2.53240468 0.176599031,2.44579725 C0.188721809,2.35926252 0.264082068,2.29981987 0.345006139,2.31307512 C0.425568336,2.32577302 0.481229079,2.40678271 0.469038449,2.49302666" id="Fill-60" fill="#134886"></path>
                        <path d="M3.01867819,0.199257674 C3.09933086,0.212028271 3.1549916,0.293062197 3.14264265,0.379209208 C3.1304294,0.465622779 3.05543102,0.525065428 2.97459742,0.512391761 C2.89376381,0.499427302 2.83835186,0.418781099 2.85054249,0.331785945 C2.86266527,0.245542003 2.93793506,0.185808562 3.01867819,0.199257674" id="Fill-62" fill="#134886"></path>
                        <path d="M2.31763554,5.17802181 C2.39846914,5.19079241 2.45394895,5.27107512 2.44175832,5.35797334 C2.42965816,5.44438691 2.35420743,5.50382956 2.2737357,5.49067124 C2.19287948,5.47790065 2.13758061,5.39686672 2.14959031,5.31074394 C2.16171309,5.22440307 2.2371412,5.16440307 2.31763554,5.17802181" id="Fill-64" fill="#134886"></path>
                        <path d="M4.12877189,4.99798061 C4.06329532,5.05042003 3.97054249,5.03488691 3.92230016,4.96504847 C3.87380905,4.89414378 3.88794475,4.79512924 3.95348918,4.74353796 C4.01921454,4.69109855 4.11153764,4.7064378 4.16005137,4.77647011 C4.20863296,4.84718094 4.19467819,4.94619548 4.12877189,4.99798061" id="Fill-66" fill="#134886"></path>
                        <path d="M1.33891567,0.947059774 C1.27328078,0.998844911 1.18050533,0.983966074 1.13217254,0.913352181 C1.08368142,0.842738288 1.09772666,0.74355412 1.16336155,0.691962843 C1.22892859,0.640274637 1.32150048,0.654741519 1.36992375,0.725646204 C1.41850533,0.795508885 1.40464103,0.895177706 1.33891567,0.947059774" id="Fill-68" fill="#134886"></path>
                        <path d="M4.65585719,1.25668982 C4.70409952,1.3265525 4.69014475,1.4257609 4.62448724,1.47742488 C4.55894281,1.5298643 4.46625784,1.51454927 4.41794766,1.44449273 C4.36934346,1.37416963 4.38329822,1.2748643 4.4490462,1.22317609 C4.5146811,1.17073667 4.60727561,1.18607593 4.65585719,1.25668982" id="Fill-70" fill="#134886"></path>
                        <path d="M0.874556704,4.24582149 C0.922889499,4.31587803 0.908934733,4.4150622 0.843277221,4.46723506 C0.777551858,4.51899596 0.685138288,4.50377787 0.636624556,4.43362439 C0.588042973,4.36310743 0.602178675,4.26428675 0.667723102,4.21221082 C0.733471082,4.16052262 0.825975121,4.17540145 0.874556704,4.24582149" id="Fill-72" fill="#134886"></path>
                        <path d="M5.12154152,2.49160662 C5.13239774,2.57840792 5.07569661,2.65781826 4.99474992,2.66966801 C4.91366753,2.68100889 4.83952859,2.62025767 4.82876284,2.53335945 C4.81788401,2.44665509 4.87469822,2.36741438 4.95562229,2.35549192 C5.03654637,2.34402989 5.11093409,2.40490226 5.12154152,2.49160662" id="Fill-74" fill="#134886"></path>
                        <path d="M0.463560582,3.15630048 C0.474439418,3.24329564 0.41771567,3.32251212 0.336520194,3.3345315 C0.255686591,3.34570275 0.181366721,3.28495153 0.170600969,3.19822294 C0.15974475,3.11142165 0.216807754,3.0323021 0.297641357,3.02028271 C0.37847496,3.00891761 0.452862682,3.06988691 0.463560582,3.15630048" id="Fill-76" fill="#134886"></path>
                        <path d="M2.31648659,0.192724556 C2.39732019,0.181092892 2.47161745,0.242134895 2.48240582,0.328548465 C2.49310372,0.41537399 2.43619903,0.495147819 2.3554559,0.506706785 C2.27444136,0.517781099 2.20021195,0.456908724 2.18926527,0.370204362 C2.17856737,0.283596931 2.23547205,0.20435622 2.31648659,0.192724556" id="Fill-78" fill="#134886"></path>
                        <path d="M2.93686753,5.18341842 C3.01770113,5.17205331 3.09208885,5.23292569 3.10278675,5.31943619 C3.11364297,5.40614055 3.0567609,5.48567205 2.97574637,5.49674637 C2.89482229,5.50895961 2.82068336,5.44769952 2.81000808,5.36138288 C2.79921971,5.27458158 2.85603393,5.19449273 2.93686753,5.18341842" id="Fill-80" fill="#134886"></path>
                        <path d="M4.62961906,4.47082633 C4.58013279,4.53974394 4.48747044,4.55365347 4.42253667,4.50036591 C4.35776123,4.44715105 4.34541228,4.34757916 4.3949664,4.27839499 C4.44461099,4.20908966 4.53738643,4.19556785 4.60213926,4.24885541 C4.66716349,4.30148869 4.67926365,4.40115751 4.62961906,4.47082633" id="Fill-82" fill="#134886"></path>
                        <path d="M0.897085622,1.41155089 C0.847599354,1.48102585 0.754936995,1.4942811 0.6900937,1.44164782 C0.625408724,1.38797254 0.612946688,1.28869144 0.662613893,1.21938611 C0.712077544,1.14952342 0.804852989,1.13694669 0.869696284,1.18957997 C0.934449111,1.2427706 0.946911147,1.34236672 0.897085622,1.41155089" id="Fill-84" fill="#134886"></path>
                        <path d="M4.16340549,0.719689822 C4.22815832,0.772880452 4.24062036,0.871991922 4.1911567,0.941466882 C4.14130856,1.01103877 4.04882714,1.02429402 3.98389338,0.970909532 C3.918937,0.917718901 3.9066559,0.818801292 3.95614216,0.749035541 C4.00578675,0.679657512 4.0985622,0.666765751 4.16340549,0.719689822" id="Fill-86" fill="#134886"></path>
                        <path d="M1.30852278,4.71873829 C1.37327561,4.77137157 1.38564717,4.87113732 1.33600258,4.94070921 C1.28651632,5.01037803 1.19367302,5.02353635 1.12882973,4.97024879 C1.06414475,4.91705816 1.05170533,4.81775283 1.10116898,4.74827787 C1.15081357,4.67880291 1.24376995,4.66554766 1.30852278,4.71873829" id="Fill-88" fill="#134886"></path>
                        <path d="M4.95906914,1.83562197 C4.98980582,1.91636511 4.95341486,2.00903069 4.87796414,2.04179321 C4.80233247,2.07472536 4.71611599,2.03592892 4.68526624,1.95508885 C4.65434863,1.87415186 4.69067173,1.7816559 4.76637124,1.74826333 C4.84191244,1.7157916 4.92815153,1.75468498 4.95906914,1.83562197" id="Fill-90" fill="#134886"></path>
                        <path d="M0.607127302,3.73504362 C0.637863974,3.81578675 0.601473021,3.90854927 0.525931826,3.94140872 C0.450300162,3.97414701 0.364174152,3.93561712 0.333324394,3.85402585 C0.302316317,3.77357351 0.338729887,3.68107754 0.414361551,3.64804847 C0.490151535,3.61482553 0.576209693,3.65400969 0.607127302,3.73504362" id="Fill-92" fill="#134886"></path>
                        <path d="M1.70396963,0.366896607 C1.77960129,0.333964459 1.86599871,0.373051696 1.89657706,0.45379483 C1.9274042,0.534828756 1.89117157,0.627591276 1.81547205,0.660426494 C1.74002132,0.693479806 1.65369176,0.654465267 1.62295509,0.572970921 C1.59221842,0.492324717 1.62842843,0.400022617 1.70396963,0.366896607" id="Fill-94" fill="#134886"></path>
                        <path d="M3.47676317,5.02950242 C3.55239483,4.99693376 3.63852084,5.03585137 3.66928013,5.11686107 C3.70010727,5.1976042 3.66362585,5.29000323 3.58817512,5.32293538 C3.51254346,5.35589176 3.42639483,5.31716801 3.39565816,5.23603716 C3.36492149,5.15529402 3.40131244,5.0625315 3.47676317,5.02950242" id="Fill-96" fill="#134886"></path>
                        <path d="M4.94776058,3.88337399 C4.91620969,3.96431099 4.8294504,4.00160501 4.75402229,3.96809128 C4.67909176,3.93411712 4.64358288,3.84125767 4.67511115,3.76051454 C4.70709176,3.68003796 4.79360226,3.64228352 4.86896252,3.67625767 C4.9439609,3.71015913 4.97946979,3.80292165 4.94776058,3.88337399" id="Fill-98" fill="#134886"></path>
                        <path d="M0.61684588,1.9291454 C0.585317609,2.00969467 0.498626171,2.04766721 0.423356381,2.01395961 C0.347996123,1.98015509 0.312849111,1.88702908 0.344648788,1.8065525 C0.376109208,1.72619709 0.462936349,1.68832149 0.538138288,1.72231987 C0.613317609,1.75629402 0.648555089,1.84886268 0.61684588,1.9291454" id="Fill-100" fill="#134886"></path>
                        <path d="M3.61546947,0.378729402 C3.69055832,0.412703554 3.72590889,0.505296446 3.69419968,0.5865 C3.66264879,0.666782714 3.57579903,0.704634087 3.50071018,0.670563005 C3.42544039,0.636588853 3.39027076,0.543995961 3.42179903,0.46373748 C3.45353086,0.382800485 3.54010921,0.34475525 3.61546947,0.378729402" id="Fill-102" fill="#134886"></path>
                        <path d="M1.79161099,5.01908966 C1.86688078,5.05345153 1.90232181,5.14592326 1.87049952,5.22620598 C1.83869984,5.30714297 1.75194055,5.34472779 1.6768517,5.31121405 C1.60167237,5.27704604 1.56614087,5.18435622 1.59803102,5.10361309 C1.62958191,5.0233546 1.71625073,4.98501858 1.79161099,5.01908966" id="Fill-104" fill="#134886"></path>
                    </g>
                </g>
            </g>
        </g>
    </g>
</svg>