<?xml version="1.0" encoding="UTF-8"?>
<svg width="135px" height="74px" viewBox="0 0 135 74" version="1.1" xmlns="http://www.w3.org/2000/svg" xmlns:xlink="http://www.w3.org/1999/xlink">
    <title>frm</title>
    <g id="Page-1" stroke="none" stroke-width="1" fill="none" fill-rule="evenodd">
        <g id="Glocal-CSR-Test-Q7" transform="translate(-609.000000, -246.000000)">
            <g id="Group-6" transform="translate(435.000000, 193.000000)">
                <g id="Group-8" transform="translate(112.000000, 54.000000)">
                    <g id="frm" transform="translate(63.000000, 0.000000)">
                        <path d="M30.2628182,46.3228383 C28.4908346,46.3228383 27.0556082,44.8876118 27.0556082,43.1156283 C27.0556082,41.3436448 28.4908346,39.9084183 30.2628182,39.9084183 C32.0348017,39.9084183 33.4700282,41.3436448 33.4700282,43.1156283 C33.4700282,44.8876118 32.0267837,46.3228383 30.2628182,46.3228383 Z M30.2628182,41.5120233 C29.3808354,41.5120233 28.6592132,42.2336455 28.6592132,43.1156283 C28.6592132,43.997611 29.3808354,44.7192333 30.2628182,44.7192333 C31.1448009,44.7192333 31.8664232,43.997611 31.8664232,43.1156283 C31.8664232,42.2336455 31.1448009,41.5120233 30.2628182,41.5120233 Z" id="Shape" fill="#000000" fill-rule="nonzero"></path>
                        <ellipse id="Oval" fill="#E6ECF2" cx="74" cy="67" rx="60" ry="6"></ellipse>
                        <g id="Group-15" transform="translate(53.000000, 12.000000)">
                            <path d="M13.6839881,1.00015733 C14.4035744,1.0100729 14.9936132,1.3299618 15.5362247,1.59581919 C16.529158,2.08112791 17.2950711,2.38407744 18.1012582,2.38407744 C18.921269,2.38407744 19.6480956,2.07291736 20.4941999,1.64796694 C21.0858345,1.35046332 21.7132907,1.00182645 22.5118637,1.00182645 C23.3106646,1.00182645 23.9381189,1.34943954 24.4958581,1.63052285 C25.5454829,2.15128621 26.1990128,2.38407744 26.9233746,2.38407744 C27.737344,2.38407744 28.5047538,2.06999215 29.3603252,1.64911459 C29.9961551,1.33507392 30.5961253,1.00182645 31.3337645,1.00182645 C32.0637623,1.00182645 32.6588467,1.32861058 33.202144,1.59689672 C33.3823891,1.68575275 33.5552578,1.76863414 33.7221755,1.84492482 C32.5689738,2.89632581 31.649683,3.81513631 31.0440017,4.88721851 C30.5860191,5.69765685 30.3018729,6.59095744 30.2054843,7.4972889 C30.186023,7.68028112 30.1741562,7.86436381 30.1699479,8.04893847 C30.8622557,8.6665234 31.1313148,9.10407306 31.1313148,9.61097355 C31.1313148,9.86622953 31.0619909,10.1058832 30.9415914,10.3126543 C30.8143462,10.5311822 30.6307428,10.7134185 30.4115942,10.8398806 L30.4115942,10.8398806 L29.1949375,11.5419661 L30.2565827,12.461796 C36.9201287,18.2352211 42.0136036,26.1081088 43.6529521,34.8756537 C44.1940881,37.7010719 44.1314046,40.7873133 43.2663822,43.5924618 C42.5224865,46.004813 41.181883,48.2099875 39.1046575,49.836569 C33.7614725,54.015249 26.7073747,54.5113458 20.334104,54.3412484 C20.10327,54.3320335 19.8265879,54.3253413 19.510594,54.3177645 C17.0625883,54.2590671 12.1093381,54.1641538 8.07074987,52.1481619 C5.71777152,50.9735966 3.6787818,49.1265108 2.73634809,46.176234 C0.863611084,40.3136544 0.49295298,35.2129093 1.6806456,30.879319 C3.72072685,23.5509724 8.37517439,17.1059867 14.3328144,12.4664754 L14.3328144,12.4664754 L15.4720214,11.5793181 L14.2409085,10.8248634 C13.8328447,10.5747924 13.5541683,10.1277932 13.5541683,9.61631958 C13.5541683,9.17339472 13.7629124,8.77839641 14.0826605,8.51765302 C14.4897199,8.06510099 14.4709028,7.8458621 14.4432112,7.62063423 C14.3135826,6.56631036 14.0270666,5.68642294 13.575837,4.8884525 C12.9132599,3.71527238 11.8989829,2.71698355 10.5794068,2.09190803 C10.8710294,1.90070598 11.1607741,1.77909663 11.4610756,1.64650639 C12.170918,1.33335589 12.8752867,0.990602771 13.6839881,1.00015733 Z" id="Shape" stroke="#0057A8" stroke-width="2" fill="#FFFFFF" fill-rule="nonzero"></path>
                            <rect id="Rectangle" fill="#0057A8" x="9" y="9" width="26" height="2" rx="1"></rect>
                            <path d="M25.9820324,43.4134655 L25.9820324,43.3245868 L20.3382401,36.0143204 C20.3974925,36.0143204 20.4271187,35.9995073 20.4271187,35.9698811 C20.9381708,35.9698811 21.801034,35.6217731 23.0157085,34.9255573 C24.3859206,33.8664204 25.0710266,32.7776573 25.0710266,31.659268 L25.0710266,31.659268 L27.5707378,31.659268 C27.6299902,31.659268 27.6596164,31.6296418 27.6596164,31.5703894 L27.6596164,31.5703894 L27.6596164,30.5705049 C27.6596164,30.5186591 27.6299902,30.4890329 27.5707378,30.4816263 L27.5707378,30.4816263 L24.9710381,30.4816263 L24.9265988,30.1594413 C24.6155237,29.2188093 24.1785371,28.5966589 23.6156392,28.2929903 L23.6156392,28.2929903 L23.6156392,28.2041117 L27.5707378,28.2041117 C27.6299902,28.2041117 27.6596164,28.1744855 27.6596164,28.1152331 L27.6596164,28.1152331 L27.6596164,27.1153486 C27.6596164,27.0635027 27.6299902,27.0338765 27.5707378,27.02647 L27.5707378,27.02647 L17.060841,27.02647 C17.0089951,27.02647 16.9793689,27.0560962 16.9719624,27.1153486 L16.9719624,27.1153486 L16.9719624,28.1152331 C16.9719624,28.1744855 17.0015886,28.2041117 17.060841,28.2041117 L17.060841,28.2041117 L18.9717313,28.2041117 C19.6309144,28.2041117 20.3604597,28.4151984 21.1603673,28.8373719 C21.7380783,29.2595453 22.1158125,29.8076301 22.2935697,30.4816263 L22.2935697,30.4816263 L17.060841,30.4816263 C17.0089951,30.4816263 16.9793689,30.5112525 16.9719624,30.5705049 L16.9719624,30.5705049 L16.9719624,31.5703894 C16.9719624,31.6296418 17.0015886,31.659268 17.060841,31.659268 L17.060841,31.659268 L22.338009,31.659268 L22.338009,31.792586 C22.338009,31.9184973 22.3231959,32.0851447 22.2935697,32.2925282 C21.8121439,34.0182547 20.3715696,34.881118 17.9718468,34.881118 L17.9718468,34.881118 L17.2941474,34.881118 L17.2941474,34.9255573 C21.6343866,40.5841627 23.8156161,43.4134655 23.8378357,43.4134655 L23.8378357,43.4134655 L25.9820324,43.4134655 Z" id="`" fill="#E01F27" fill-rule="nonzero"></path>
                        </g>
                        <path d="M18.8181818,4.09090909 C21.2401301,4.09090909 23.2777943,5.85316186 23.6781299,8.199189 C25.5426165,8.38009391 27,9.95167023 27,11.8636364 C27,13.8970485 25.351594,15.5454545 23.3181818,15.5454545 L20.8636364,15.5454545 C20.6377016,15.5454545 20.4545455,15.3622984 20.4545455,15.1363636 C20.4545455,14.9104289 20.6377016,14.7272727 20.8636364,14.7272727 L23.3181818,14.7272727 C24.8997244,14.7272727 26.1818182,13.445179 26.1818182,11.8636364 C26.1818182,10.2820938 24.8997244,9 23.3181818,9 C23.1077164,9 22.9315938,8.84031014 22.9110455,8.63084986 C22.7048065,6.52856073 20.9370048,4.90909091 18.8181818,4.90909091 C18.436183,4.90909091 18.0615588,4.96134123 17.701533,5.06324086 C17.4964594,5.1212835 17.2811802,5.01215318 17.2067727,4.81243418 C16.3193645,2.43052077 14.0388517,0.818181818 11.4545455,0.818181818 C8.63689623,0.818181818 6.20108959,2.73346855 5.51047827,5.42404882 C5.4655875,5.59894091 5.31134673,5.72371855 5.130936,5.73109118 C2.72567741,5.82938509 0.818181818,7.81167559 0.818181818,10.2272727 C0.818181818,12.712554 2.83290055,14.7272727 5.31818182,14.7272727 L6.13636364,14.7272727 C6.36229841,14.7272727 6.54545455,14.9104289 6.54545455,15.1363636 C6.54545455,15.3622984 6.36229841,15.5454545 6.13636364,15.5454545 L5.31818182,15.5454545 C2.381031,15.5454545 0,13.1644235 0,10.2272727 C0,7.47336191 2.09752936,5.19616677 4.79806486,4.93420541 C5.67576041,2.03540523 8.36203336,0 11.4545455,0 C14.259411,0 16.7484506,1.67588468 17.8374604,4.18896532 C18.157804,4.12398368 18.4859018,4.09090909 18.8181818,4.09090909 Z" id="Path" stroke="#C1D0DD" stroke-width="0.5" fill="#C3D0DC"></path>
                        <g id="Group-14" transform="translate(109.632343, 5.698019)" fill="#000000" fill-rule="nonzero">
                            <path d="M6.02086967,6.73450762 C5.8334496,6.73450762 5.653238,6.66242297 5.50906871,6.52546216 L0.210847576,1.22724102 C-0.0702825253,0.946110917 -0.0702825253,0.491977677 0.210847576,0.210847576 C0.491977677,-0.0702825253 0.946110917,-0.0702825253 1.22724102,0.210847576 L6.52546216,5.50906871 C6.80659226,5.79019881 6.80659226,6.24433205 6.52546216,6.52546216 C6.38850134,6.66242297 6.20828973,6.73450762 6.02086967,6.73450762 Z" id="Path"></path>
                            <path d="M0.722648529,6.73450762 C0.535228462,6.73450762 0.355016859,6.66242297 0.210847576,6.52546216 C-0.0702825253,6.24433205 -0.0702825253,5.79019881 0.210847576,5.50906871 L5.50906871,0.210847576 C5.79019881,-0.0702825253 6.24433205,-0.0702825253 6.52546216,0.210847576 C6.80659226,0.491977677 6.80659226,0.946110917 6.52546216,1.22724102 L1.22724102,6.52546216 C1.0902802,6.66242297 0.910068597,6.73450762 0.722648529,6.73450762 Z" id="Path"></path>
                        </g>
                    </g>
                </g>
            </g>
        </g>
    </g>
</svg>