<?xml version="1.0" encoding="UTF-8"?>
<svg width="73px" height="43px" viewBox="0 0 73 43" version="1.1" xmlns="http://www.w3.org/2000/svg" xmlns:xlink="http://www.w3.org/1999/xlink">
    <title>fundig-updates</title>
    <g id="Page-1" stroke="none" stroke-width="1" fill="none" fill-rule="evenodd">
        <g id="Glocal-Dashboard" transform="translate(-1113.000000, -333.000000)" fill-rule="nonzero">
            <g id="Group-12" transform="translate(83.000000, 157.000000)">
                <g id="Group-5" transform="translate(0.000000, 135.000000)">
                    <g id="Group-9" transform="translate(931.000000, 0.000000)">
                        <g id="Group-11" transform="translate(17.000000, 41.000000)">
                            <g id="fundig-updates" transform="translate(82.000000, 0.000000)">
                                <path d="M2.95361005,24.9415829 C1.34585679,24.9415829 0.0436494095,23.6393755 0.0436494095,22.0316223 C0.0436494095,20.423869 1.34585679,19.1216617 2.95361005,19.1216617 C4.5613633,19.1216617 5.86357068,20.423869 5.86357068,22.0316223 C5.86357068,23.6393755 4.5540884,24.9415829 2.95361005,24.9415829 Z M2.95361005,20.576642 C2.15337087,20.576642 1.49862973,21.2313831 1.49862973,22.0316223 C1.49862973,22.8318615 2.15337087,23.4866026 2.95361005,23.4866026 C3.75384922,23.4866026 4.40859036,22.8318615 4.40859036,22.0316223 C4.40859036,21.2313831 3.75384922,20.576642 2.95361005,20.576642 Z" id="Shape" fill="#000000"></path>
                                <g id="Fundings" transform="translate(20.000000, 3.000000)">
                                    <path d="M3.77777778,-1.44950718e-12 L30.2222222,-1.44950718e-12 C32.3056679,-1.44950718e-12 34,1.69433325 34,3.77777778 L34,28.3333333 C34,30.416779 32.3056679,32.1111111 30.2222222,32.1111111 L22.6666667,32.1111111 L17,37.7777778 L11.3333333,32.1111111 L3.77777778,32.1111111 C1.69433325,32.1111111 0,30.416779 0,28.3333333 L0,3.77777778 C0,1.69433325 1.69433325,-1.44950718e-12 3.77777778,-1.44950718e-12 L3.77777778,-1.44950718e-12 Z" id="user-/-user_pin" stroke="#0057A8" stroke-width="2" fill="#FFFFFF"></path>
                                    <path d="M20.4304071,26.9076377 L20.4304071,26.8027858 L13.7723067,18.1787109 C13.8422081,18.1787109 13.8771587,18.1612356 13.8771587,18.126285 C14.4800576,18.126285 15.4979955,17.7156147 16.9309725,16.8942743 C18.5474404,15.6447882 19.3556743,14.3603516 19.3556743,13.0409642 L19.3556743,13.0409642 L22.3046361,13.0409642 C22.3745374,13.0409642 22.4094881,13.0060136 22.4094881,12.9361123 L22.4094881,12.9361123 L22.4094881,11.7565275 C22.4094881,11.6953639 22.3745374,11.6604132 22.3046361,11.6516756 L22.3046361,11.6516756 L19.2377159,11.6516756 L19.1852899,11.2715872 C18.818308,10.1619038 18.3027858,9.42793997 17.6387233,9.06969572 L17.6387233,9.06969572 L17.6387233,8.96484375 L22.3046361,8.96484375 C22.3745374,8.96484375 22.4094881,8.92989309 22.4094881,8.85999178 L22.4094881,8.85999178 L22.4094881,7.68040707 C22.4094881,7.61924342 22.3745374,7.58429276 22.3046361,7.5755551 L22.3046361,7.5755551 L9.90589021,7.5755551 C9.84472656,7.5755551 9.8097759,7.61050576 9.80103824,7.68040707 L9.80103824,7.68040707 L9.80103824,8.85999178 C9.80103824,8.92989309 9.8359889,8.96484375 9.90589021,8.96484375 L9.90589021,8.96484375 L12.1602076,8.96484375 C12.9378598,8.96484375 13.7985197,9.21386719 14.7421875,9.71191406 C15.4237253,10.2099609 15.8693462,10.8565481 16.0790502,11.6516756 L16.0790502,11.6516756 L9.90589021,11.6516756 C9.84472656,11.6516756 9.8097759,11.6866262 9.80103824,11.7565275 L9.80103824,11.7565275 L9.80103824,12.9361123 C9.80103824,13.0060136 9.8359889,13.0409642 9.90589021,13.0409642 L9.90589021,13.0409642 L16.1314762,13.0409642 L16.1314762,13.1982422 C16.1314762,13.3467825 16.1140008,13.5433799 16.0790502,13.7880345 C15.511102,15.8239104 13.8116262,16.8418483 10.9806229,16.8418483 L10.9806229,16.8418483 L10.1811266,16.8418483 L10.1811266,16.8942743 C15.301398,23.5698499 17.8746402,26.9076377 17.9008532,26.9076377 L17.9008532,26.9076377 L20.4304071,26.9076377 Z" id="`" fill="#E01F27"></path>
                                </g>
                                <path d="M71.7232548,6.9143768 C71.5341073,6.9143768 71.3522348,6.84162778 71.2067368,6.70340465 L65.8596841,1.35635198 C65.5759629,1.07263082 65.5759629,0.614312019 65.8596841,0.330590857 C66.1434053,0.0468696949 66.6017241,0.0468696949 66.8854452,0.330590857 L72.2324979,5.67764353 C72.516219,5.96136469 72.516219,6.41968349 72.2324979,6.70340465 C72.0942748,6.84162778 71.9124022,6.9143768 71.7232548,6.9143768 Z" id="Path" fill="#000000"></path>
                                <path d="M66.3762021,6.9143768 C66.1870547,6.9143768 66.0051821,6.84162778 65.8596841,6.70340465 C65.5759629,6.41968349 65.5759629,5.96136469 65.8596841,5.67764353 L71.2067368,0.330590857 C71.4904579,0.0468696949 71.9487767,0.0468696949 72.2324979,0.330590857 C72.516219,0.614312019 72.516219,1.07263082 72.2324979,1.35635198 L66.8854452,6.70340465 C66.7472221,6.84162778 66.5653495,6.9143768 66.3762021,6.9143768 Z" id="Path" fill="#000000"></path>
                            </g>
                        </g>
                    </g>
                </g>
            </g>
        </g>
    </g>
</svg>