<?xml version="1.0" encoding="UTF-8"?>
<svg width="48px" height="46px" viewBox="0 0 48 46" version="1.1" xmlns="http://www.w3.org/2000/svg" xmlns:xlink="http://www.w3.org/1999/xlink">
    <title>Fundings</title>
    <g id="Fundings" stroke="none" stroke-width="1" fill="none" fill-rule="evenodd">
        <g transform="translate(15.000000, 12.000000)" fill-rule="nonzero">
            <path d="M2.11111111,-8.10018719e-13 L16.8888889,-8.10018719e-13 C18.0531673,-8.10018719e-13 19,0.946833286 19,2.11111111 L19,15.8333333 C19,16.9976118 18.0531673,17.9444444 16.8888889,17.9444444 L12.6666667,17.9444444 L9.5,21.1111111 L6.33333333,17.9444444 L2.11111111,17.9444444 C0.946833286,17.9444444 0,16.9976118 0,15.8333333 L0,2.11111111 C0,0.946833286 0.946833286,-8.10018719e-13 2.11111111,-8.10018719e-13 L2.11111111,-8.10018719e-13 Z" id="user-/-user_pin" stroke="#0057A8" stroke-width="2" fill="#FFFFFF"></path>
            <path d="M11.4169922,15.0366211 L11.4169922,14.9780273 L7.69628906,10.1586914 C7.73535156,10.1586914 7.75488281,10.1489258 7.75488281,10.1293945 C8.09179688,10.1293945 8.66064453,9.89990234 9.46142578,9.44091797 C10.3647461,8.74267578 10.8164062,8.02490234 10.8164062,7.28759766 L10.8164062,7.28759766 L12.4643555,7.28759766 C12.503418,7.28759766 12.5229492,7.26806641 12.5229492,7.22900391 L12.5229492,7.22900391 L12.5229492,6.56982422 C12.5229492,6.53564453 12.503418,6.51611328 12.4643555,6.51123047 L12.4643555,6.51123047 L10.7504883,6.51123047 L10.7211914,6.29882812 C10.5161133,5.67871094 10.2280273,5.26855469 9.85693359,5.06835938 L9.85693359,5.06835938 L9.85693359,5.00976562 L12.4643555,5.00976562 C12.503418,5.00976562 12.5229492,4.99023438 12.5229492,4.95117188 L12.5229492,4.95117188 L12.5229492,4.29199219 C12.5229492,4.2578125 12.503418,4.23828125 12.4643555,4.23339844 L12.4643555,4.23339844 L5.53564453,4.23339844 C5.50146484,4.23339844 5.48193359,4.25292969 5.47705078,4.29199219 L5.47705078,4.29199219 L5.47705078,4.95117188 C5.47705078,4.99023438 5.49658203,5.00976562 5.53564453,5.00976562 L5.53564453,5.00976562 L6.79541016,5.00976562 C7.22998047,5.00976562 7.7109375,5.14892578 8.23828125,5.42724609 C8.61914062,5.70556641 8.86816406,6.06689453 8.98535156,6.51123047 L8.98535156,6.51123047 L5.53564453,6.51123047 C5.50146484,6.51123047 5.48193359,6.53076172 5.47705078,6.56982422 L5.47705078,6.56982422 L5.47705078,7.22900391 C5.47705078,7.26806641 5.49658203,7.28759766 5.53564453,7.28759766 L5.53564453,7.28759766 L9.01464844,7.28759766 L9.01464844,7.37548828 C9.01464844,7.45849609 9.00488281,7.56835938 8.98535156,7.70507812 C8.66796875,8.84277344 7.71826172,9.41162109 6.13623047,9.41162109 L6.13623047,9.41162109 L5.68945312,9.41162109 L5.68945312,9.44091797 C8.55078125,13.1713867 9.98876953,15.0366211 10.003418,15.0366211 L10.003418,15.0366211 L11.4169922,15.0366211 Z" id="`" fill="#E01F27"></path>
        </g>
    </g>
</svg>