<?xml version="1.0" encoding="UTF-8"?>
<svg width="48px" height="46px" viewBox="0 0 48 46" version="1.1" xmlns="http://www.w3.org/2000/svg" xmlns:xlink="http://www.w3.org/1999/xlink">
    <title>gmail</title>
    <g id="gmail" stroke="none" stroke-width="1" fill="none" fill-rule="evenodd">
        <g transform="translate(11.000000, 13.000000)" fill-rule="nonzero">
            <path d="M1.78068643,19.484172 L5.91381989,19.484172 L5.91381989,9.44651523 L0.0092965825,5.01836914 L0.0092965825,17.7131107 C0.00962510436,18.6911202 0.802676863,19.484172 1.78068643,19.484172 Z" id="path8" fill="#4285F4"></path>
            <path d="M20.0842816,19.484172 L24.2177436,19.484172 C25.1960817,19.484172 25.9891334,18.6911202 25.9891334,17.7127822 L25.9891334,5.01804062 L20.0842816,9.44651523 L20.0842816,19.484172 Z" id="path10" fill="#34A853"></path>
            <path d="M20.0842816,1.77158765 L20.0842816,9.44651523 L25.9888049,5.01836914 L25.9888049,2.65728257 C25.9888049,1.19010397 24.7992273,0.000526327282 23.3317201,0.000526327282 C22.7568069,0.000526327282 22.1976627,0.187126741 21.7377321,0.532074689 L20.0842816,1.77158765 Z" id="path12" fill="#FBBC04"></path>
            <polygon id="path14" fill="#EA4335" points="5.91414841 9.44651523 5.91414841 1.77158765 12.9990507 7.08510014 20.0839531 1.77125913 20.0839531 9.44651523 12.9990507 14.7600277"></polygon>
            <path d="M0.00962510436,2.65695405 L0.00962510436,5.01804062 L5.91414841,9.44651523 L5.91414841,1.77158765 L4.26069791,0.531746167 C3.08688932,-0.348692405 1.42161204,-0.110842582 0.541173466,1.06296601 C0.195896996,1.5228966 0.00962510436,2.08236932 0.00962510436,2.65695405 Z" id="path16" fill="#C5221F"></path>
        </g>
    </g>
</svg>