<?xml version="1.0" encoding="UTF-8"?>
<svg width="48px" height="48px" viewBox="0 0 48 48" version="1.1" xmlns="http://www.w3.org/2000/svg" xmlns:xlink="http://www.w3.org/1999/xlink">
    <title>home</title>
    <g id="home" stroke="none" stroke-width="1" fill="none" fill-rule="evenodd">
        <path d="M24.4967778,10.8984861 L35.7777778,22.4855972 L35.7616667,35.9802639 L30.9444444,35.9802639 L30.9444444,24.7024861 C30.9444444,23.8115417 30.2226667,23.091375 29.3333333,23.091375 L19.6666667,23.091375 C18.7757222,23.091375 18.0555556,23.8115417 18.0555556,24.7024861 L18.0555556,35.9802639 L13.2222222,35.9802639 L13.2318889,22.4195417 L24.4967778,10.8984861 Z M27.7222222,26.3135972 L27.7222222,35.9802639 L21.2777778,35.9802639 L21.2777778,26.3135972 L27.7222222,26.3135972 Z M38.072,20.1672083 L25.6519444,7.46520833 C25.0445556,6.84493056 23.9554444,6.84493056 23.3480556,7.46520833 L10.9263889,20.1688194 C10.3383333,20.7729861 10,21.6172083 10,22.4855972 L10,35.9802639 C10,37.7573194 11.3646111,39.2024861 13.0417778,39.2024861 L19.6666667,39.2024861 L29.3333333,39.2024861 L35.9566111,39.2024861 C37.6337778,39.2024861 39,37.7573194 39,35.9802639 L39,22.4855972 C39,21.6172083 38.6616667,20.7729861 38.072,20.1672083 L38.072,20.1672083 Z" fill="#0057A8" fill-rule="nonzero"></path>
    </g>
</svg>