<?xml version="1.0" encoding="UTF-8"?>
<svg width="127px" height="68px" viewBox="0 0 127 68" version="1.1" xmlns="http://www.w3.org/2000/svg" xmlns:xlink="http://www.w3.org/1999/xlink">
    <title>HRM</title>
    <g id="Page-1" stroke="none" stroke-width="1" fill="none" fill-rule="evenodd">
        <g id="Glocal-CSR-Test-Q5" transform="translate(-617.000000, -252.000000)">
            <g id="Group-6" transform="translate(435.000000, 193.000000)">
                <g id="Group-8" transform="translate(90.000000, 59.000000)">
                    <g id="HRM" transform="translate(92.000000, 0.000000)">
                        <g id="Group-15" transform="translate(17.068328, 37.300000)" fill="#E01F27" fill-rule="nonzero">
                            <path d="M5.2816701,6.87666289 C2.98163768,6.87666289 0.986930137,8.18391058 0,10.0959464 C1.59096127,10.8869005 3.38437561,11.3316629 5.28167152,11.3316629 C7.17896601,11.3316629 8.97238035,10.8869005 10.5633409,10.0959464 C9.57641077,8.18390917 7.58170253,6.87666289 5.2816701,6.87666289 Z" id="user-/-user_circle"></path>
                            <circle id="Oval" cx="5.12303091" cy="2.88809531" r="2.88809531"></circle>
                        </g>
                        <g id="Group-15" transform="translate(91.068328, 34.300000)" fill="#E01F27" fill-rule="nonzero">
                            <path d="M6.24197376,8.12696524 C3.52375362,8.12696524 1.16637198,9.67189433 0,11.931573 C1.88022695,12.8663369 3.99971663,13.3919652 6.24197543,13.3919652 C8.48423256,13.3919652 10.6037222,12.8663369 12.4839483,11.931573 C11.3175764,9.67189265 8.96019389,8.12696524 6.24197376,8.12696524 Z" id="user-/-user_circle"></path>
                            <circle id="Oval" cx="6.05449107" cy="3.41320355" r="3.41320355"></circle>
                        </g>
                        <path d="M3.26281815,41.3228383 C1.49083463,41.3228383 0.0556081519,39.8876118 0.0556081519,38.1156283 C0.0556081519,36.3436448 1.49083463,34.9084183 3.26281815,34.9084183 C5.03480168,34.9084183 6.47002815,36.3436448 6.47002815,38.1156283 C6.47002815,39.8876118 5.02678365,41.3228383 3.26281815,41.3228383 Z M3.26281815,36.5120233 C2.3808354,36.5120233 1.65921315,37.2336455 1.65921315,38.1156283 C1.65921315,38.997611 2.3808354,39.7192333 3.26281815,39.7192333 C4.1448009,39.7192333 4.86642315,38.997611 4.86642315,38.1156283 C4.86642315,37.2336455 4.1448009,36.5120233 3.26281815,36.5120233 Z" id="Shape" fill="#000000" fill-rule="nonzero"></path>
                        <ellipse id="Oval" fill="#E6ECF2" cx="67" cy="62" rx="60" ry="6"></ellipse>
                        <g id="Group-8" transform="translate(60.087765, 29.708250) rotate(15.000000) translate(-60.087765, -29.708250) translate(29.587765, 7.708250)" stroke="#0057A8" stroke-width="2.8">
                            <line x1="33.8749028" y1="28.5987983" x2="60.9354137" y2="43.9573098" id="Line-2" stroke-linecap="round"></line>
                            <circle id="Oval" fill="#FFFFFF" fill-rule="nonzero" cx="21.0463538" cy="21.187974" r="18.9571429"></circle>
                        </g>
                        <g id="Group-15" transform="translate(42.068328, 25.300000)" fill="#E01F27" fill-rule="nonzero">
                            <path d="M8.64273289,11.2527211 C4.87904347,11.2527211 1.61497659,13.3918537 0,16.5206395 C2.60339117,17.814928 5.53806918,18.5427211 8.64273521,18.5427211 C11.7473989,18.5427211 14.6820769,17.814928 17.2854669,16.5206395 C15.6704904,13.3918514 12.4064223,11.2527211 8.64273289,11.2527211 Z" id="user-/-user_circle"></path>
                            <circle id="Oval" cx="8.38314148" cy="4.72597414" r="4.72597414"></circle>
                        </g>
                        <g id="Group-14" transform="translate(102.632343, 0.698019)" fill="#000000" fill-rule="nonzero">
                            <path d="M6.02086967,6.73450762 C5.8334496,6.73450762 5.653238,6.66242297 5.50906871,6.52546216 L0.210847576,1.22724102 C-0.0702825253,0.946110917 -0.0702825253,0.491977677 0.210847576,0.210847576 C0.491977677,-0.0702825253 0.946110917,-0.0702825253 1.22724102,0.210847576 L6.52546216,5.50906871 C6.80659226,5.79019881 6.80659226,6.24433205 6.52546216,6.52546216 C6.38850134,6.66242297 6.20828973,6.73450762 6.02086967,6.73450762 Z" id="Path"></path>
                            <path d="M0.722648529,6.73450762 C0.535228462,6.73450762 0.355016859,6.66242297 0.210847576,6.52546216 C-0.0702825253,6.24433205 -0.0702825253,5.79019881 0.210847576,5.50906871 L5.50906871,0.210847576 C5.79019881,-0.0702825253 6.24433205,-0.0702825253 6.52546216,0.210847576 C6.80659226,0.491977677 6.80659226,0.946110917 6.52546216,1.22724102 L1.22724102,6.52546216 C1.0902802,6.66242297 0.910068597,6.73450762 0.722648529,6.73450762 Z" id="Path"></path>
                        </g>
                    </g>
                </g>
            </g>
        </g>
    </g>
</svg>