<?xml version="1.0" encoding="UTF-8"?>
<svg width="135px" height="74px" viewBox="0 0 135 74" version="1.1" xmlns="http://www.w3.org/2000/svg" xmlns:xlink="http://www.w3.org/1999/xlink">
    <title>IS</title>
    <g id="Page-1" stroke="none" stroke-width="1" fill="none" fill-rule="evenodd">
        <g id="Glocal-CSR-Test-Q8" transform="translate(-609.000000, -246.000000)">
            <g id="Group-6" transform="translate(435.000000, 193.000000)">
                <g id="Group-8" transform="translate(147.000000, 54.000000)">
                    <g id="IS" transform="translate(28.000000, 0.000000)">
                        <path d="M30.2628182,46.3228383 C28.4908346,46.3228383 27.0556082,44.8876118 27.0556082,43.1156283 C27.0556082,41.3436448 28.4908346,39.9084183 30.2628182,39.9084183 C32.0348017,39.9084183 33.4700282,41.3436448 33.4700282,43.1156283 C33.4700282,44.8876118 32.0267837,46.3228383 30.2628182,46.3228383 Z M30.2628182,41.5120233 C29.3808354,41.5120233 28.6592132,42.2336455 28.6592132,43.1156283 C28.6592132,43.997611 29.3808354,44.7192333 30.2628182,44.7192333 C31.1448009,44.7192333 31.8664232,43.997611 31.8664232,43.1156283 C31.8664232,42.2336455 31.1448009,41.5120233 30.2628182,41.5120233 Z" id="Shape" fill="#000000" fill-rule="nonzero"></path>
                        <ellipse id="Oval" fill="#E6ECF2" cx="74" cy="67" rx="60" ry="6"></ellipse>
                        <path d="M18.8181818,4.09090909 C21.2401301,4.09090909 23.2777943,5.85316186 23.6781299,8.199189 C25.5426165,8.38009391 27,9.95167023 27,11.8636364 C27,13.8970485 25.351594,15.5454545 23.3181818,15.5454545 L20.8636364,15.5454545 C20.6377016,15.5454545 20.4545455,15.3622984 20.4545455,15.1363636 C20.4545455,14.9104289 20.6377016,14.7272727 20.8636364,14.7272727 L23.3181818,14.7272727 C24.8997244,14.7272727 26.1818182,13.445179 26.1818182,11.8636364 C26.1818182,10.2820938 24.8997244,9 23.3181818,9 C23.1077164,9 22.9315938,8.84031014 22.9110455,8.63084986 C22.7048065,6.52856073 20.9370048,4.90909091 18.8181818,4.90909091 C18.436183,4.90909091 18.0615588,4.96134123 17.701533,5.06324086 C17.4964594,5.1212835 17.2811802,5.01215318 17.2067727,4.81243418 C16.3193645,2.43052077 14.0388517,0.818181818 11.4545455,0.818181818 C8.63689623,0.818181818 6.20108959,2.73346855 5.51047827,5.42404882 C5.4655875,5.59894091 5.31134673,5.72371855 5.130936,5.73109118 C2.72567741,5.82938509 0.818181818,7.81167559 0.818181818,10.2272727 C0.818181818,12.712554 2.83290055,14.7272727 5.31818182,14.7272727 L6.13636364,14.7272727 C6.36229841,14.7272727 6.54545455,14.9104289 6.54545455,15.1363636 C6.54545455,15.3622984 6.36229841,15.5454545 6.13636364,15.5454545 L5.31818182,15.5454545 C2.381031,15.5454545 0,13.1644235 0,10.2272727 C0,7.47336191 2.09752936,5.19616677 4.79806486,4.93420541 C5.67576041,2.03540523 8.36203336,0 11.4545455,0 C14.259411,0 16.7484506,1.67588468 17.8374604,4.18896532 C18.157804,4.12398368 18.4859018,4.09090909 18.8181818,4.09090909 Z" id="Path" stroke="#C1D0DD" stroke-width="0.5" fill="#C3D0DC"></path>
                        <g id="Group-14" transform="translate(109.632343, 5.698019)" fill="#000000" fill-rule="nonzero">
                            <path d="M6.02086967,6.73450762 C5.8334496,6.73450762 5.653238,6.66242297 5.50906871,6.52546216 L0.210847576,1.22724102 C-0.0702825253,0.946110917 -0.0702825253,0.491977677 0.210847576,0.210847576 C0.491977677,-0.0702825253 0.946110917,-0.0702825253 1.22724102,0.210847576 L6.52546216,5.50906871 C6.80659226,5.79019881 6.80659226,6.24433205 6.52546216,6.52546216 C6.38850134,6.66242297 6.20828973,6.73450762 6.02086967,6.73450762 Z" id="Path"></path>
                            <path d="M0.722648529,6.73450762 C0.535228462,6.73450762 0.355016859,6.66242297 0.210847576,6.52546216 C-0.0702825253,6.24433205 -0.0702825253,5.79019881 0.210847576,5.50906871 L5.50906871,0.210847576 C5.79019881,-0.0702825253 6.24433205,-0.0702825253 6.52546216,0.210847576 C6.80659226,0.491977677 6.80659226,0.946110917 6.52546216,1.22724102 L1.22724102,6.52546216 C1.0902802,6.66242297 0.910068597,6.73450762 0.722648529,6.73450762 Z" id="Path"></path>
                        </g>
                        <g id="Group-3" transform="translate(49.000000, 12.000000)" fill-rule="nonzero">
                            <path d="M26.8734375,1 C27.3297929,1 27.764559,1.17071513 28.0971413,1.47441318 L28.2169124,1.59445982 L43.5282639,18.4695716 C43.7930999,18.761367 43.9556458,19.1293831 43.9921443,19.5192399 L44,19.6875 L44,49.21875 C44,50.8785246 43.3069442,52.3827608 42.1923556,53.4729296 C41.1357425,54.5063932 39.7004474,55.1686659 38.1110192,55.2430043 L37.81125,55.25 L7.1859375,55.25 C5.47795765,55.25 3.92867984,54.5712092 2.80675977,53.4734401 C1.75807414,52.4473289 1.08293343,51.0542986 1.00713378,49.5100217 L1,49.21875 L1,7.03125 C1,5.37126342 1.69253129,3.86680307 2.80675977,2.77655994 C3.86268455,1.74336544 5.29716842,1.08130749 6.8862314,1.00699339 L7.1859375,1 L26.8734375,1 Z M28.625,4.28533705 L28.625,12.984375 L28.6316054,13.2107029 C28.6797483,14.0330767 28.9877745,14.7698658 29.4478384,15.317561 C30.0074265,15.9837373 30.7864061,16.375 31.633125,16.375 L31.633125,16.375 L39.5945089,16.375 L28.625,4.28533705 Z" id="sessions" stroke="#0057A8" stroke-width="2" fill="#FFFFFF"></path>
                            <path d="M31.865928,29.3287665 C31.863428,29.2387653 31.8371776,29.1537641 31.8134273,29.0675129 C31.794677,28.9950119 31.7859269,28.9212609 31.7546765,28.85501 C31.7259261,28.7900091 31.6771754,28.7375084 31.6346748,28.6775076 C31.5821741,28.6012565 31.5346734,28.5250055 31.4671725,28.4625046 C31.4559224,28.4512545 31.4509223,28.4362543 31.4384221,28.4262541 C31.3934215,28.3875036 31.3384207,28.3737534 31.2896701,28.342503 C31.214669,28.2937523 31.140918,28.2437516 31.0559169,28.2112512 C30.9721657,28.1812508 30.8896646,28.1737507 30.8034134,28.1612505 C30.7434126,28.1525004 30.6896618,28.125 30.625911,28.125 L24.3758252,28.125 C23.6845657,28.125 23.125808,28.6850077 23.125808,29.3750172 C23.125808,30.0650266 23.6845657,30.6250343 24.3758252,30.6250343 L27.9083737,30.6250343 L22.8633044,36.5101151 L17.5182311,33.3038211 C16.9894738,32.9838167 16.3094645,33.1013183 15.9144591,33.5750748 L9.66437327,41.0751777 C9.22311722,41.605185 9.29436819,42.3939458 9.82437547,42.8352019 C10.0593787,43.0302046 10.3418826,43.1252059 10.6243864,43.1252059 C10.9831414,43.1252059 11.3381462,42.9727038 11.5856496,42.6751997 L17.150726,35.9976081 L22.4820492,39.197652 C23.0058064,39.5114063 23.6783156,39.4014048 24.0745711,38.9388984 L29.3758938,32.7538135 L29.3758938,35.6251029 C29.3758938,36.3151124 29.9346515,36.8751201 30.625911,36.8751201 C31.3171705,36.8751201 31.8759281,36.3151124 31.8759281,35.6251029 L31.8759281,29.3750172 C31.8759281,29.3587669 31.867178,29.3450167 31.865928,29.3287665" id="🎨-Icon-Сolor" fill="#E01F27"></path>
                        </g>
                    </g>
                </g>
            </g>
        </g>
    </g>
</svg>