<?xml version="1.0" encoding="UTF-8"?>
<svg width="33px" height="31px" viewBox="0 0 33 31" version="1.1" xmlns="http://www.w3.org/2000/svg" xmlns:xlink="http://www.w3.org/1999/xlink">
    <title>jobs-active</title>
    <g id="jobs-active" stroke="none" stroke-width="1" fill="none" fill-rule="evenodd">
        <path d="M20.4482759,2 C22.162263,2 23.5517241,3.44211873 23.5517241,5.22106233 L23.5517241,5.22106233 L23.551,7.574 L26.862069,7.57491557 C29.0781332,7.57491557 30.887323,9.38297137 30.9949359,11.655314 L31,11.8696653 L31,24.6052502 C31,26.977175 29.1473852,28.9 26.862069,28.9 L26.862069,28.9 L5.13793103,28.9 C2.85261483,28.9 1,26.977175 1,24.6052502 L1,24.6052502 L1,11.8696653 C1,9.49774053 2.85261483,7.57491557 5.13793103,7.57491557 L5.13793103,7.57491557 L9.379,7.574 L9.37931034,5.22106233 C9.37931034,3.50346161 10.6745987,2.09985697 12.3066509,2.00509898 L12.4827586,2 Z M28.931,18.439 L19.2471637,18.4402441 C19.102199,20.3032513 17.5995562,21.7682376 15.7672414,21.7682376 C13.9349265,21.7682376 12.4322837,20.3032513 12.287319,18.4402441 L3.068,18.439 L3.06896552,24.6052502 C3.06896552,25.739649 3.91647551,26.6685995 4.99017397,26.7472334 L5.13793103,26.7526251 L26.862069,26.7526251 C28.0047271,26.7526251 28.9310345,25.7912126 28.9310345,24.6052502 L28.9310345,24.6052502 L28.931,18.439 Z M26.862069,9.72229045 L5.13793103,9.72229045 C3.99527293,9.72229045 3.06896552,10.6837029 3.06896552,11.8696653 L3.06896552,11.8696653 L3.068,17.366 L12.3565733,17.3663046 C12.6869155,15.7995837 13.9938697,14.6121122 15.5818179,14.5258703 L15.7672414,14.5208474 C17.438081,14.5208474 18.8347939,15.7390034 19.1779095,17.3663046 L28.931,17.366 L28.9310345,11.8696653 C28.9310345,10.7352665 28.0835245,9.80631602 27.009826,9.72768213 L26.862069,9.72229045 Z M20.4482759,4.14737488 L12.4827586,4.14737488 C11.9114296,4.14737488 11.4482759,4.62808113 11.4482759,5.22106233 L11.4482759,5.22106233 L11.4472414,7.57243783 L21.4817241,7.57243783 L21.4827586,5.22106233 C21.4827586,4.67043693 21.0834067,4.21662004 20.5689184,4.15459837 L20.5689184,4.15459837 L20.4482759,4.14737488 Z" id="jobs" fill="#FFFFFF" fill-rule="nonzero"></path>
    </g>
</svg>