<?xml version="1.0" encoding="UTF-8"?>
<svg width="33px" height="31px" viewBox="0 0 33 31" version="1.1" xmlns="http://www.w3.org/2000/svg" xmlns:xlink="http://www.w3.org/1999/xlink">
    <title>jobs</title>
    <g id="jobs" stroke="none" stroke-width="1" fill="none" fill-rule="evenodd">
        <g transform="translate(1.000000, 2.000000)" fill-rule="nonzero">
            <path d="M19.4482761,4.70428299e-13 L11.4827587,4.70428299e-13 C9.76877157,4.70428299e-13 8.37931043,1.38946114 8.37931043,3.10344831 L8.37931043,7.43793111 L22.5517244,7.43793111 L22.5517244,3.10344831 C22.5517244,1.38946114 21.1622632,4.70428299e-13 19.4482761,4.70428299e-13 Z M19.4482761,2.06896554 L19.5689186,2.07592526 C20.0834069,2.13568227 20.4827588,2.57292847 20.4827588,3.10344831 L20.4817243,5.36896557 L10.4472415,5.36896557 L10.448276,3.10344831 C10.448276,2.53211925 10.9114297,2.06896554 11.4827587,2.06896554 L19.4482761,2.06896554 Z" id="Rectangle" fill="#0057A8"></path>
            <path d="M25.8620692,5.37135284 L4.13793108,5.37135284 C1.85261485,5.37135284 0,7.22396769 0,9.50928392 L0,21.7798411 C0,24.0651573 1.85261485,25.9177721 4.13793108,25.9177721 L25.8620692,25.9177721 C28.1473855,25.9177721 30,24.0651573 30,21.7798411 L30,9.50928392 C30,7.22396769 28.1473855,5.37135284 25.8620692,5.37135284 Z M4.13793108,7.44031838 L25.8620692,7.44031838 C27.0047273,7.44031838 27.9310348,8.3666258 27.9310348,9.50928392 L27.9310348,21.7798411 C27.9310348,22.9224992 27.0047273,23.8488066 25.8620692,23.8488066 L4.13793108,23.8488066 C2.99527296,23.8488066 2.06896554,22.9224992 2.06896554,21.7798411 L2.06896554,9.50928392 C2.06896554,8.3666258 2.99527296,7.44031838 4.13793108,7.44031838 Z" id="Rectangle" fill="#0057A8"></path>
            <polygon id="Line" fill="#0057A8" points="28.2413796 14.8050399 28.2413796 15.9305811 1.3448276 15.9305811 1.3448276 14.8050399"></polygon>
            <circle id="Oval" fill="#E01F27" cx="14.7672415" cy="15.5550399" r="3.49137935"></circle>
        </g>
    </g>
</svg>