<?xml version="1.0" encoding="UTF-8"?>
<svg width="135px" height="74px" viewBox="0 0 135 74" version="1.1" xmlns="http://www.w3.org/2000/svg" xmlns:xlink="http://www.w3.org/1999/xlink">
    <title>Legal Compliances</title>
    <g id="Page-1" stroke="none" stroke-width="1" fill="none" fill-rule="evenodd">
        <g id="Glocal-CSR-Test-Q1" transform="translate(-609.000000, -246.000000)">
            <g id="Group-6" transform="translate(435.000000, 193.000000)">
                <g id="Group-8" transform="translate(151.000000, 54.000000)">
                    <g id="Legal-Compliances" transform="translate(24.000000, 0.000000)">
                        <path d="M30.2628182,46.3228383 C28.4908346,46.3228383 27.0556082,44.8876118 27.0556082,43.1156283 C27.0556082,41.3436448 28.4908346,39.9084183 30.2628182,39.9084183 C32.0348017,39.9084183 33.4700282,41.3436448 33.4700282,43.1156283 C33.4700282,44.8876118 32.0267837,46.3228383 30.2628182,46.3228383 Z M30.2628182,41.5120233 C29.3808354,41.5120233 28.6592132,42.2336455 28.6592132,43.1156283 C28.6592132,43.997611 29.3808354,44.7192333 30.2628182,44.7192333 C31.1448009,44.7192333 31.8664232,43.997611 31.8664232,43.1156283 C31.8664232,42.2336455 31.1448009,41.5120233 30.2628182,41.5120233 Z" id="Shape" fill="#000000" fill-rule="nonzero"></path>
                        <ellipse id="Oval" fill="#E6ECF2" cx="74" cy="67" rx="60" ry="6"></ellipse>
                        <path d="M18.8181818,4.09090909 C21.2401301,4.09090909 23.2777943,5.85316186 23.6781299,8.199189 C25.5426165,8.38009391 27,9.95167023 27,11.8636364 C27,13.8970485 25.351594,15.5454545 23.3181818,15.5454545 L20.8636364,15.5454545 C20.6377016,15.5454545 20.4545455,15.3622984 20.4545455,15.1363636 C20.4545455,14.9104289 20.6377016,14.7272727 20.8636364,14.7272727 L23.3181818,14.7272727 C24.8997244,14.7272727 26.1818182,13.445179 26.1818182,11.8636364 C26.1818182,10.2820938 24.8997244,9 23.3181818,9 C23.1077164,9 22.9315938,8.84031014 22.9110455,8.63084986 C22.7048065,6.52856073 20.9370048,4.90909091 18.8181818,4.90909091 C18.436183,4.90909091 18.0615588,4.96134123 17.701533,5.06324086 C17.4964594,5.1212835 17.2811802,5.01215318 17.2067727,4.81243418 C16.3193645,2.43052077 14.0388517,0.818181818 11.4545455,0.818181818 C8.63689623,0.818181818 6.20108959,2.73346855 5.51047827,5.42404882 C5.4655875,5.59894091 5.31134673,5.72371855 5.130936,5.73109118 C2.72567741,5.82938509 0.818181818,7.81167559 0.818181818,10.2272727 C0.818181818,12.712554 2.83290055,14.7272727 5.31818182,14.7272727 L6.13636364,14.7272727 C6.36229841,14.7272727 6.54545455,14.9104289 6.54545455,15.1363636 C6.54545455,15.3622984 6.36229841,15.5454545 6.13636364,15.5454545 L5.31818182,15.5454545 C2.381031,15.5454545 0,13.1644235 0,10.2272727 C0,7.47336191 2.09752936,5.19616677 4.79806486,4.93420541 C5.67576041,2.03540523 8.36203336,0 11.4545455,0 C14.259411,0 16.7484506,1.67588468 17.8374604,4.18896532 C18.157804,4.12398368 18.4859018,4.09090909 18.8181818,4.09090909 Z" id="Path" stroke="#C1D0DD" stroke-width="0.5" fill="#C3D0DC"></path>
                        <g id="Group-14" transform="translate(109.632343, 5.698019)" fill="#000000" fill-rule="nonzero">
                            <path d="M6.02086967,6.73450762 C5.8334496,6.73450762 5.653238,6.66242297 5.50906871,6.52546216 L0.210847576,1.22724102 C-0.0702825253,0.946110917 -0.0702825253,0.491977677 0.210847576,0.210847576 C0.491977677,-0.0702825253 0.946110917,-0.0702825253 1.22724102,0.210847576 L6.52546216,5.50906871 C6.80659226,5.79019881 6.80659226,6.24433205 6.52546216,6.52546216 C6.38850134,6.66242297 6.20828973,6.73450762 6.02086967,6.73450762 Z" id="Path"></path>
                            <path d="M0.722648529,6.73450762 C0.535228462,6.73450762 0.355016859,6.66242297 0.210847576,6.52546216 C-0.0702825253,6.24433205 -0.0702825253,5.79019881 0.210847576,5.50906871 L5.50906871,0.210847576 C5.79019881,-0.0702825253 6.24433205,-0.0702825253 6.52546216,0.210847576 C6.80659226,0.491977677 6.80659226,0.946110917 6.52546216,1.22724102 L1.22724102,6.52546216 C1.0902802,6.66242297 0.910068597,6.73450762 0.722648529,6.73450762 Z" id="Path"></path>
                        </g>
                        <g id="Group-3" transform="translate(49.790698, 15.000000)" fill-rule="nonzero">
                            <path d="M43.2389006,27.5433404 L43.2389006,49.5866808 C43.2389006,50.2770367 42.9590786,50.9020367 42.5066676,51.3544477 C42.0542566,51.8068587 41.4292566,52.0866808 40.7389006,52.0866808 L40.7389006,52.0866808 L33.5824524,52.0866808 C32.8920965,52.0866808 32.2670965,51.8068587 31.8146855,51.3544477 C31.3622745,50.9020367 31.0824524,50.2770367 31.0824524,49.5866808 L31.0824524,49.5866808 L31.0824524,30.0433404 C31.0824524,29.3529844 31.3622745,28.7279844 31.8146855,28.2755734 C32.2670965,27.8231624 32.8920965,27.5433404 33.5824524,27.5433404 L33.5824524,27.5433404 L43.2389006,27.5433404 Z" id="Rectangle" stroke="#0057A8" stroke-width="2" fill="#FFFFFF"></path>
                            <path d="M21.1351348,1 C21.4235646,1 21.6865787,1.14509242 21.8920765,1.37177625 L21.9765319,1.47373672 L23.935,4.064 L23.935518,12.2541755 L23.9430449,12.5063309 C23.9878428,13.2543311 24.2293239,13.9228298 24.5791573,14.4225919 C25.0748309,15.130697 25.7770827,15.5103594 26.5148467,15.5103594 L26.5148467,15.5103594 L32.59,15.51 L34.0184487,17.3998574 C34.2269738,17.6755601 34.3509078,18.0228584 34.382844,18.3893648 L34.3911114,18.5739762 L33.9211679,52.0817856 L29.737389,52.0866808 L5.65151956,52.0866808 C4.38476733,52.0866808 3.24693629,51.4649216 2.41870882,50.4924432 C1.59181562,49.5215314 1.06843512,48.2020759 1.00624261,46.7442035 L1,46.4508457 L1,6.6358351 C1,5.06208135 1.53668941,3.62987679 2.41870882,2.59423756 C3.19517207,1.68253903 4.24374784,1.07908989 5.41555842,1.00722007 L5.65151956,1 L21.1351348,1 Z" id="sessions" stroke="#0057A8" stroke-width="2" fill="#FFFFFF"></path>
                            <path d="M10.53853,30.103945 C9.86867783,30.103945 9.32061696,30.6520059 9.32061696,31.3218581 C9.32061696,31.9917102 9.86867783,32.5397711 10.53853,32.5397711 L19.7946692,32.5397711 C20.4645214,32.5397711 21.0125823,31.9917102 21.0125823,31.3218581 C21.0125823,30.6520059 20.4645214,30.103945 19.7946692,30.103945 L10.53853,30.103945 Z" id="Path" fill="#E01F27"></path>
                            <path d="M10.53853,36.4370929 C9.86867783,36.4370929 9.32061696,36.9851538 9.32061696,37.6550059 C9.32061696,38.3248581 9.86867783,38.872919 10.53853,38.872919 L24.7307992,38.872919 C25.4006514,38.872919 25.9487122,38.3248581 25.9487122,37.6550059 C25.9487122,36.9851538 25.4006514,36.4370929 24.7307992,36.4370929 L10.53853,36.4370929 Z" id="Path" fill="#E01F27"></path>
                        </g>
                    </g>
                </g>
            </g>
        </g>
    </g>
</svg>