<?xml version="1.0" encoding="UTF-8"?>
<svg width="10px" height="13px" viewBox="0 0 10 13" version="1.1" xmlns="http://www.w3.org/2000/svg" xmlns:xlink="http://www.w3.org/1999/xlink">
    <title>loaction-kyc</title>
    <g id="Page-1" stroke="none" stroke-width="1" fill="none" fill-rule="evenodd">
        <g id="Glocal-CreateJob" transform="translate(-103.000000, -1689.000000)" fill="#0057A8">
            <g id="Group-8" transform="translate(83.000000, 1187.000000)">
                <g id="loaction-kyc" transform="translate(20.000000, 501.000000)">
                    <path d="M5,8.14285714 C3.81653275,8.14285714 2.85714286,7.18346759 2.85714286,6 C2.85714286,4.81653275 3.81653275,3.85714286 5,3.85714286 C6.18346759,3.85714286 7.14285714,4.81653275 7.14285714,6 C7.14285714,7.18346759 6.18346759,8.14285714 5,8.14285714 Z M0,6 C0,8.5 1.66666667,11.1190476 5,13.8571429 C8.33333333,11.1190476 10,8.5 10,6 C10,3.23571437 7.76428563,1 5,1 C2.23571437,1 0,3.23571437 0,6 C0,8.5 0,8.5 0,6 Z M1.42857143,6 C1.42857143,4.02469254 3.02469254,2.42857134 5,2.42857134 C6.97530746,2.42857134 8.57142857,4.02469254 8.57142857,6 C8.57142857,7.32906846 7.63164861,8.94973033 6.40388353,10.418664 C5.90813637,11.0117901 5.40945428,11.5287341 5,11.9267112 C4.59054368,11.5287341 4.09186397,11.0117901 3.59611682,10.418664 C2.36835105,8.94973033 1.42857143,7.32906846 1.42857143,6 C1.42857143,4.68312836 1.42857143,4.68312836 1.42857143,6 Z"></path>
                </g>
            </g>
        </g>
    </g>
</svg>