<?xml version="1.0" encoding="UTF-8"?>
<svg width="10px" height="13px" viewBox="0 0 10 13" version="1.1" xmlns="http://www.w3.org/2000/svg" xmlns:xlink="http://www.w3.org/1999/xlink">
    <title>39D9F2DF-9D9D-494C-8F94-9A087E7C5482</title>
    <defs>
        <path d="M5,6.6246875 C4.483125,6.6246875 4.0625,6.2040625 4.0625,5.6871875 C4.0625,5.1703125 4.483125,4.7496875 5,4.7496875 C5.516875,4.7496875 5.9375,5.1703125 5.9375,5.6871875 C5.9375,6.2040625 5.516875,6.6246875 5,6.6246875 M5,3.4996875 C3.79375,3.4996875 2.8125,4.4809375 2.8125,5.6871875 C2.8125,6.8934375 3.79375,7.8746875 5,7.8746875 C6.20625,7.8746875 7.1875,6.8934375 7.1875,5.6871875 C7.1875,4.4809375 6.20625,3.4996875 5,3.4996875 M5,12.02875 C3.953125,11.03875 1.25,8.259375 1.25,5.95125 C1.25,3.910625 2.931875,2.25 5,2.25 C7.068125,2.25 8.75,3.910625 8.75,5.95125 C8.75,8.259375 6.046875,11.03875 5,12.02875 M5,1 C2.243125,1 0,3.220625 0,5.95125 C0,9.373125 4.405625,13.188125 4.593125,13.34875 C4.710625,13.449375 4.855,13.5 5,13.5 C5.145,13.5 5.289375,13.449375 5.406875,13.34875 C5.594375,13.188125 10,9.373125 10,5.95125 C10,3.220625 7.756875,1 5,1" id="path-1"></path>
    </defs>
    <g id="Page-1" stroke="none" stroke-width="1" fill="none" fill-rule="evenodd">
        <g id="Glocal-CreateJob" transform="translate(-317.000000, -299.000000)">
            <g id="Group-9" transform="translate(83.000000, 200.000000)">
                <g id="Group-19" transform="translate(92.000000, 98.000000)">
                    <g id="Group-8" transform="translate(142.000000, 0.000000)">
                        <mask id="mask-2" fill="white">
                            <use xlink:href="#path-1"></use>
                        </mask>
                        <use id="loc" fill="#8392B3" fill-rule="nonzero" xlink:href="#path-1"></use>
                    </g>
                </g>
            </g>
        </g>
    </g>
</svg>