<?xml version="1.0" encoding="UTF-8"?>
<svg width="48px" height="48px" viewBox="0 0 48 48" version="1.1" xmlns="http://www.w3.org/2000/svg" xmlns:xlink="http://www.w3.org/1999/xlink">
    <title>locked</title>
    <defs>
        <path d="M15.5,18.375 C15.0515,18.375 14.6875,18.011 14.6875,17.5625 C14.6875,17.114 15.0515,16.75 15.5,16.75 C15.9485,16.75 16.3125,17.114 16.3125,17.5625 C16.3125,18.011 15.9485,18.375 15.5,18.375 M15.5,15.125 C14.156125,15.125 13.0625,16.218625 13.0625,17.5625 C13.0625,18.906375 14.156125,20 15.5,20 C16.843875,20 17.9375,18.906375 17.9375,17.5625 C17.9375,16.218625 16.843875,15.125 15.5,15.125 M20.375,20.8125 C20.375,21.261 20.011,21.625 19.5625,21.625 L11.4375,21.625 C10.989,21.625 10.625,21.261 10.625,20.8125 L10.625,14.3125 C10.625,13.864 10.989,13.5 11.4375,13.5 L12.25,13.5 L13.875,13.5 L17.125,13.5 L18.75,13.5 L19.5625,13.5 C20.011,13.5 20.375,13.864 20.375,14.3125 L20.375,20.8125 Z M13.875,10.3401875 C13.875,9.3944375 14.6038125,8.625 15.5,8.625 C16.3961875,8.625 17.125,9.3944375 17.125,10.3401875 L17.125,11.875 L13.875,11.875 L13.875,10.3401875 Z M19.5625,11.875 L18.75,11.875 L18.75,10.3401875 C18.75,8.4990625 17.292375,7 15.5,7 C13.707625,7 12.25,8.4990625 12.25,10.3401875 L12.25,11.875 L11.4375,11.875 C10.093625,11.875 9,12.968625 9,14.3125 L9,20.8125 C9,22.156375 10.093625,23.25 11.4375,23.25 L19.5625,23.25 C20.906375,23.25 22,22.156375 22,20.8125 L22,14.3125 C22,12.968625 20.906375,11.875 19.5625,11.875 L19.5625,11.875 Z" id="path-1"></path>
    </defs>
    <g id="locked" stroke="none" stroke-width="1" fill="none" fill-rule="evenodd">
        <g transform="translate(9.000000, 9.000000)">
            <path d="M7,0 L23,0 C26.8659932,-7.10171439e-16 30,3.13400675 30,7 L30,23 C30,26.8659932 26.8659932,30 23,30 L7,30 C3.13400675,30 4.73447626e-16,26.8659932 0,23 L0,7 C-4.73447626e-16,3.13400675 3.13400675,7.10171439e-16 7,0 Z" id="Rectangle" fill="#E1F0F7"></path>
            <mask id="mask-2" fill="white">
                <use xlink:href="#path-1"></use>
            </mask>
            <use id="🎨-Icon-Сolor" fill="#0057A8" fill-rule="nonzero" xlink:href="#path-1"></use>
        </g>
    </g>
</svg>