<?xml version="1.0" encoding="UTF-8"?>
<svg width="48px" height="46px" viewBox="0 0 48 46" version="1.1" xmlns="http://www.w3.org/2000/svg" xmlns:xlink="http://www.w3.org/1999/xlink">
    <title>logout</title>
    <defs>
        <path d="M10.51975,8.372345 C10.8376,8.207895 11.2302,8.332045 11.3953,8.651845 C11.5604,8.970345 11.43495,9.362295 11.11645,9.527395 C9.379,10.425045 8.3,12.196295 8.3,14.150195 C8.3,17.017345 10.63285,19.350195 13.5,19.350195 C16.36715,19.350195 18.7,17.017345 18.7,14.150195 C18.7,12.196295 17.621,10.425045 15.8842,9.527395 C15.56505,9.362295 15.44025,8.970345 15.60535,8.651845 C15.7698,8.332695 16.1624,8.208545 16.4809,8.372345 C18.65125,9.494895 20,11.708145 20,14.150195 C20,17.733645 17.0841,20.650195 13.5,20.650195 C9.9159,20.650195 7,17.733645 7,14.150195 C7,11.708145 8.34875,9.494895 10.51975,8.372345 Z M13.500065,7 C13.858865,7 14.150065,7.29055 14.150065,7.65 L14.150065,7.65 L14.150065,14.15 C14.150065,14.50945 13.858865,14.8 13.500065,14.8 C13.141265,14.8 12.850065,14.50945 12.850065,14.15 L12.850065,14.15 L12.850065,7.65 C12.850065,7.29055 13.141265,7 13.500065,7 Z" id="path-1"></path>
    </defs>
    <g id="logout" stroke="none" stroke-width="1" fill="none" fill-rule="evenodd">
        <g transform="translate(11.000000, 10.000000)">
            <path d="M7,0 L20,0 C23.8659932,-1.59834986e-15 27,3.13400675 27,7 L27,20 C27,23.8659932 23.8659932,27 20,27 L7,27 C3.13400675,27 -4.14730794e-16,23.8659932 0,20 L0,7 C-1.36162605e-15,3.13400675 3.13400675,-1.78006981e-16 7,0 Z" id="Rectangle" fill="#FDD8D8"></path>
            <mask id="mask-2" fill="white">
                <use xlink:href="#path-1"></use>
            </mask>
            <use id="🎨-Icon-Сolor" fill="#E01F27" fill-rule="nonzero" xlink:href="#path-1"></use>
        </g>
    </g>
</svg>