<?xml version="1.0" encoding="UTF-8"?>
<svg width="76px" height="64px" viewBox="0 0 76 64" version="1.1" xmlns="http://www.w3.org/2000/svg" xmlns:xlink="http://www.w3.org/1999/xlink">
    <title>success-icon</title>
    <g id="Page-1" stroke="none" stroke-width="1" fill="none" fill-rule="evenodd">
        <g id="Post-Job-linksent" transform="translate(-142.000000, -337.000000)">
            <g id="Group-4" transform="translate(51.000000, 337.000000)">
                <g id="success-icon" transform="translate(91.000000, 0.000000)">
                    <g id="Group-10" transform="translate(0.305558, 0.969475)">
                        <path d="M2.49140465,48.0032388 C1.11490358,48.0032388 0,46.8883352 0,45.5118342 C0,44.1353331 1.11490358,43.0204295 2.49140465,43.0204295 C3.86790573,43.0204295 4.98280931,44.1353331 4.98280931,45.5118342 C4.98280931,46.8883352 3.86167721,48.0032388 2.49140465,48.0032388 Z M2.49140465,44.2661318 C1.80626837,44.2661318 1.24570233,44.8266979 1.24570233,45.5118342 C1.24570233,46.1969705 1.80626837,46.7575365 2.49140465,46.7575365 C3.17654093,46.7575365 3.73710698,46.1969705 3.73710698,45.5118342 C3.73710698,44.8266979 3.17654093,44.2661318 2.49140465,44.2661318 Z" id="Shape" fill="#000000" fill-rule="nonzero"></path>
                        <g id="Group-8" transform="translate(39.511940, 31.472983) rotate(35.000000) translate(-39.511940, -31.472983) translate(23.511940, 4.972983)" stroke-width="2">
                            <path d="M17.8683581,4.89170134 L30.1506867,37.0490706 C30.5448021,38.0809363 30.0278033,39.2369224 28.9959376,39.6310378 C28.4687115,39.8324089 27.8809466,39.8016525 27.377617,39.5463548 L15.9409091,33.7454545 L15.9409091,33.7454545 L4.63595922,39.5220357 C3.6523592,40.0246337 2.44755764,39.6347046 1.94495962,38.6511045 C1.68721333,38.146687 1.6554535,37.5566308 1.85756686,37.0274613 L14.1316419,4.89170134 C14.5257572,3.85983562 15.6817433,3.34283683 16.713609,3.7369522 C17.2452979,3.94002782 17.6652825,4.36001243 17.8683581,4.89170134 Z" id="Triangle" stroke="#0057A8" fill="#FFFFFF"></path>
                            <line x1="16" y1="34.0363636" x2="16.0824252" y2="4.47733628" id="Line" stroke="#0057A8" stroke-linecap="square"></line>
                            <line x1="10.7636364" y1="41.6" x2="10.7636364" y2="48.5818182" id="Line-5" stroke="#E01F27" stroke-linecap="round"></line>
                            <line x1="22.4" y1="41.6" x2="22.4" y2="48.5818182" id="Line-5" stroke="#E01F27" stroke-linecap="round"></line>
                            <line x1="16.5818182" y1="45.0909091" x2="16.5818182" y2="52.0727273" id="Line-5" stroke="#E01F27" stroke-linecap="round"></line>
                        </g>
                        <path d="M73.8695251,8.81898699 C73.7075838,8.81898699 73.551871,8.75670188 73.4273008,8.63836016 L68.8493448,4.06040411 C68.6064328,3.81749215 68.6064328,3.42509592 68.8493448,3.18218397 C69.0922567,2.93927201 69.4846529,2.93927201 69.7275649,3.18218397 L74.305521,7.76014002 C74.5484329,8.00305197 74.5484329,8.3954482 74.305521,8.63836016 C74.1871792,8.75670188 74.0314664,8.81898699 73.8695251,8.81898699 Z" id="Path" fill="#000000" fill-rule="nonzero"></path>
                        <path d="M69.2915691,8.81898699 C69.1296278,8.81898699 68.973915,8.75670188 68.8493448,8.63836016 C68.6064328,8.3954482 68.6064328,8.00305197 68.8493448,7.76014002 L73.4273008,3.18218397 C73.6702128,2.93927201 74.062609,2.93927201 74.305521,3.18218397 C74.5484329,3.42509592 74.5484329,3.81749215 74.305521,4.06040411 L69.7275649,8.63836016 C69.6092232,8.75670188 69.4535104,8.81898699 69.2915691,8.81898699 Z" id="Path" fill="#000000" fill-rule="nonzero"></path>
                    </g>
                </g>
            </g>
        </g>
    </g>
</svg>