<?xml version="1.0" encoding="UTF-8"?>
<svg width="48px" height="48px" viewBox="0 0 48 48" version="1.1" xmlns="http://www.w3.org/2000/svg" xmlns:xlink="http://www.w3.org/1999/xlink">
    <title>menu-drawer</title>
    <defs>
        <path d="M37.5757778,30.2160494 C38.3594043,30.2160494 39,30.8566451 39,31.6402716 L39,31.6402716 L39,31.835037 C39,32.6186636 38.3594043,33.2592593 37.5757778,33.2592593 L37.5757778,33.2592593 L19.1202315,33.2592593 C18.3366049,33.2592593 17.6975309,32.6186636 17.6975309,31.835037 L17.6975309,31.835037 L17.6975309,31.6402716 C17.6975309,30.8566451 18.3366049,30.2160494 19.1202315,30.2160494 L19.1202315,30.2160494 Z M37.5757778,22.6080247 C38.3594043,22.6080247 39,23.2486204 39,24.0322469 L39,24.0322469 L39,24.2270123 C39,25.0106389 38.3594043,25.6512346 37.5757778,25.6512346 L37.5757778,25.6512346 L11.4227006,25.6512346 C10.6390741,25.6512346 10,25.0106389 10,24.2270123 L10,24.2270123 L10,24.0322469 C10,23.2486204 10.6390741,22.6080247 11.4227006,22.6080247 L11.4227006,22.6080247 Z M37.5757778,15 C38.3594043,15 39,15.6405957 39,16.4242222 L39,16.4242222 L39,16.6189877 C39,17.4026142 38.3594043,18.0432099 37.5757778,18.0432099 L37.5757778,18.0432099 L19.1202315,18.0432099 C18.3366049,18.0432099 17.6975309,17.4026142 17.6975309,16.6189877 L17.6975309,16.6189877 L17.6975309,16.4242222 C17.6975309,15.6405957 18.3366049,15 19.1202315,15 L19.1202315,15 Z" id="path-1"></path>
    </defs>
    <g id="menu-drawer" stroke="none" stroke-width="1" fill="none" fill-rule="evenodd">
        <mask id="mask-2" fill="white">
            <use xlink:href="#path-1"></use>
        </mask>
        <use fill="#0057A8" fill-rule="nonzero" transform="translate(24.500000, 24.129630) scale(-1, -1) translate(-24.500000, -24.129630) " xlink:href="#path-1"></use>
    </g>
</svg>