<?xml version="1.0" encoding="UTF-8"?>
<svg width="48px" height="46px" viewBox="0 0 48 46" version="1.1" xmlns="http://www.w3.org/2000/svg" xmlns:xlink="http://www.w3.org/1999/xlink">
    <title>My-kyc</title>
    <g id="My-kyc" stroke="none" stroke-width="1" fill="none" fill-rule="evenodd">
        <g transform="translate(11.000000, 10.000000)">
            <path d="M7,0 L20,0 C23.8659932,-1.59834986e-15 27,3.13400675 27,7 L27,20 C27,23.8659932 23.8659932,27 20,27 L7,27 C3.13400675,27 -4.14730794e-16,23.8659932 0,20 L0,7 C-1.36162605e-15,3.13400675 3.13400675,-1.78006981e-16 7,0 Z" id="Rectangle" fill="#EFF5FA"></path>
            <path d="M11.7894834,13.8421191 C9.14910962,13.8421191 7,15.9905445 7,18.6316025 C7,19.0092875 7.30584273,19.3158144 7.68421191,19.3158144 C8.0625811,19.3158144 8.36842383,19.0092875 8.36842383,18.6316025 C8.36842383,16.7452303 9.90311115,15.210543 11.7894834,15.210543 C13.6758556,15.210543 15.210543,16.7452303 15.210543,18.6316025 C15.210543,19.0092875 15.5163857,19.3158144 15.8947549,19.3158144 C16.2731241,19.3158144 16.5789668,19.0092875 16.5789668,18.6316025 C16.5789668,15.9905445 14.4298572,13.8421191 11.7894834,13.8421191 M10.4210596,9.73684765 C10.4210596,10.4915334 11.0347977,11.1052715 11.7894834,11.1052715 C12.5441691,11.1052715 13.1579072,10.4915334 13.1579072,9.73684765 C13.1579072,8.98216191 12.5441691,8.36842383 11.7894834,8.36842383 C11.0347977,8.36842383 10.4210596,8.98216191 10.4210596,9.73684765 M21.3394999,9.205921 C21.5598682,8.95588776 21.9418802,8.92924984 22.1937297,9.14961811 C22.4449738,9.36938098 22.4704009,9.75199843 22.2500326,10.0038479 L22.2500326,10.0038479 L18.8770471,13.9822407 C18.7668629,14.1081655 18.609457,14.1826306 18.4417592,14.1886847 L18.4417592,14.1886847 L18.4217808,14.1886847 C18.2613478,14.1886847 18.1075743,14.1251169 17.9937578,14.0113003 L17.9937578,14.0113003 L16.1775357,12.1950782 C15.9408214,11.958364 15.9408214,11.5757465 16.1775357,11.3390323 C16.41425,11.102318 16.7968674,11.102318 17.0335817,11.3390323 L17.0335817,11.3390323 L18.3921158,12.6975663 Z M11.7894834,7 C13.2988549,7 14.526331,8.22747617 14.526331,9.73684765 C14.526331,11.2462191 13.2988549,12.4736953 11.7894834,12.4736953 C10.2801119,12.4736953 9.05263574,11.2462191 9.05263574,9.73684765 C9.05263574,8.22747617 10.2801119,7 11.7894834,7 Z" id="🎨-Icon-Сolor" fill="#7D91A4" fill-rule="nonzero"></path>
        </g>
    </g>
</svg>