<?xml version="1.0" encoding="UTF-8"?>
<svg width="64px" height="41px" viewBox="0 0 64 41" version="1.1" xmlns="http://www.w3.org/2000/svg" xmlns:xlink="http://www.w3.org/1999/xlink">
    <title>network</title>
    <g id="Page-1" stroke="none" stroke-width="1" fill="none" fill-rule="evenodd">
        <g id="Course-details" transform="translate(-264.000000, -464.000000)">
            <g id="Group-16" transform="translate(0.000000, 124.000000)">
                <g id="Group-10" transform="translate(15.000000, 289.000000)">
                    <g id="Group-6" transform="translate(228.000000, 35.000000)">
                        <g id="network" transform="translate(22.000000, 17.000000)">
                            <path d="M11.0114754,14.6276347 C10.0798595,14.6276347 9.32529274,13.8730679 9.32529274,12.941452 C9.32529274,12.0098361 10.0798595,11.2552693 11.0114754,11.2552693 C11.9430913,11.2552693 12.6976581,12.0098361 12.6976581,12.941452 C12.6976581,13.8730679 11.9388759,14.6276347 11.0114754,14.6276347 Z M11.0114754,12.0983607 C10.5477752,12.0983607 10.1683841,12.4777518 10.1683841,12.941452 C10.1683841,13.4051522 10.5477752,13.7845433 11.0114754,13.7845433 C11.4751756,13.7845433 11.8545667,13.4051522 11.8545667,12.941452 C11.8545667,12.4777518 11.4751756,12.0983607 11.0114754,12.0983607 Z" id="Shape" fill="#000000" fill-rule="nonzero"></path>
                            <path d="M50.8601874,4.18173302 C50.7505855,4.18173302 50.6451991,4.13957845 50.5608899,4.05948478 L47.4625293,0.961124122 C47.2981265,0.796721311 47.2981265,0.531147541 47.4625293,0.366744731 C47.6269321,0.20234192 47.8925059,0.20234192 48.0569087,0.366744731 L51.1552693,3.46510539 C51.3196721,3.6295082 51.3196721,3.89508197 51.1552693,4.05948478 C51.0751756,4.13957845 50.9697892,4.18173302 50.8601874,4.18173302 Z" id="Path" fill="#000000" fill-rule="nonzero"></path>
                            <path d="M47.7618267,4.18173302 C47.6522248,4.18173302 47.5468384,4.13957845 47.4625293,4.05948478 C47.2981265,3.89508197 47.2981265,3.6295082 47.4625293,3.46510539 L50.5608899,0.366744731 C50.7252927,0.20234192 50.9908665,0.20234192 51.1552693,0.366744731 C51.3196721,0.531147541 51.3196721,0.796721311 51.1552693,0.961124122 L48.0569087,4.05948478 C47.976815,4.13957845 47.8714286,4.18173302 47.7618267,4.18173302 Z" id="Path" fill="#000000" fill-rule="nonzero"></path>
                            <line x1="30.45" y1="25.65" x2="30.45" y2="32.85" id="Line-4" stroke="#2E3A44" stroke-width="2" stroke-linecap="round"></line>
                            <line x1="30.0283049" y1="33.0556919" x2="22.5716951" y2="35.1443081" id="Line-4" stroke="#2E3A44" stroke-width="2" stroke-linecap="round"></line>
                            <line x1="38.0283049" y1="33.0556919" x2="30.5716951" y2="35.1443081" id="Line-4" stroke="#2E3A44" stroke-width="2" stroke-linecap="round" transform="translate(34.300000, 34.100000) scale(1, -1) translate(-34.300000, -34.100000) "></line>
                            <path d="M31.3499986,15.075 C29.0499662,15.075 27.0552586,16.3822477 26.0683285,18.2942835 C27.6592898,19.0852376 29.4527041,19.53 31.35,19.53 C33.2472945,19.53 35.0407088,19.0852376 36.6316694,18.2942835 C35.6447393,16.3822463 33.650031,15.075 31.3499986,15.075 Z" id="user-/-user_circle" fill="#E01F27" fill-rule="nonzero"></path>
                            <circle id="Oval" stroke="#0057A8" stroke-width="2" fill-rule="nonzero" cx="30.9" cy="9.9" r="9.9"></circle>
                            <circle id="Oval" fill="#E01F27" fill-rule="nonzero" cx="31.35" cy="9.45" r="3.15"></circle>
                            <g id="Group-11" transform="translate(0.000000, 22.000000)" fill-rule="nonzero">
                                <path d="M8.46818066,12.3340909 C6.58633595,12.3340909 4.95430251,13.4036572 4.14681421,14.9680501 C5.4485098,15.6151944 6.9158488,15.9790909 8.46818182,15.9790909 C10.0205137,15.9790909 11.4878527,15.6151944 12.7895477,14.9680501 C11.9820594,13.403656 10.3500254,12.3340909 8.46818066,12.3340909 Z" id="user-/-user_circle" fill="#E01F27"></path>
                                <circle id="Oval" stroke="#0057A8" stroke-width="2" cx="8.1" cy="8.1" r="8.1"></circle>
                                <circle id="Oval" fill="#E01F27" cx="8.46818182" cy="7.73181818" r="2.57727273"></circle>
                            </g>
                            <g id="Group-11" transform="translate(45.800000, 22.000000)" fill-rule="nonzero">
                                <path d="M8.46818066,12.3340909 C6.58633595,12.3340909 4.95430251,13.4036572 4.14681421,14.9680501 C5.4485098,15.6151944 6.9158488,15.9790909 8.46818182,15.9790909 C10.0205137,15.9790909 11.4878527,15.6151944 12.7895477,14.9680501 C11.9820594,13.403656 10.3500254,12.3340909 8.46818066,12.3340909 Z" id="user-/-user_circle" fill="#E01F27"></path>
                                <circle id="Oval" stroke="#0057A8" stroke-width="2" cx="8.1" cy="8.1" r="8.1"></circle>
                                <circle id="Oval" fill="#E01F27" cx="8.46818182" cy="7.73181818" r="2.57727273"></circle>
                            </g>
                        </g>
                    </g>
                </g>
            </g>
        </g>
    </g>
</svg>