<?xml version="1.0" encoding="UTF-8"?>
<svg width="48px" height="46px" viewBox="0 0 48 46" version="1.1" xmlns="http://www.w3.org/2000/svg" xmlns:xlink="http://www.w3.org/1999/xlink">
    <title>no-img</title>
    <g id="no-img" stroke="none" stroke-width="1" fill="none" fill-rule="evenodd">
        <g transform="translate(10.000000, 10.000000)">
            <path d="M6.97893331,3.78460175 C5.75337771,3.78460175 4.75671109,4.78126837 4.75671109,6.00682398 L4.75671109,21.5623795 C4.75671109,22.7879358 5.75337771,23.7846018 6.97893331,23.7846018 L22.5344889,23.7846018 C23.7600451,23.7846018 24.7567111,22.7879358 24.7567111,21.5623795 L24.7567111,6.00682398 C24.7567111,4.78126837 23.7600451,3.78460175 22.5344889,3.78460175 L6.97893331,3.78460175 Z M6.97893331,6.00682398 L22.5344889,6.00682398 L22.536712,21.5623795 L6.97893331,21.5623795 L6.97893331,6.00682398 Z M11.4233778,14.8957129 L8.09004442,19.3401573 L21.4233778,19.3401573 L15.8678222,11.5623795 L12.5344889,16.006824 L11.4233778,14.8957129 Z M12.5344883,11.006824 C12.5344883,10.0863492 11.788297,9.34015731 10.8678222,9.34015731 C9.94734741,9.34015731 9.20115553,10.0863492 9.20115553,11.006824 C9.20115553,11.9272988 9.94734741,12.6734906 10.8678222,12.6734906 C11.788297,12.6734906 12.5344883,11.9272988 12.5344883,11.006824 Z" id="basic-/-image_alt" fill="#E01F27"></path>
            <line x1="-1.47437618e-13" y1="1" x2="26.5134222" y2="25.5692035" id="Line-6" stroke="#E01F27" stroke-width="3" stroke-linecap="round"></line>
            <line x1="2" y1="-2.94875235e-13" x2="28.5134222" y2="24.5692035" id="Line-6" stroke="#FFFFFF" stroke-width="3" stroke-linecap="round"></line>
        </g>
    </g>
</svg>