<?xml version="1.0" encoding="UTF-8"?>
<svg width="32px" height="33px" viewBox="0 0 32 33" version="1.1" xmlns="http://www.w3.org/2000/svg" xmlns:xlink="http://www.w3.org/1999/xlink">
    <title>notification</title>
    <g id="notification" stroke="none" stroke-width="1" fill="none" fill-rule="evenodd">
        <g id="Group-13" transform="translate(1.000000, 1.000000)">
            <path d="M7,0 L23,0 C26.8659932,-7.10171439e-16 30,3.13400675 30,7 L30,23 C30,26.8659932 26.8659932,30 23,30 L7,30 C3.13400675,30 4.73447626e-16,26.8659932 0,23 L0,7 C-4.73447626e-16,3.13400675 3.13400675,7.10171439e-16 7,0 Z" id="Rectangle" fill="#FFFFFF"></path>
            <g id="Group" transform="translate(10.000000, 9.000000)" fill="#0D1C2E" fill-rule="nonzero">
                <path d="M1.53712941,8.55474572 L2.25823115,7.83242177 C2.48922815,7.60142477 2.61633761,7.29465098 2.61633761,6.96832188 L2.61633761,4.11019235 C2.61633761,3.28092535 2.97688848,2.48832453 3.60632475,1.93710947 C4.24064984,1.38100559 5.04852823,1.13656432 5.8900173,1.24717399 C7.31205438,1.43600487 8.38454045,2.72176595 8.38454045,4.23852402 L8.38454045,6.96832188 C8.38454045,7.29465098 8.51164991,7.60142477 8.7420358,7.83181067 L9.46374865,8.55474572 L1.53712941,8.55474572 Z M6.72233982,9.98533824 C6.72233982,10.53472 6.16256931,10.9991584 5.50013348,10.9991584 C4.83769764,10.9991584 4.27792713,10.53472 4.27792713,9.98533824 L4.27792713,9.77695206 L6.72233982,9.77695206 L6.72233982,9.98533824 Z M10.7073436,8.07075201 L9.60674679,6.96832188 L9.60674679,4.23852402 C9.60674679,2.11127388 8.07776665,0.304241799 6.05012633,0.0359675067 C4.87558604,-0.120474905 3.69004588,0.238242656 2.80089077,1.0180103 C1.90623572,1.80144457 1.39413127,2.92831882 1.39413127,4.11019235 L1.39352016,6.96832188 L0.292923352,8.07075201 C0.00631596474,8.3579705 -0.0786273761,8.78513161 0.0765928295,9.15973786 C0.232424138,9.5349552 0.594808319,9.77695206 1.00058082,9.77695206 L3.05572079,9.77695206 L3.05572079,9.98533824 C3.05572079,11.2185444 4.15203988,12.2213647 5.50013348,12.2213647 C6.84822707,12.2213647 7.94454616,11.2185444 7.94454616,9.98533824 L7.94454616,9.77695206 L9.99968613,9.77695206 C10.4054586,9.77695206 10.7672317,9.5349552 10.9224519,9.16034896 C11.0782832,8.78513161 10.993951,8.35735939 10.7073436,8.07075201 L10.7073436,8.07075201 Z" id="notification"></path>
            </g>
        </g>
    </g>
</svg>