<?xml version="1.0" encoding="UTF-8"?>
<svg width="32px" height="33px" viewBox="0 0 32 33" version="1.1" xmlns="http://www.w3.org/2000/svg" xmlns:xlink="http://www.w3.org/1999/xlink">
    <title>notification-new</title>
    <g id="notification-new" stroke="none" stroke-width="1" fill="none" fill-rule="evenodd">
        <g id="Group-13" transform="translate(1.000000, 1.000000)">
            <path d="M7,0 L23,0 C26.8659932,-7.10171439e-16 30,3.13400675 30,7 L30,23 C30,26.8659932 26.8659932,30 23,30 L7,30 C3.13400675,30 4.73447626e-16,26.8659932 0,23 L0,7 C-4.73447626e-16,3.13400675 3.13400675,7.10171439e-16 7,0 Z" id="Rectangle" fill="#FFFFFF"></path>
            <g id="Group" transform="translate(10.000000, 6.000000)">
                <circle id="Oval" fill="#0057A8" cx="11" cy="2" r="2"></circle>
                <path d="M1.53712941,11.5547457 L2.25823115,10.8324218 C2.48922815,10.6014248 2.61633761,10.294651 2.61633761,9.96832188 L2.61633761,7.11019235 C2.61633761,6.28092535 2.97688848,5.48832453 3.60632475,4.93710947 C4.24064984,4.38100559 5.04852823,4.13656432 5.8900173,4.24717399 C7.31205438,4.43600487 8.38454045,5.72176595 8.38454045,7.23852402 L8.38454045,9.96832188 C8.38454045,10.294651 8.51164991,10.6014248 8.7420358,10.8318107 L9.46374865,11.5547457 L1.53712941,11.5547457 Z M6.72233982,12.9853382 C6.72233982,13.53472 6.16256931,13.9991584 5.50013348,13.9991584 C4.83769764,13.9991584 4.27792713,13.53472 4.27792713,12.9853382 L4.27792713,12.7769521 L6.72233982,12.7769521 L6.72233982,12.9853382 Z M10.7073436,11.070752 L9.60674679,9.96832188 L9.60674679,7.23852402 C9.60674679,5.11127388 8.07776665,3.3042418 6.05012633,3.03596751 C4.87558604,2.87952509 3.69004588,3.23824266 2.80089077,4.0180103 C1.90623572,4.80144457 1.39413127,5.92831882 1.39413127,7.11019235 L1.39352016,9.96832188 L0.292923352,11.070752 C0.00631596474,11.3579705 -0.0786273761,11.7851316 0.0765928295,12.1597379 C0.232424138,12.5349552 0.594808319,12.7769521 1.00058082,12.7769521 L3.05572079,12.7769521 L3.05572079,12.9853382 C3.05572079,14.2185444 4.15203988,15.2213647 5.50013348,15.2213647 C6.84822707,15.2213647 7.94454616,14.2185444 7.94454616,12.9853382 L7.94454616,12.7769521 L9.99968613,12.7769521 C10.4054586,12.7769521 10.7672317,12.5349552 10.9224519,12.160349 C11.0782832,11.7851316 10.993951,11.3573594 10.7073436,11.070752 L10.7073436,11.070752 Z" id="notification" fill="#0D1C2E" fill-rule="nonzero"></path>
            </g>
        </g>
    </g>
</svg>