<?xml version="1.0" encoding="UTF-8"?>
<svg width="136px" height="69px" viewBox="0 0 136 69" version="1.1" xmlns="http://www.w3.org/2000/svg" xmlns:xlink="http://www.w3.org/1999/xlink">
    <title>Office-Admin</title>
    <g id="Page-1" stroke="none" stroke-width="1" fill="none" fill-rule="evenodd">
        <g id="Glocal-CSR-Test-Q4" transform="translate(-608.000000, -251.000000)">
            <g id="Group-6" transform="translate(435.000000, 193.000000)">
                <g id="Group-8" transform="translate(137.000000, 58.000000)">
                    <g id="Office-Admin" transform="translate(36.000000, 0.000000)">
                        <path d="M32.2628182,42.3228383 C30.4908346,42.3228383 29.0556082,40.8876118 29.0556082,39.1156283 C29.0556082,37.3436448 30.4908346,35.9084183 32.2628182,35.9084183 C34.0348017,35.9084183 35.4700282,37.3436448 35.4700282,39.1156283 C35.4700282,40.8876118 34.0267837,42.3228383 32.2628182,42.3228383 Z M32.2628182,37.5120233 C31.3808354,37.5120233 30.6592132,38.2336455 30.6592132,39.1156283 C30.6592132,39.997611 31.3808354,40.7192333 32.2628182,40.7192333 C33.1448009,40.7192333 33.8664232,39.997611 33.8664232,39.1156283 C33.8664232,38.2336455 33.1448009,37.5120233 32.2628182,37.5120233 Z" id="Shape" fill="#000000" fill-rule="nonzero"></path>
                        <ellipse id="Oval" fill="#E6ECF2" cx="76" cy="63" rx="60" ry="6"></ellipse>
                        <g id="workshop" transform="translate(47.000000, 3.000000)">
                            <path d="M42.3448276,3.90282132 L6.65517241,3.90282132 C3.2271981,3.90282132 0.448275862,6.68174356 0.448275862,10.1097179 L0.448275862,34.8902821 C0.448275862,38.3182564 3.2271981,41.0971787 6.65517241,41.0971787 L42.3448276,41.0971787 C45.7728019,41.0971787 48.5517241,38.3182564 48.5517241,34.8902821 L48.5517241,10.1097179 C48.5517241,6.68174356 45.7728019,3.90282132 42.3448276,3.90282132 Z" id="Rectangle" stroke="#0057A8" stroke-width="2.5" fill="#FFFFFF" fill-rule="nonzero"></path>
                            <path d="M15.2692311,14.8688811 C14.0000001,14.8688811 12.9615385,15.9073428 12.9615385,17.1765737 C12.9615385,18.4458046 14.0000001,19.4842663 15.2692311,19.4842663 C16.538462,19.4842663 17.5769237,18.4458046 17.5769237,17.1765737 C17.5769237,15.9073428 16.538462,14.8688811 15.2692311,14.8688811" id="Path" fill="#E01F27" fill-rule="nonzero"></path>
                            <path d="M23.6346154,15.236014 C22.8413462,15.236014 22.1923077,15.8850524 22.1923077,16.6783217 C22.1923077,17.4715909 22.8413462,18.1206294 23.6346154,18.1206294 L34.5961538,18.1206294 C35.3894231,18.1206294 36.0384615,17.4715909 36.0384615,16.6783217 C36.0384615,15.8850524 35.3894231,15.236014 34.5961538,15.236014 L23.6346154,15.236014 Z" id="Path" fill="#E01F27" fill-rule="nonzero"></path>
                            <path d="M15.2692311,21.6870629 C14.0000001,21.6870629 12.9615385,22.7255246 12.9615385,23.9947555 C12.9615385,25.2639865 14.0000001,26.3024481 15.2692311,26.3024481 C16.538462,26.3024481 17.5769237,25.2639865 17.5769237,23.9947555 C17.5769237,22.7255246 16.538462,21.6870629 15.2692311,21.6870629" id="Path" fill="#E01F27" fill-rule="nonzero"></path>
                            <path d="M23.6346154,22.0541958 C22.8413462,22.0541958 22.1923077,22.7032343 22.1923077,23.4965035 C22.1923077,24.2897727 22.8413462,24.9388112 23.6346154,24.9388112 L34.5961538,24.9388112 C35.3894231,24.9388112 36.0384615,24.2897727 36.0384615,23.4965035 C36.0384615,22.7032343 35.3894231,22.0541958 34.5961538,22.0541958 L23.6346154,22.0541958 Z" id="Path" fill="#E01F27" fill-rule="nonzero"></path>
                            <line x1="24.5" y1="0" x2="24.5" y2="3.56643357" id="Line-2" stroke="#0057A8" stroke-width="2.5" stroke-linecap="round"></line>
                            <path d="M13.6687228,40.7180636 C14.252163,39.8196445 15.4534474,39.5643036 16.3518665,40.1477438 C17.190391,40.692288 17.4687229,41.7750431 17.0277485,42.6474382 L16.9221863,42.8308874 L8.29556098,56.1147255 C7.71212078,57.0131446 6.51083646,57.2684854 5.61241735,56.6850452 C4.77389284,56.1405011 4.49556095,55.057746 4.93653529,54.1853508 L5.04209757,54.0019016 L13.6687228,40.7180636 Z" id="Line-2" fill="#0057A8" fill-rule="nonzero"></path>
                            <path d="M40.9414501,40.7180636 C41.5248903,39.8196445 42.7261746,39.5643036 43.6245937,40.1477438 C44.4631182,40.692288 44.7414501,41.7750431 44.3004758,42.6474382 L44.1949135,42.8308874 L35.5682882,56.1147255 C34.9848481,57.0131446 33.7835637,57.2684854 32.8851446,56.6850452 C32.0466201,56.1405011 31.7682882,55.057746 32.2092626,54.1853508 L32.3148248,54.0019016 L40.9414501,40.7180636 Z" id="Line-2" fill="#0057A8" fill-rule="nonzero" transform="translate(38.254869, 48.416395) scale(-1, 1) translate(-38.254869, -48.416395) "></path>
                            <path d="M24.5,39.9694357 C25.5042893,39.9694357 26.3303112,40.7326895 26.429641,41.7107724 L26.4396552,41.9090909 L26.4396552,56.7482517 C26.4396552,57.8194937 25.571242,58.6879069 24.5,58.6879069 C23.4957107,58.6879069 22.6696888,57.9246531 22.570359,56.9465702 L22.5603448,56.7482517 L22.5603448,41.9090909 C22.5603448,40.8378489 23.428758,39.9694357 24.5,39.9694357 Z" id="Line-2" fill="#0057A8" fill-rule="nonzero"></path>
                        </g>
                        <g id="Group-15" transform="translate(105.000000, 44.000000)" fill="#E6ECF2" fill-rule="nonzero">
                            <path d="M1.99649079,10.3726764 C5.07484304,14.4952494 11.4648953,14.9291603 11.4648953,14.9291603 C11.4648953,14.9291603 12.8639614,8.67905697 9.7856091,4.55648393 C6.70725686,0.433910899 0.317204609,3.03377797e-14 0.317204609,3.03377797e-14 C0.317204609,3.03377797e-14 -1.08186146,6.25010124 1.99649079,10.3726764 Z" id="Path"></path>
                            <path d="M17.6782646,11.9224787 C15.6469511,14.642841 11.430343,14.9291646 11.430343,14.9291646 C11.430343,14.9291646 10.5071416,10.8049115 12.5384529,8.0845491 C14.5697643,5.36418674 18.7863745,5.07785247 18.7863745,5.07785247 C18.7863745,5.07785247 19.709576,9.20210989 17.6782646,11.9224787 Z" id="Path"></path>
                        </g>
                        <g id="Group-14">
                            <path d="M8.8226876,15.0863979 L5.7013639,15.0863979 C5.05521847,15.0856697 4.53159571,14.5620469 4.53086752,13.9159015 L4.53086752,1.17049639 C4.53159571,0.52435095 5.05521847,0.000728194022 5.7013639,0 L8.8226876,0 C9.46883303,0.000728194022 9.99245579,0.52435095 9.99318398,1.17049639 L9.99318398,13.9159015 C9.99245579,14.5620469 9.46883303,15.0856697 8.8226876,15.0863979 L8.8226876,15.0863979 Z" id="Path" fill="#E6ECF2"></path>
                            <rect id="Rectangle" fill="#AEB8C2" x="4.66092267" y="2.47104792" width="5.20220616" height="1.04044123"></rect>
                            <rect id="Rectangle" fill="#AEB8C2" x="4.66092267" y="10.5344675" width="5.20220616" height="1.04044123"></rect>
                            <path d="M16.6259968,15.0863979 L13.5046731,15.0863979 C12.8585277,15.0856697 12.3349049,14.5620469 12.3341768,13.9159015 L12.3341768,1.17049639 C12.3349049,0.52435095 12.8585277,0.000728194022 13.5046731,0 L16.6259968,0 C17.2721423,0.000728194022 17.795765,0.52435095 17.7964932,1.17049639 L17.7964932,13.9159015 C17.795765,14.5620469 17.2721423,15.0856697 16.6259968,15.0863979 L16.6259968,15.0863979 Z" id="Path" fill="#E6ECF2"></path>
                            <rect id="Rectangle" fill="#AEB8C2" x="12.4642319" y="2.47104792" width="5.20220616" height="1.04044123"></rect>
                            <rect id="Rectangle" fill="#AEB8C2" x="12.4642319" y="10.5344675" width="5.20220616" height="1.04044123"></rect>
                            <path d="M24.4293061,15.0863979 L21.3079824,15.0863979 C20.6618369,15.0856697 20.1382142,14.5620469 20.137486,13.9159015 L20.137486,1.17049639 C20.1382142,0.52435095 20.6618369,0.000728194022 21.3079824,0 L24.4293061,0 C25.0754515,0.000728194022 25.5990743,0.52435095 25.5998024,1.17049639 L25.5998024,13.9159015 C25.5990743,14.5620469 25.0754515,15.0856697 24.4293061,15.0863979 L24.4293061,15.0863979 Z" id="Path" fill="#E6ECF2"></path>
                            <rect id="Rectangle" fill="#AEB8C2" x="20.2675411" y="2.47104792" width="5.20220616" height="1.04044123"></rect>
                            <rect id="Rectangle" fill="#AEB8C2" x="20.2675411" y="10.5344675" width="5.20220616" height="1.04044123"></rect>
                            <path d="M29.4833473,15.4765633 L0.260110308,15.4765633 C0.116455352,15.4765633 6.34531187e-13,15.360108 6.34531187e-13,15.216453 C6.34531187e-13,15.072798 0.116455352,14.9563427 0.260110308,14.9563427 L29.4833473,14.9563427 C29.6270022,14.9563427 29.7434576,15.072798 29.7434576,15.216453 C29.7434576,15.360108 29.6270022,15.4765633 29.4833473,15.4765633 Z" id="Path" fill="#AEB8C2"></path>
                        </g>
                        <g id="Group-14" transform="translate(111.632343, 1.698019)" fill="#000000" fill-rule="nonzero">
                            <path d="M6.02086967,6.73450762 C5.8334496,6.73450762 5.653238,6.66242297 5.50906871,6.52546216 L0.210847576,1.22724102 C-0.0702825253,0.946110917 -0.0702825253,0.491977677 0.210847576,0.210847576 C0.491977677,-0.0702825253 0.946110917,-0.0702825253 1.22724102,0.210847576 L6.52546216,5.50906871 C6.80659226,5.79019881 6.80659226,6.24433205 6.52546216,6.52546216 C6.38850134,6.66242297 6.20828973,6.73450762 6.02086967,6.73450762 Z" id="Path"></path>
                            <path d="M0.722648529,6.73450762 C0.535228462,6.73450762 0.355016859,6.66242297 0.210847576,6.52546216 C-0.0702825253,6.24433205 -0.0702825253,5.79019881 0.210847576,5.50906871 L5.50906871,0.210847576 C5.79019881,-0.0702825253 6.24433205,-0.0702825253 6.52546216,0.210847576 C6.80659226,0.491977677 6.80659226,0.946110917 6.52546216,1.22724102 L1.22724102,6.52546216 C1.0902802,6.66242297 0.910068597,6.73450762 0.722648529,6.73450762 Z" id="Path"></path>
                        </g>
                    </g>
                </g>
            </g>
        </g>
    </g>
</svg>