<?xml version="1.0" encoding="UTF-8"?>
<svg width="48px" height="46px" viewBox="0 0 48 46" version="1.1" xmlns="http://www.w3.org/2000/svg" xmlns:xlink="http://www.w3.org/1999/xlink">
    <title>Oops</title>
    <g id="Oops" stroke="none" stroke-width="1" fill="none" fill-rule="evenodd">
        <g transform="translate(1.000000, 9.000000)" fill-rule="nonzero">
            <g transform="translate(0.184943, 0.586787)">
                <path d="M1.50795545,24.2124867 C0.674810063,24.2124867 0,23.5376766 0,22.7045312 C0,21.8713858 0.674810063,21.1965758 1.50795545,21.1965758 C2.34110083,21.1965758 3.0159109,21.8713858 3.0159109,22.7045312 C3.0159109,23.5376766 2.33733095,24.2124867 1.50795545,24.2124867 Z M1.50795545,21.9505535 C1.0932677,21.9505535 0.753977724,22.2898435 0.753977724,22.7045312 C0.753977724,23.119219 1.0932677,23.4585089 1.50795545,23.4585089 C1.9226432,23.4585089 2.26193317,23.119219 2.26193317,22.7045312 C2.26193317,22.2898435 1.9226432,21.9505535 1.50795545,21.9505535 Z" id="Shape" fill="#000000"></path>
                <g id="Group" transform="translate(11.920320, 1.834265)">
                    <path d="M13.9210526,0 C6.23266756,0 0,6.23266756 0,13.9210526 C0,21.6094377 6.23266756,27.8421053 13.9210526,27.8421053 C21.6094377,27.8421053 27.8421053,21.6094377 27.8421053,13.9210526 C27.8421053,6.23266756 21.6094377,0 13.9210526,0 Z M13.9210526,1.21052632 C20.9408825,1.21052632 26.6315789,6.90122279 26.6315789,13.9210526 C26.6315789,20.9408825 20.9408825,26.6315789 13.9210526,26.6315789 C6.90122279,26.6315789 1.21052632,20.9408825 1.21052632,13.9210526 C1.21052632,6.90122279 6.90122279,1.21052632 13.9210526,1.21052632 Z" id="Oval" fill="#0057A8"></path>
                    <path d="M20.5202118,15.3742105 C20.0859825,18.6313161 17.2969356,21.1438597 13.9210527,21.1438597 C10.5451698,21.1438597 7.75612287,18.6313161 7.32189356,15.3742105 Z" id="Combined-Shape" fill="#E01F27" transform="translate(13.921053, 18.258908) scale(1, -1) translate(-13.921053, -18.258908) "></path>
                    <rect id="Rectangle" fill="#E01F27" x="6.89327485" y="8.66871345" width="3.46197816" height="3.52492322" rx="1.73098908"></rect>
                    <rect id="Rectangle" fill="#E01F27" x="17.5459064" y="8.66871345" width="3.46197816" height="3.52492322" rx="1.73098908"></rect>
                </g>
                <path d="M44.7105021,3.52201844 C44.612485,3.52201844 44.5182377,3.48431956 44.44284,3.41269167 L41.6719718,0.641823538 C41.5249462,0.494797882 41.5249462,0.257294898 41.6719718,0.110269242 C41.8189975,-0.0367564141 42.0565005,-0.0367564141 42.2035261,0.110269242 L44.9743943,2.88113738 C45.1214199,3.02816303 45.1214199,3.26566602 44.9743943,3.41269167 C44.9027664,3.48431956 44.8085192,3.52201844 44.7105021,3.52201844 Z" id="Path" fill="#000000"></path>
                <path d="M41.9396339,3.52201844 C41.8416168,3.52201844 41.7473696,3.48431956 41.6719718,3.41269167 C41.5249462,3.26566602 41.5249462,3.02816303 41.6719718,2.88113738 L44.44284,0.110269242 C44.5898656,-0.0367564141 44.8273686,-0.0367564141 44.9743943,0.110269242 C45.1214199,0.257294898 45.1214199,0.494797882 44.9743943,0.641823538 L42.2035261,3.41269167 C42.1318982,3.48431956 42.037651,3.52201844 41.9396339,3.52201844 Z" id="Path" fill="#000000"></path>
            </g>
        </g>
    </g>
</svg>