<?xml version="1.0" encoding="UTF-8"?>
<svg width="78px" height="65px" viewBox="0 0 78 65" version="1.1" xmlns="http://www.w3.org/2000/svg" xmlns:xlink="http://www.w3.org/1999/xlink">
    <title>package2</title>
    <g id="Page-1" stroke="none" stroke-width="1" fill="none" fill-rule="evenodd">
        <g id="Post-Job-Packages" transform="translate(-237.000000, -315.000000)">
            <g id="Group-9" transform="translate(16.000000, 273.000000)">
                <g id="package2" transform="translate(221.000000, 44.000000)">
                    <path d="M3.35821416,59.6322107 C1.53022074,59.6322107 0.0496287807,58.1516188 0.0496287807,56.3236254 C0.0496287807,54.4956319 1.53022074,53.01504 3.35821416,53.01504 C5.18620758,53.01504 6.66679954,54.4956319 6.66679954,56.3236254 C6.66679954,58.1516188 5.17793612,59.6322107 3.35821416,59.6322107 Z M3.35821416,54.6693327 C2.44835318,54.6693327 1.70392147,55.4137644 1.70392147,56.3236254 C1.70392147,57.2334863 2.44835318,57.977918 3.35821416,57.977918 C4.26807514,57.977918 5.01250685,57.2334863 5.01250685,56.3236254 C5.01250685,55.4137644 4.26807514,54.6693327 3.35821416,54.6693327 Z" id="Shape" fill="#000000" fill-rule="nonzero"></path>
                    <g id="events" transform="translate(7.000000, 0.000000)">
                        <path d="M9,4 L46.8947368,4 C51.8652996,4 55.8947368,8.02943725 55.8947368,13 L55.8947368,52.684211 C55.8947368,57.6547737 51.8652996,61.684211 46.8947368,61.684211 L9,61.684211 C4.02943725,61.684211 2.38507522e-15,57.6547737 0,52.684211 L0,13 C1.16763846e-15,8.02943725 4.02943725,4 9,4 Z" id="Rectangle" stroke="#DEDFE5" stroke-width="2" fill="#FFFFFF" fill-rule="nonzero"></path>
                        <path d="M23.9019886,43 L23.9019886,25.5454545 L20.4332386,25.5454545 L16.1122159,28.28125 L16.1122159,31.5539773 L20.109375,29.0482955 L20.2116477,29.0482955 L20.2116477,43 L23.9019886,43 Z M34.4275568,43.2386364 C35.7230114,43.2386364 36.8607955,42.9786932 37.8409091,42.4588068 C38.8210227,41.9389205 39.5852273,41.2230114 40.1335227,40.3110795 C40.6818182,39.3991477 40.953125,38.3551136 40.9475434,37.1789773 C40.953125,36.0596591 40.7173295,35.0696023 40.2400568,34.2088068 C39.7627841,33.3480114 39.1122159,32.6704545 38.2883523,32.1761364 C37.4644886,31.6818182 36.5269886,31.4346591 35.4758523,31.4346591 C34.7088068,31.4346591 34.015625,31.5767045 33.3963068,31.8607955 C32.7769886,32.1448864 32.3139205,32.5028409 32.0071023,32.9346591 L32.0071023,32.9346591 L31.9048295,32.9346591 L32.3565341,28.5625 L39.984375,28.5625 L39.984375,25.5454545 L29.3139205,25.5454545 L28.4872159,34.75 L31.7684659,35.3380682 C32.0355114,34.9744318 32.4090909,34.6875 32.8892045,34.4772727 C33.3693182,34.2670455 33.8650568,34.1619318 34.3764205,34.1619318 C34.9616477,34.1676136 35.4815341,34.3011364 35.9360795,34.5625 C36.390625,34.8238636 36.7471591,35.1875 37.0056818,35.6534091 C37.2642045,36.1193182 37.3934659,36.6590909 37.3934659,37.2727273 C37.3934659,37.875 37.2670455,38.4076705 37.0142045,38.8707386 C36.7613636,39.3338068 36.4119318,39.6946023 35.9659091,39.953125 C35.5198864,40.2116477 35.0071023,40.3409091 34.4275568,40.3409091 C33.7002841,40.3409091 33.0724432,40.1306818 32.5440341,39.7102273 C32.015625,39.2897727 31.7315341,38.7414773 31.6917614,38.0653409 L31.6917614,38.0653409 L28.1122159,38.0653409 C28.1349432,39.0710227 28.421875,39.9630682 28.9730114,40.7414773 C29.5241477,41.5198864 30.2698864,42.1306818 31.2102273,42.5738636 C32.1505682,43.0170455 33.2230114,43.2386364 34.4275568,43.2386364 Z M18.6648231,56 C19.4773231,56 20.1732866,55.8398438 20.7527137,55.5195312 C21.3321408,55.1992188 21.7761512,54.7395833 22.0847449,54.140625 C22.3933387,53.5416667 22.5476356,52.8255208 22.5476356,51.9921875 C22.5476356,51.1614583 22.3939897,50.4479167 22.0866981,49.8515625 C21.7794064,49.2552083 21.3399533,48.797526 20.7683387,48.4785156 C20.1967241,48.1595052 19.5137814,48 18.7195106,48 L18.7195106,48 L15.9538856,48 L15.9538856,56 L18.6648231,56 Z M18.5945106,54.7460938 L17.4031043,54.7460938 L17.4031043,49.2539062 L18.6374793,49.2539062 C19.179146,49.2539062 19.632922,49.3548177 19.9988074,49.5566406 C20.3646928,49.7584635 20.6413856,50.061849 20.8288856,50.4667969 C21.0163856,50.8717448 21.1101356,51.3802083 21.1101356,51.9921875 C21.1101356,52.6041667 21.0163856,53.1139323 20.8288856,53.5214844 C20.6413856,53.9290365 20.3614376,54.235026 19.9890418,54.4394531 C19.616646,54.6438802 19.1518022,54.7460938 18.5945106,54.7460938 L18.5945106,54.7460938 Z M25.5867019,56.1210938 C25.8992019,56.1210938 26.1719883,56.077474 26.4050612,55.9902344 C26.6381342,55.9029948 26.8321446,55.7871094 26.9870925,55.6425781 C27.1420404,55.4980469 27.2624831,55.3424479 27.3484206,55.1757812 L27.3484206,55.1757812 L27.3952956,55.1757812 L27.3952956,56 L28.7546706,56 L28.7546706,51.984375 C28.7546706,51.5859375 28.682405,51.2539062 28.5378737,50.9882812 C28.3933425,50.7226562 28.2025873,50.5123698 27.9656081,50.3574219 C27.728629,50.202474 27.4669102,50.0911458 27.1804519,50.0234375 C26.8939935,49.9557292 26.6062331,49.921875 26.3171706,49.921875 C25.8978998,49.921875 25.5150873,49.983724 25.1687331,50.1074219 C24.822379,50.2311198 24.5294102,50.4160156 24.2898269,50.6621094 C24.0502435,50.9082031 23.8783685,51.2135417 23.7742019,51.578125 L23.7742019,51.578125 L25.0945144,51.765625 C25.1648269,51.5598958 25.3008946,51.3815104 25.5027175,51.2304688 C25.7045404,51.0794271 25.978629,51.0039062 26.3249831,51.0039062 C26.6531081,51.0039062 26.9044102,51.0846354 27.0788894,51.2460938 C27.2533685,51.4075521 27.3406081,51.6354167 27.3406081,51.9296875 L27.3406081,51.9296875 L27.3406081,51.953125 C27.3406081,52.0885417 27.2904779,52.188151 27.1902175,52.2519531 C27.0899571,52.3157552 26.9304519,52.3626302 26.7117019,52.3925781 C26.4929519,52.422526 26.2077956,52.4557292 25.8562331,52.4921875 C25.5645665,52.5234375 25.2826654,52.5735677 25.01053,52.6425781 C24.7383946,52.7115885 24.494254,52.8125 24.2781081,52.9453125 C24.0619623,53.078125 23.8913894,53.2552083 23.7663894,53.4765625 C23.6413894,53.6979167 23.5788894,53.9778646 23.5788894,54.3164062 C23.5788894,54.7096354 23.66678,55.0403646 23.8425612,55.3085938 C24.0183425,55.5768229 24.2579258,55.7792969 24.5613112,55.9160156 C24.8646967,56.0527344 25.2064935,56.1210938 25.5867019,56.1210938 Z M25.9538894,55.0820312 C25.6596185,55.0820312 25.417431,55.015625 25.2273269,54.8828125 C25.0372227,54.75 24.9421706,54.5533854 24.9421706,54.2929688 C24.9421706,54.1106771 24.9903477,53.9615885 25.0867019,53.8457031 C25.183056,53.7298177 25.3145665,53.6393229 25.4812331,53.5742188 C25.6478998,53.5091146 25.8367019,53.4622396 26.0476394,53.4335938 C26.1413894,53.4205729 26.2520665,53.4049479 26.3796706,53.3867188 C26.5072748,53.3684896 26.636181,53.3476562 26.7663894,53.3242188 C26.8965977,53.3007812 27.0144362,53.2734375 27.119905,53.2421875 C27.2253737,53.2109375 27.3002435,53.1770833 27.3445144,53.140625 L27.3445144,53.140625 L27.3445144,53.8476562 C27.3445144,54.0690104 27.2878737,54.2734375 27.1745925,54.4609375 C27.0613112,54.6484375 26.900504,54.7988281 26.6921706,54.9121094 C26.4838373,55.0253906 26.2377435,55.0820312 25.9538894,55.0820312 Z M31.0609279,58.2382812 C31.4307195,58.2382812 31.7490789,58.1777344 32.016006,58.0566406 C32.2829331,57.9355469 32.5088445,57.7617188 32.6937404,57.5351562 C32.8786362,57.3085938 33.0270737,57.0390625 33.1390529,56.7265625 L33.1390529,56.7265625 L35.5492091,50.0078125 L34.0374904,50 L32.6507716,54.53125 L32.5882716,54.53125 L31.2054591,50 L29.7054591,50 L31.8812404,56.125 L31.7601466,56.4492188 C31.62473,56.7799479 31.4522039,56.9746094 31.2425685,57.0332031 C31.0329331,57.0917969 30.7744695,57.0768229 30.4671779,56.9882812 L30.4671779,56.9882812 L30.1390529,58.0859375 C30.235407,58.1276042 30.3649643,58.1634115 30.5277247,58.1933594 C30.6904852,58.2233073 30.8682195,58.2382812 31.0609279,58.2382812 Z M38.8328156,56.1171875 C39.3328156,56.1171875 39.775524,56.0364583 40.1609406,55.875 C40.5463573,55.7135417 40.8477896,55.4889323 41.0652375,55.2011719 C41.2826854,54.9134115 41.3927115,54.5807292 41.3953156,54.203125 C41.3927115,53.7734375 41.2527375,53.4257812 40.9753938,53.1601562 C40.69805,52.8945312 40.275524,52.7005208 39.7078156,52.578125 L39.7078156,52.578125 L38.6843781,52.359375 C38.3796906,52.2890625 38.1615917,52.1992188 38.0300813,52.0898438 C37.8985709,51.9804688 37.8341177,51.8385417 37.8367219,51.6640625 C37.8341177,51.4609375 37.932425,51.2955729 38.1316438,51.1679688 C38.3308625,51.0403646 38.5776073,50.9765625 38.8718781,50.9765625 C39.0906281,50.9765625 39.275524,51.0117188 39.4265656,51.0820312 C39.5776073,51.1523438 39.69805,51.2447917 39.7878938,51.359375 C39.8777375,51.4739583 39.9408886,51.5963542 39.9773469,51.7265625 L39.9773469,51.7265625 L41.2664094,51.5859375 C41.1700552,51.0755208 40.9194042,50.6705729 40.5144563,50.3710938 C40.1095084,50.0716146 39.5554719,49.921875 38.8523469,49.921875 C38.3731802,49.921875 37.9506542,49.9967448 37.5847688,50.1464844 C37.2188834,50.296224 36.9337271,50.5071615 36.7293,50.7792969 C36.5248729,51.0514323 36.4239615,51.3723958 36.4265656,51.7421875 C36.4239615,52.1796875 36.5606802,52.5410156 36.8367219,52.8261719 C37.1127636,53.1113281 37.5385448,53.3138021 38.1140656,53.4335938 L38.1140656,53.4335938 L39.1375031,53.6484375 C39.4135448,53.7083333 39.6173209,53.7942708 39.7488313,53.90625 C39.8803417,54.0182292 39.9460969,54.1601562 39.9460969,54.3320312 C39.9460969,54.5351562 39.8438834,54.7057292 39.6394563,54.84375 C39.4350292,54.9817708 39.1648469,55.0507812 38.8289094,55.0507812 C38.5033886,55.0507812 38.2390656,54.9817708 38.0359406,54.84375 C37.8328156,54.7057292 37.7000031,54.5013021 37.6375031,54.2304688 L37.6375031,54.2304688 L36.2585969,54.3632812 C36.3445344,54.9153646 36.6114615,55.3457031 37.0593781,55.6542969 C37.5072948,55.9628906 38.0984406,56.1171875 38.8328156,56.1171875 Z" id="15Days" fill="#6A8BA6" fill-rule="nonzero"></path>
                        <path d="M9.17368421,4.21052632 L47.0684211,4.21052632 C52.0389838,4.21052632 56.0684211,8.23996357 56.0684211,13.2105263 L56.0684211,18.7368423 L56.0684211,18.7368423 L0.173684211,18.7368423 L0.173684211,13.2105263 C0.173684211,8.23996357 4.20312146,4.21052632 9.17368421,4.21052632 Z" id="Rectangle" stroke="#DEDFE5" stroke-width="2" fill="#FFFFFF" fill-rule="nonzero"></path>
                        <line x1="13.2526316" y1="0" x2="13.2526316" y2="8.42105263" id="Line-2" stroke="#DEDFE5" stroke-width="3" stroke-linecap="round"></line>
                        <line x1="46.2526316" y1="-2.64677169e-13" x2="46.2526316" y2="8.42105263" id="Line-2" stroke="#DEDFE5" stroke-width="3" stroke-linecap="round"></line>
                    </g>
                    <g id="Group-5" transform="translate(71.639618, 3.407910)" fill="#000000" fill-rule="nonzero">
                        <path d="M5.18155489,5.79571105 C5.02026135,5.79571105 4.86517141,5.73367507 4.74109946,5.61580672 L0.181455229,1.05616249 C-0.0604850765,0.814222183 -0.0604850765,0.423395535 0.181455229,0.181455229 C0.423395535,-0.0604850765 0.814222183,-0.0604850765 1.05616249,0.181455229 L5.61580672,4.74109946 C5.85774702,4.98303976 5.85774702,5.37386641 5.61580672,5.61580672 C5.49793836,5.73367507 5.34284842,5.79571105 5.18155489,5.79571105 Z" id="Path"></path>
                        <path d="M0.621910658,5.79571105 C0.460617121,5.79571105 0.305527181,5.73367507 0.181455229,5.61580672 C-0.0604850765,5.37386641 -0.0604850765,4.98303976 0.181455229,4.74109946 L4.74109946,0.181455229 C4.98303976,-0.0604850765 5.37386641,-0.0604850765 5.61580672,0.181455229 C5.85774702,0.423395535 5.85774702,0.814222183 5.61580672,1.05616249 L1.05616249,5.61580672 C0.938294135,5.73367507 0.783204196,5.79571105 0.621910658,5.79571105 Z" id="Path"></path>
                    </g>
                </g>
            </g>
        </g>
    </g>
</svg>