<?xml version="1.0" encoding="UTF-8"?>
<svg width="88px" height="65px" viewBox="0 0 88 65" version="1.1" xmlns="http://www.w3.org/2000/svg" xmlns:xlink="http://www.w3.org/1999/xlink">
    <title>package1</title>
    <g id="Page-1" stroke="none" stroke-width="1" fill="none" fill-rule="evenodd">
        <g id="Post-Job-Packages" transform="translate(-227.000000, -176.000000)">
            <g id="Group-9" transform="translate(16.000000, 134.000000)">
                <g id="package1" transform="translate(211.000000, 44.000000)">
                    <path d="M3.35821416,49.6322107 C1.53022074,49.6322107 0.0496287807,48.1516188 0.0496287807,46.3236254 C0.0496287807,44.4956319 1.53022074,43.01504 3.35821416,43.01504 C5.18620758,43.01504 6.66679954,44.4956319 6.66679954,46.3236254 C6.66679954,48.1516188 5.17793612,49.6322107 3.35821416,49.6322107 Z M3.35821416,44.6693327 C2.44835318,44.6693327 1.70392147,45.4137644 1.70392147,46.3236254 C1.70392147,47.2334863 2.44835318,47.977918 3.35821416,47.977918 C4.26807514,47.977918 5.01250685,47.2334863 5.01250685,46.3236254 C5.01250685,45.4137644 4.26807514,44.6693327 3.35821416,44.6693327 Z" id="Shape" fill="#000000" fill-rule="nonzero"></path>
                    <g id="events" transform="translate(17.000000, 0.000000)">
                        <path d="M9,4 L46.8947368,4 C51.8652996,4 55.8947368,8.02943725 55.8947368,13 L55.8947368,52.684211 C55.8947368,57.6547737 51.8652996,61.684211 46.8947368,61.684211 L9,61.684211 C4.02943725,61.684211 2.38507522e-15,57.6547737 0,52.684211 L0,13 C1.16763846e-15,8.02943725 4.02943725,4 9,4 Z" id="Rectangle" stroke="#DEDFE5" stroke-width="2" fill="#FFFFFF" fill-rule="nonzero"></path>
                        <text id="07-Days" font-family="Inter-Bold, Inter" font-size="24" font-weight="bold" line-spacing="13" fill="#6A8BA6">
                            <tspan x="13" y="53">07</tspan>
                            <tspan x="61.5198864" y="66.1818848" font-size="15"></tspan>
                            <tspan x="24.6634026" y="79.1818848" font-family="Inter-Regular_SemiBold, Inter" font-size="11" font-weight="500">Days</tspan>
                        </text>
                        <path d="M9.17368421,4.21052632 L47.0684211,4.21052632 C52.0389838,4.21052632 56.0684211,8.23996357 56.0684211,13.2105263 L56.0684211,18.7368423 L56.0684211,18.7368423 L0.173684211,18.7368423 L0.173684211,13.2105263 C0.173684211,8.23996357 4.20312146,4.21052632 9.17368421,4.21052632 Z" id="Rectangle" stroke="#DEDFE5" stroke-width="2" fill="#FFFFFF" fill-rule="nonzero"></path>
                        <line x1="13.2526316" y1="0" x2="13.2526316" y2="8.42105263" id="Line-2" stroke="#DEDFE5" stroke-width="3" stroke-linecap="round"></line>
                        <line x1="46.2526316" y1="-2.64677169e-13" x2="46.2526316" y2="8.42105263" id="Line-2" stroke="#DEDFE5" stroke-width="3" stroke-linecap="round"></line>
                    </g>
                    <g id="Group-5" transform="translate(81.639618, 3.407910)" fill="#000000" fill-rule="nonzero">
                        <path d="M5.18155489,5.79571105 C5.02026135,5.79571105 4.86517141,5.73367507 4.74109946,5.61580672 L0.181455229,1.05616249 C-0.0604850765,0.814222183 -0.0604850765,0.423395535 0.181455229,0.181455229 C0.423395535,-0.0604850765 0.814222183,-0.0604850765 1.05616249,0.181455229 L5.61580672,4.74109946 C5.85774702,4.98303976 5.85774702,5.37386641 5.61580672,5.61580672 C5.49793836,5.73367507 5.34284842,5.79571105 5.18155489,5.79571105 Z" id="Path"></path>
                        <path d="M0.621910658,5.79571105 C0.460617121,5.79571105 0.305527181,5.73367507 0.181455229,5.61580672 C-0.0604850765,5.37386641 -0.0604850765,4.98303976 0.181455229,4.74109946 L4.74109946,0.181455229 C4.98303976,-0.0604850765 5.37386641,-0.0604850765 5.61580672,0.181455229 C5.85774702,0.423395535 5.85774702,0.814222183 5.61580672,1.05616249 L1.05616249,5.61580672 C0.938294135,5.73367507 0.783204196,5.79571105 0.621910658,5.79571105 Z" id="Path"></path>
                    </g>
                </g>
            </g>
        </g>
    </g>
</svg>