<?xml version="1.0" encoding="UTF-8"?>
<svg width="88px" height="65px" viewBox="0 0 88 65" version="1.1" xmlns="http://www.w3.org/2000/svg" xmlns:xlink="http://www.w3.org/1999/xlink">
    <title>package3</title>
    <g id="Page-1" stroke="none" stroke-width="1" fill="none" fill-rule="evenodd">
        <g id="Post-Job-Packages" transform="translate(-227.000000, -455.000000)">
            <g id="Group-9" transform="translate(16.000000, 413.000000)">
                <g id="package3" transform="translate(211.000000, 44.000000)">
                    <path d="M3.35821416,39.6322107 C1.53022074,39.6322107 0.0496287807,38.1516188 0.0496287807,36.3236254 C0.0496287807,34.4956319 1.53022074,33.01504 3.35821416,33.01504 C5.18620758,33.01504 6.66679954,34.4956319 6.66679954,36.3236254 C6.66679954,38.1516188 5.17793612,39.6322107 3.35821416,39.6322107 Z M3.35821416,34.6693327 C2.44835318,34.6693327 1.70392147,35.4137644 1.70392147,36.3236254 C1.70392147,37.2334863 2.44835318,37.977918 3.35821416,37.977918 C4.26807514,37.977918 5.01250685,37.2334863 5.01250685,36.3236254 C5.01250685,35.4137644 4.26807514,34.6693327 3.35821416,34.6693327 Z" id="Shape" fill="#000000" fill-rule="nonzero"></path>
                    <g id="events" transform="translate(17.000000, 0.000000)">
                        <path d="M9,4 L46.8947368,4 C51.8652996,4 55.8947368,8.02943725 55.8947368,13 L55.8947368,52.684211 C55.8947368,57.6547737 51.8652996,61.684211 46.8947368,61.684211 L9,61.684211 C4.02943725,61.684211 2.38507522e-15,57.6547737 0,52.684211 L0,13 C1.16763846e-15,8.02943725 4.02943725,4 9,4 Z" id="Rectangle" stroke="#DEDFE5" stroke-width="2" fill="#FFFFFF" fill-rule="nonzero"></path>
                        <path d="M20.1946023,42.2386364 C21.5014205,42.2386364 22.6605114,42.0170455 23.671875,41.5738636 C24.6832386,41.1306818 25.4772727,40.5227273 26.0539773,39.75 C26.6306818,38.9772727 26.9161932,38.09375 26.9105945,37.0994318 C26.9161932,36.0142045 26.5823864,35.109375 25.9090909,34.3849432 C25.2357955,33.6605114 24.2571023,33.2159091 22.9730114,33.0511364 L22.9730114,33.0511364 L22.9730114,32.9147727 C23.9502841,32.7386364 24.7443182,32.3238636 25.3551136,31.6704545 C25.9659091,31.0170455 26.2684659,30.2017045 26.2627841,29.2244318 C26.2684659,28.3039773 26.0198864,27.4730114 25.5170455,26.7315341 C25.0142045,25.9900568 24.3110795,25.4005682 23.4076705,24.9630682 C22.5042614,24.5255682 21.4502841,24.3068182 20.2457386,24.3068182 C19.0525568,24.3068182 17.9829545,24.5241477 17.0369318,24.9588068 C16.0909091,25.3934659 15.3394886,25.9943182 14.7826705,26.7613636 C14.2258523,27.5284091 13.9389205,28.4147727 13.921875,29.4204545 L13.921875,29.4204545 L17.4588068,29.4204545 C17.4758523,28.9772727 17.609375,28.5909091 17.859375,28.2613636 C18.109375,27.9318182 18.4417614,27.6775568 18.8565341,27.4985795 C19.2713068,27.3196023 19.7286932,27.2301136 20.2286932,27.2301136 C20.7230114,27.2301136 21.15625,27.3238636 21.5284091,27.5113636 C21.9005682,27.6988636 22.1903409,27.9588068 22.3977273,28.2911932 C22.6051136,28.6235795 22.7088068,29.0085227 22.7088068,29.4460227 C22.7088068,29.90625 22.5894886,30.3082386 22.3508523,30.6519886 C22.1122159,30.9957386 21.7784091,31.2642045 21.3494318,31.4573864 C20.9204545,31.6505682 20.4275568,31.7471591 19.8707386,31.7471591 L19.8707386,31.7471591 L18.2428977,31.7471591 L18.2428977,34.4573864 L19.8707386,34.4573864 C20.5298295,34.4573864 21.0994318,34.5596591 21.5795455,34.7642045 C22.0596591,34.96875 22.4289773,35.2514205 22.6875,35.6122159 C22.9460227,35.9730114 23.0752841,36.3863636 23.0752841,36.8522727 C23.0752841,37.3125 22.953125,37.71875 22.7088068,38.0710227 C22.4644886,38.4232955 22.1264205,38.6988636 21.6946023,38.8977273 C21.2627841,39.0965909 20.765625,39.1960227 20.203125,39.1960227 C19.6633523,39.1960227 19.1775568,39.1079545 18.7457386,38.9318182 C18.3139205,38.7556818 17.96875,38.5071023 17.7102273,38.1860795 C17.4517045,37.8650568 17.3110795,37.4914773 17.2883523,37.0653409 L17.2883523,37.0653409 L13.5724432,37.0653409 C13.5894886,38.0823864 13.8835227,38.9786932 14.4545455,39.7542614 C15.0255682,40.5298295 15.8068182,41.1377841 16.7982955,41.578125 C17.7897727,42.0184659 18.921875,42.2386364 20.1946023,42.2386364 Z M36.4133523,42.3835227 C37.8792614,42.3835227 39.1377841,42.0255682 40.1889205,41.3096591 C41.2400568,40.59375 42.0482955,39.5568182 42.6136364,38.1988636 C43.1789773,36.8409091 43.4617321,35.2045455 43.4617321,33.2897727 C43.4673295,31.3863636 43.1860795,29.765625 42.6178977,28.4275568 C42.0497159,27.0894886 41.2386364,26.0681818 40.1846591,25.3636364 C39.1306818,24.6590909 37.8735795,24.3068182 36.4133523,24.3068182 C34.953125,24.3068182 33.6960227,24.6576705 32.6420455,25.359375 C31.5880682,26.0610795 30.7784091,27.0823864 30.2130682,28.4232955 C29.6477273,29.7642045 29.364972,31.3863636 29.364972,33.2897727 C29.359375,35.1988636 29.6392045,36.8323864 30.2045455,38.1903409 C30.7698864,39.5482955 31.5795455,40.5852273 32.6335227,41.3011364 C33.6875,42.0170455 34.9474432,42.3778409 36.4133523,42.3835227 Z M36.4133523,39.3238636 C35.7485795,39.3238636 35.1690341,39.1008523 34.6747159,38.6548295 C34.1803977,38.2088068 33.7982955,37.5383523 33.5284091,36.6434659 C33.2585227,35.7485795 33.1235795,34.6306818 33.1235795,33.2897727 C33.1292614,31.3068182 33.4303977,29.8181818 34.0269886,28.8238636 C34.6235795,27.8295455 35.4190341,27.3323864 36.4133523,27.3323864 C37.078125,27.3323864 37.65625,27.5539773 38.1477273,27.9971591 C38.6392045,28.4403409 39.0198864,29.1022727 39.2897727,29.9829545 C39.5596591,30.8636364 39.6946023,31.9659091 39.6946023,33.2897727 C39.7002841,35.3011364 39.4048295,36.8096591 38.8082386,37.8153409 C38.2116477,38.8210227 37.4133523,39.3238636 36.4133523,39.3238636 Z M18.6648231,55 C19.4773231,55 20.1732866,54.8398438 20.7527137,54.5195312 C21.3321408,54.1992188 21.7761512,53.7395833 22.0847449,53.140625 C22.3933387,52.5416667 22.5476356,51.8255208 22.5476356,50.9921875 C22.5476356,50.1614583 22.3939897,49.4479167 22.0866981,48.8515625 C21.7794064,48.2552083 21.3399533,47.797526 20.7683387,47.4785156 C20.1967241,47.1595052 19.5137814,47 18.7195106,47 L18.7195106,47 L15.9538856,47 L15.9538856,55 L18.6648231,55 Z M18.5945106,53.7460938 L17.4031043,53.7460938 L17.4031043,48.2539062 L18.6374793,48.2539062 C19.179146,48.2539062 19.632922,48.3548177 19.9988074,48.5566406 C20.3646928,48.7584635 20.6413856,49.061849 20.8288856,49.4667969 C21.0163856,49.8717448 21.1101356,50.3802083 21.1101356,50.9921875 C21.1101356,51.6041667 21.0163856,52.1139323 20.8288856,52.5214844 C20.6413856,52.9290365 20.3614376,53.235026 19.9890418,53.4394531 C19.616646,53.6438802 19.1518022,53.7460938 18.5945106,53.7460938 L18.5945106,53.7460938 Z M25.5867019,55.1210938 C25.8992019,55.1210938 26.1719883,55.077474 26.4050612,54.9902344 C26.6381342,54.9029948 26.8321446,54.7871094 26.9870925,54.6425781 C27.1420404,54.4980469 27.2624831,54.3424479 27.3484206,54.1757812 L27.3484206,54.1757812 L27.3952956,54.1757812 L27.3952956,55 L28.7546706,55 L28.7546706,50.984375 C28.7546706,50.5859375 28.682405,50.2539062 28.5378737,49.9882812 C28.3933425,49.7226562 28.2025873,49.5123698 27.9656081,49.3574219 C27.728629,49.202474 27.4669102,49.0911458 27.1804519,49.0234375 C26.8939935,48.9557292 26.6062331,48.921875 26.3171706,48.921875 C25.8978998,48.921875 25.5150873,48.983724 25.1687331,49.1074219 C24.822379,49.2311198 24.5294102,49.4160156 24.2898269,49.6621094 C24.0502435,49.9082031 23.8783685,50.2135417 23.7742019,50.578125 L23.7742019,50.578125 L25.0945144,50.765625 C25.1648269,50.5598958 25.3008946,50.3815104 25.5027175,50.2304688 C25.7045404,50.0794271 25.978629,50.0039062 26.3249831,50.0039062 C26.6531081,50.0039062 26.9044102,50.0846354 27.0788894,50.2460938 C27.2533685,50.4075521 27.3406081,50.6354167 27.3406081,50.9296875 L27.3406081,50.9296875 L27.3406081,50.953125 C27.3406081,51.0885417 27.2904779,51.188151 27.1902175,51.2519531 C27.0899571,51.3157552 26.9304519,51.3626302 26.7117019,51.3925781 C26.4929519,51.422526 26.2077956,51.4557292 25.8562331,51.4921875 C25.5645665,51.5234375 25.2826654,51.5735677 25.01053,51.6425781 C24.7383946,51.7115885 24.494254,51.8125 24.2781081,51.9453125 C24.0619623,52.078125 23.8913894,52.2552083 23.7663894,52.4765625 C23.6413894,52.6979167 23.5788894,52.9778646 23.5788894,53.3164062 C23.5788894,53.7096354 23.66678,54.0403646 23.8425612,54.3085938 C24.0183425,54.5768229 24.2579258,54.7792969 24.5613112,54.9160156 C24.8646967,55.0527344 25.2064935,55.1210938 25.5867019,55.1210938 Z M25.9538894,54.0820312 C25.6596185,54.0820312 25.417431,54.015625 25.2273269,53.8828125 C25.0372227,53.75 24.9421706,53.5533854 24.9421706,53.2929688 C24.9421706,53.1106771 24.9903477,52.9615885 25.0867019,52.8457031 C25.183056,52.7298177 25.3145665,52.6393229 25.4812331,52.5742188 C25.6478998,52.5091146 25.8367019,52.4622396 26.0476394,52.4335938 C26.1413894,52.4205729 26.2520665,52.4049479 26.3796706,52.3867188 C26.5072748,52.3684896 26.636181,52.3476562 26.7663894,52.3242188 C26.8965977,52.3007812 27.0144362,52.2734375 27.119905,52.2421875 C27.2253737,52.2109375 27.3002435,52.1770833 27.3445144,52.140625 L27.3445144,52.140625 L27.3445144,52.8476562 C27.3445144,53.0690104 27.2878737,53.2734375 27.1745925,53.4609375 C27.0613112,53.6484375 26.900504,53.7988281 26.6921706,53.9121094 C26.4838373,54.0253906 26.2377435,54.0820312 25.9538894,54.0820312 Z M31.0609279,57.2382812 C31.4307195,57.2382812 31.7490789,57.1777344 32.016006,57.0566406 C32.2829331,56.9355469 32.5088445,56.7617188 32.6937404,56.5351562 C32.8786362,56.3085938 33.0270737,56.0390625 33.1390529,55.7265625 L33.1390529,55.7265625 L35.5492091,49.0078125 L34.0374904,49 L32.6507716,53.53125 L32.5882716,53.53125 L31.2054591,49 L29.7054591,49 L31.8812404,55.125 L31.7601466,55.4492188 C31.62473,55.7799479 31.4522039,55.9746094 31.2425685,56.0332031 C31.0329331,56.0917969 30.7744695,56.0768229 30.4671779,55.9882812 L30.4671779,55.9882812 L30.1390529,57.0859375 C30.235407,57.1276042 30.3649643,57.1634115 30.5277247,57.1933594 C30.6904852,57.2233073 30.8682195,57.2382812 31.0609279,57.2382812 Z M38.8328156,55.1171875 C39.3328156,55.1171875 39.775524,55.0364583 40.1609406,54.875 C40.5463573,54.7135417 40.8477896,54.4889323 41.0652375,54.2011719 C41.2826854,53.9134115 41.3927115,53.5807292 41.3953156,53.203125 C41.3927115,52.7734375 41.2527375,52.4257812 40.9753938,52.1601562 C40.69805,51.8945312 40.275524,51.7005208 39.7078156,51.578125 L39.7078156,51.578125 L38.6843781,51.359375 C38.3796906,51.2890625 38.1615917,51.1992188 38.0300813,51.0898438 C37.8985709,50.9804688 37.8341177,50.8385417 37.8367219,50.6640625 C37.8341177,50.4609375 37.932425,50.2955729 38.1316438,50.1679688 C38.3308625,50.0403646 38.5776073,49.9765625 38.8718781,49.9765625 C39.0906281,49.9765625 39.275524,50.0117188 39.4265656,50.0820312 C39.5776073,50.1523438 39.69805,50.2447917 39.7878938,50.359375 C39.8777375,50.4739583 39.9408886,50.5963542 39.9773469,50.7265625 L39.9773469,50.7265625 L41.2664094,50.5859375 C41.1700552,50.0755208 40.9194042,49.6705729 40.5144563,49.3710938 C40.1095084,49.0716146 39.5554719,48.921875 38.8523469,48.921875 C38.3731802,48.921875 37.9506542,48.9967448 37.5847688,49.1464844 C37.2188834,49.296224 36.9337271,49.5071615 36.7293,49.7792969 C36.5248729,50.0514323 36.4239615,50.3723958 36.4265656,50.7421875 C36.4239615,51.1796875 36.5606802,51.5410156 36.8367219,51.8261719 C37.1127636,52.1113281 37.5385448,52.3138021 38.1140656,52.4335938 L38.1140656,52.4335938 L39.1375031,52.6484375 C39.4135448,52.7083333 39.6173209,52.7942708 39.7488313,52.90625 C39.8803417,53.0182292 39.9460969,53.1601562 39.9460969,53.3320312 C39.9460969,53.5351562 39.8438834,53.7057292 39.6394563,53.84375 C39.4350292,53.9817708 39.1648469,54.0507812 38.8289094,54.0507812 C38.5033886,54.0507812 38.2390656,53.9817708 38.0359406,53.84375 C37.8328156,53.7057292 37.7000031,53.5013021 37.6375031,53.2304688 L37.6375031,53.2304688 L36.2585969,53.3632812 C36.3445344,53.9153646 36.6114615,54.3457031 37.0593781,54.6542969 C37.5072948,54.9628906 38.0984406,55.1171875 38.8328156,55.1171875 Z" id="30Days" fill="#6A8BA6" fill-rule="nonzero"></path>
                        <path d="M9.17368421,4.21052632 L47.0684211,4.21052632 C52.0389838,4.21052632 56.0684211,8.23996357 56.0684211,13.2105263 L56.0684211,18.7368423 L56.0684211,18.7368423 L0.173684211,18.7368423 L0.173684211,13.2105263 C0.173684211,8.23996357 4.20312146,4.21052632 9.17368421,4.21052632 Z" id="Rectangle" stroke="#DEDFE5" stroke-width="2" fill="#FFFFFF" fill-rule="nonzero"></path>
                        <line x1="13.2526316" y1="0" x2="13.2526316" y2="8.42105263" id="Line-2" stroke="#DEDFE5" stroke-width="3" stroke-linecap="round"></line>
                        <line x1="46.2526316" y1="-2.64677169e-13" x2="46.2526316" y2="8.42105263" id="Line-2" stroke="#DEDFE5" stroke-width="3" stroke-linecap="round"></line>
                    </g>
                    <g id="Group-5" transform="translate(81.639618, 3.407910)" fill="#000000" fill-rule="nonzero">
                        <path d="M5.18155489,5.79571105 C5.02026135,5.79571105 4.86517141,5.73367507 4.74109946,5.61580672 L0.181455229,1.05616249 C-0.0604850765,0.814222183 -0.0604850765,0.423395535 0.181455229,0.181455229 C0.423395535,-0.0604850765 0.814222183,-0.0604850765 1.05616249,0.181455229 L5.61580672,4.74109946 C5.85774702,4.98303976 5.85774702,5.37386641 5.61580672,5.61580672 C5.49793836,5.73367507 5.34284842,5.79571105 5.18155489,5.79571105 Z" id="Path"></path>
                        <path d="M0.621910658,5.79571105 C0.460617121,5.79571105 0.305527181,5.73367507 0.181455229,5.61580672 C-0.0604850765,5.37386641 -0.0604850765,4.98303976 0.181455229,4.74109946 L4.74109946,0.181455229 C4.98303976,-0.0604850765 5.37386641,-0.0604850765 5.61580672,0.181455229 C5.85774702,0.423395535 5.85774702,0.814222183 5.61580672,1.05616249 L1.05616249,5.61580672 C0.938294135,5.73367507 0.783204196,5.79571105 0.621910658,5.79571105 Z" id="Path"></path>
                    </g>
                </g>
            </g>
        </g>
    </g>
</svg>