<?xml version="1.0" encoding="UTF-8"?>
<svg width="48px" height="46px" viewBox="0 0 48 46" version="1.1" xmlns="http://www.w3.org/2000/svg" xmlns:xlink="http://www.w3.org/1999/xlink">
    <title>pending-icon</title>
    <g id="pending-icon" stroke="none" stroke-width="1" fill="none" fill-rule="evenodd">
        <g transform="translate(1.000000, 8.000000)" id="Group-10">
            <g transform="translate(0.305558, 0.969475)">
                <path d="M1.52806152,24.5353198 C0.683807531,24.5353198 0,23.8515123 0,23.0072583 C0,22.1630043 0.683807531,21.4791968 1.52806152,21.4791968 C2.37231551,21.4791968 3.05612304,22.1630043 3.05612304,23.0072583 C3.05612304,23.8515123 2.36849536,24.5353198 1.52806152,24.5353198 Z M1.52806152,22.2432275 C1.1078446,22.2432275 0.764030761,22.5870414 0.764030761,23.0072583 C0.764030761,23.4274752 1.1078446,23.7712891 1.52806152,23.7712891 C1.94827844,23.7712891 2.29209228,23.4274752 2.29209228,23.0072583 C2.29209228,22.5870414 1.94827844,22.2432275 1.52806152,22.2432275 Z" id="Shape" fill="#000000" fill-rule="nonzero"></path>
                <g id="Group" transform="translate(12.079258, 1.858722)">
                    <path d="M14.1066667,1 C17.7259727,1 21.0026394,2.46701364 23.3744795,4.83885379 C25.7463197,7.21069394 27.2133333,10.4873606 27.2133333,14.1066667 C27.2133333,17.7259727 25.7463197,21.0026394 23.3744795,23.3744795 C21.0026394,25.7463197 17.7259727,27.2133333 14.1066667,27.2133333 C10.4873606,27.2133333 7.21069394,25.7463197 4.83885379,23.3744795 C2.46701364,21.0026394 1,17.7259727 1,14.1066667 C1,10.4873606 2.46701364,7.21069394 4.83885379,4.83885379 C7.21069394,2.46701364 10.4873606,1 14.1066667,1 Z" id="Oval" stroke="#0057A8" stroke-width="2" fill="#FFFFFF" fill-rule="nonzero"></path>
                    <g id="Group-8" transform="translate(5.520000, 12.266667)" fill="#0057A8">
                        <circle id="Oval" cx="2.14666667" cy="2.14666667" r="2.14666667"></circle>
                        <circle id="Oval" opacity="0.675531432" cx="8.89333333" cy="2.14666667" r="2.14666667"></circle>
                        <circle id="Oval" opacity="0.275890262" cx="15.64" cy="2.14666667" r="2.14666667"></circle>
                    </g>
                </g>
                <path d="M45.3066421,3.56897869 C45.2073181,3.56897869 45.1118142,3.53077715 45.0354112,3.45819423 L42.2275981,0.650381185 C42.0786121,0.501395187 42.0786121,0.260725497 42.2275981,0.111739499 C42.3765841,-0.0372464996 42.6172538,-0.0372464996 42.7662398,0.111739499 L45.5740529,2.91955254 C45.7230388,3.06853854 45.7230388,3.30920823 45.5740529,3.45819423 C45.5014699,3.53077715 45.4059661,3.56897869 45.3066421,3.56897869 Z" id="Path" fill="#000000" fill-rule="nonzero"></path>
                <path d="M42.498829,3.56897869 C42.399505,3.56897869 42.3040012,3.53077715 42.2275981,3.45819423 C42.0786121,3.30920823 42.0786121,3.06853854 42.2275981,2.91955254 L45.0354112,0.111739499 C45.1843972,-0.0372464996 45.4250669,-0.0372464996 45.5740529,0.111739499 C45.7230388,0.260725497 45.7230388,0.501395187 45.5740529,0.650381185 L42.7662398,3.45819423 C42.6936569,3.53077715 42.598153,3.56897869 42.498829,3.56897869 Z" id="Path" fill="#000000" fill-rule="nonzero"></path>
            </g>
        </g>
    </g>
</svg>