<?xml version="1.0" encoding="UTF-8"?>
<svg width="48px" height="48px" viewBox="0 0 48 48" version="1.1" xmlns="http://www.w3.org/2000/svg" xmlns:xlink="http://www.w3.org/1999/xlink">
    <title>play</title>
    <g id="play" stroke="none" stroke-width="1" fill="none" fill-rule="evenodd">
        <g transform="translate(9.000000, 9.000000)">
            <path d="M7,0 L23,0 C26.8659932,-7.10171439e-16 30,3.13400675 30,7 L30,23 C30,26.8659932 26.8659932,30 23,30 L7,30 C3.13400675,30 4.73447626e-16,26.8659932 0,23 L0,7 C-4.73447626e-16,3.13400675 3.13400675,7.10171439e-16 7,0 Z" id="Rectangle" fill="#D1E9FF"></path>
            <path d="M13.9864805,10.4764373 C13.4626104,9.99043732 12.6978442,9.86420355 12.0393247,10.1534893 C11.3976364,10.4333074 11,11.0318659 11,11.7145802 L11,18.805762 C11,19.4884763 11.3976364,20.0870347 12.0393247,20.3668529 C12.2739091,20.4699438 12.5232208,20.5193854 12.7683247,20.5193854 C13.2132987,20.5193854 13.6498571,20.3563334 13.9854286,20.0449568 L19.452987,16.4998919 C19.8011818,16.1779958 20,15.72671 20,15.2596451 C20,14.7936321 19.8011818,14.3412945 19.452987,14.0204503 L13.9864805,10.4764373 Z" id="Path" fill="#0057A8"></path>
        </g>
    </g>
</svg>