<?xml version="1.0" encoding="UTF-8"?>
<svg width="42px" height="42px" viewBox="0 0 42 42" version="1.1" xmlns="http://www.w3.org/2000/svg" xmlns:xlink="http://www.w3.org/1999/xlink">
    <title>profile</title>
    <g id="profile" stroke="none" stroke-width="1" fill="none" fill-rule="evenodd">
        <g id="Group-4" transform="translate(3.000000, 3.000000)" fill="#B9CADB" fill-rule="nonzero">
            <path d="M17.5,-1.75 C6.8685183,-1.75 -1.75,6.8685183 -1.75,17.5 C-1.75,23.4812304 0.998818862,29.0070209 5.5920213,32.625924 L6.35527317,33.1974927 C7.22274588,33.8143822 8.14006217,34.358675 9.09808499,34.8240848 C11.6946665,36.0855094 14.5518155,36.75 17.5,36.75 C20.2025018,36.75 22.828507,36.1916436 25.2474368,35.126966 L26.0564021,34.7481747 C26.8068238,34.3752582 27.531833,33.9536503 28.2269419,33.4863917 L28.8781527,33.0284011 C33.8013306,29.4011439 36.75,23.6948519 36.75,17.5 C36.75,6.86851857 28.1314811,-1.75 17.5,-1.75 Z M17.5,1.75 C26.1984845,1.75 33.25,8.80151522 33.25,17.5 C33.25,22.5707828 30.8391285,27.2363233 26.8325717,30.188653 L26.2431976,30.6031075 C25.8847847,30.8437076 25.5017242,31.0771904 25.1043374,31.2964747 L24.3725453,31.6759054 C22.2499829,32.7070502 19.9154309,33.25 17.5,33.25 C15.0845684,33.25 12.750014,32.7070498 10.6274728,31.675915 C10.0398866,31.3904642 9.47086286,31.0686309 8.92357797,30.7125722 L8.16742996,30.1886546 C4.16087185,27.23632 1.75,22.5707772 1.75,17.5 C1.75,8.80151492 8.80151492,1.75 17.5,1.75 Z" id="user-/-user_circle"></path>
            <path d="M18.0147059,6.89705882 C14.1487125,6.89705882 11.0147059,10.0310655 11.0147059,13.8970588 C11.0147059,15.9990852 11.949071,17.9474127 13.5194733,19.263237 L13.9616198,19.6048438 C14.2770288,19.8291419 14.6106166,20.0270774 14.9590742,20.1963589 C15.9037125,20.6552662 16.9433625,20.8970588 18.0147059,20.8970588 C18.933,20.8970588 19.8280088,20.7194153 20.6598591,20.379669 L21.1211485,20.1714071 C21.369233,20.0481384 21.6046098,19.9135386 21.83152,19.7657182 L22.1324241,19.5577714 C23.9420927,18.2249629 25.0147059,16.149232 25.0147059,13.8970588 C25.0147059,10.0310656 21.880699,6.89705882 18.0147059,6.89705882 Z M18.0147059,9.57352941 C20.4025252,9.57352941 22.3382353,11.5092395 22.3382353,13.8970588 C22.3382353,15.2896498 21.6768794,16.5695118 20.5760697,17.3806704 L20.3385639,17.5446627 L20.2192646,17.6180577 L19.8954078,17.791572 C19.3186678,18.0717384 18.6786498,18.2205882 18.0147059,18.2205882 C17.3507617,18.2205882 16.7107429,18.0717383 16.1286061,17.788935 L15.8131593,17.6191229 L15.4533456,17.3806731 C14.3525327,16.569511 13.6911765,15.2896481 13.6911765,13.8970588 C13.6911765,11.5092394 15.6268864,9.57352941 18.0147059,9.57352941 Z" id="user-/-user_circle"></path>
            <path d="M17.4999977,23.8823529 C13.7106427,23.8823529 10.210927,27.3016323 7.88986929,31.7983493 L7.26670426,33.0056423 L8.48328638,33.6104719 C11.2616569,34.9917523 14.3301731,35.7205882 17.5,35.7205882 C20.6698251,35.7205882 23.7383414,34.991752 26.5167104,33.6104718 L27.7332919,33.0056422 L27.1101275,31.7983496 C24.789072,27.3016337 21.2893535,23.8823529 17.4999977,23.8823529 Z M17.81235,26.5731531 C19.9058734,26.7633147 22.2104075,28.8281195 23.976125,31.688654 L24.0347059,31.7882353 L23.9866418,31.8108791 C21.94432,32.6210185 19.7533121,33.0441176 17.5,33.0441176 L16.7513216,33.0284968 C15.0103426,32.9557148 13.3128605,32.6294077 11.699518,32.0665413 L10.9632353,31.7882353 L11.023872,31.688654 C12.8778764,28.6850922 15.3259234,26.5588235 17.4999977,26.5588235 L17.81235,26.5731531 Z" id="user-/-user_circle"></path>
        </g>
    </g>
</svg>