<?xml version="1.0" encoding="UTF-8"?>
<svg width="43px" height="30px" viewBox="0 0 43 30" version="1.1" xmlns="http://www.w3.org/2000/svg" xmlns:xlink="http://www.w3.org/1999/xlink">
    <title>proposal</title>
    <g id="Page-1" stroke="none" stroke-width="1" fill="none" fill-rule="evenodd">
        <g id="proposal" fill-rule="nonzero">
            <path d="M1.7397977,15.8696995 C0.792764961,15.8696995 0.025711296,15.1026459 0.025711296,14.1556131 C0.025711296,13.2085804 0.792764961,12.4415267 1.7397977,12.4415267 C2.68683043,12.4415267 3.4538841,13.2085804 3.4538841,14.1556131 C3.4538841,15.1026459 2.68254522,15.8696995 1.7397977,15.8696995 Z M1.7397977,13.2985699 C1.26842394,13.2985699 0.882754497,13.6842394 0.882754497,14.1556131 C0.882754497,14.6269869 1.26842394,15.0126563 1.7397977,15.0126563 C2.21117146,15.0126563 2.5968409,14.6269869 2.5968409,14.1556131 C2.5968409,13.6842394 2.21117146,13.2985699 1.7397977,13.2985699 Z" id="Shape" fill="#000000"></path>
            <path d="M42.2479446,5.25093428 C42.136529,5.25093428 42.0293986,5.20808212 41.9436943,5.12666301 L38.7940605,1.97702925 C38.6269371,1.80990582 38.6269371,1.53993722 38.7940605,1.37281379 C38.9611839,1.20569037 39.2311525,1.20569037 39.3982759,1.37281379 L42.5479097,4.52244756 C42.7150331,4.68957098 42.7150331,4.95953959 42.5479097,5.12666301 C42.4664906,5.20808212 42.3593602,5.25093428 42.2479446,5.25093428 Z" id="Path" fill="#000000"></path>
            <path d="M39.0983108,5.25093428 C38.9868952,5.25093428 38.8797648,5.20808212 38.7940605,5.12666301 C38.6269371,4.95953959 38.6269371,4.68957098 38.7940605,4.52244756 L41.9436943,1.37281379 C42.1108177,1.20569037 42.3807863,1.20569037 42.5479097,1.37281379 C42.7150331,1.53993722 42.7150331,1.80990582 42.5479097,1.97702925 L39.3982759,5.12666301 C39.3168568,5.20808212 39.2097264,5.25093428 39.0983108,5.25093428 Z" id="Path" fill="#000000"></path>
            <g id="Group-3" transform="translate(11.000000, 0.000000)">
                <path d="M24,16 L24,26.5 C24,27.1903559 23.720178,27.8153559 23.267767,28.267767 C22.8153559,28.720178 22.1903559,29 21.5,29 L21.5,29 L20.5,29 C19.8096441,29 19.1846441,28.720178 18.732233,28.267767 C18.279822,27.8153559 18,27.1903559 18,26.5 L18,26.5 L18,18.5 C18,17.8096441 18.279822,17.1846441 18.732233,16.732233 C19.1846441,16.279822 19.8096441,16 20.5,16 L20.5,16 L24,16 Z" id="Rectangle" stroke="#0057A8" stroke-width="2" fill="#FFFFFF"></path>
                <path d="M11.94375,1 L18.8774339,10.0952316 L18.7404729,28.9977352 L16.805,29 L3.19375,29 C2.60460578,29 2.08115022,28.701953 1.69792968,28.2519876 C1.26102524,27.7389882 1,27.028321 1,26.25 L1,26.25 L1,3.75 C1,2.97167896 1.26102524,2.26101178 1.69792968,1.74801244 C2.08115022,1.29804703 2.60460578,1 3.19375,1 L3.19375,1 L11.94375,1 Z" id="Path" stroke="#0057A8" stroke-width="2" fill="#FFFFFF"></path>
                <path d="M12.55,2.86978823 L18.388627,10.45 L13.871,10.45 C13.6213535,10.45 13.1627339,10.2931483 12.8150863,10.0791209 L12.8150863,10.0791209 L12.55,2.86978823 Z" id="Path" stroke="#0057A8" stroke-width="1.5" fill="#FFFFFF"></path>
                <path d="M5.95546559,17.0121457 C5.57692308,17.0121457 5.26720648,17.3218623 5.26720648,17.7004049 C5.26720648,18.0789474 5.57692308,18.388664 5.95546559,18.388664 L11.1862348,18.388664 C11.5647773,18.388664 11.8744939,18.0789474 11.8744939,17.7004049 C11.8744939,17.3218623 11.5647773,17.0121457 11.1862348,17.0121457 L5.95546559,17.0121457 Z" id="Path" fill="#E01F27"></path>
                <path d="M5.95546559,20.5910931 C5.57692308,20.5910931 5.26720648,20.9008097 5.26720648,21.2793522 C5.26720648,21.6578947 5.57692308,21.9676113 5.95546559,21.9676113 L13.9757085,21.9676113 C14.354251,21.9676113 14.6639676,21.6578947 14.6639676,21.2793522 C14.6639676,20.9008097 14.354251,20.5910931 13.9757085,20.5910931 L5.95546559,20.5910931 Z" id="Path" fill="#E01F27"></path>
            </g>
        </g>
    </g>
</svg>