<?xml version="1.0" encoding="UTF-8"?>
<svg width="14px" height="18px" viewBox="0 0 14 18" version="1.1" xmlns="http://www.w3.org/2000/svg" xmlns:xlink="http://www.w3.org/1999/xlink">
    <title>pwd</title>
    <g id="Page-1" stroke="none" stroke-width="1" fill="none" fill-rule="evenodd">
        <g id="Glocal-Login" transform="translate(-823.000000, -342.000000)" fill="#FFFFFF" fill-rule="nonzero" stroke="#8392B3" stroke-width="1.3">
            <g id="Group-6" transform="translate(431.000000, 141.000000)">
                <g id="Group-3" transform="translate(60.000000, 184.000000)">
                    <g id="pwd" transform="translate(333.000000, 18.000000)">
                        <path d="M9,5 L3,5 L2.25,5 C1.0095,5 0,6.0095 0,7.25 L0,13.25 C0,14.4905 1.0095,15.5 2.25,15.5 L9.75,15.5 C10.9905,15.5 12,14.4905 12,13.25 L12,7.25 C12,6.0095 10.9905,5 9.75,5 L9,5 Z" id="Path"></path>
                        <circle id="Oval" cx="6" cy="11" r="2"></circle>
                        <path d="M9,5.42307692 L9,3.08325 C9,1.38375 7.6545,0 6,0 C4.3455,0 3,1.38375 3,3.08325 L3,5.42307692 L2.25,5.42307692 C1.0095,5.42307692 10.9905,5.42307692 9.75,5.42307692 L9,5.42307692 Z" id="Path"></path>
                    </g>
                </g>
            </g>
        </g>
    </g>
</svg>