<?xml version="1.0" encoding="UTF-8"?>
<svg width="48px" height="46px" viewBox="0 0 48 46" version="1.1" xmlns="http://www.w3.org/2000/svg" xmlns:xlink="http://www.w3.org/1999/xlink">
    <title>queries</title>
    <g id="queries" stroke="none" stroke-width="1" fill="none" fill-rule="evenodd">
        <path d="M24,19.5 C24.828,19.5 25.5,20.172 25.5,21 C25.5,21.828 24.828,22.5 24,22.5 C23.172,22.5 22.5,21.828 22.5,21 C22.5,20.172 23.172,19.5 24,19.5 Z M30,19.5 C30.828,19.5 31.5,20.172 31.5,21 C31.5,21.828 30.828,22.5 30,22.5 C29.172,22.5 28.5,21.828 28.5,21 C28.5,20.172 29.172,19.5 30,19.5 Z M18,19.5 C18.828,19.5 19.5,20.172 19.5,21 C19.5,21.828 18.828,22.5 18,22.5 C17.172,22.5 16.5,21.828 16.5,21 C16.5,20.172 17.172,19.5 18,19.5 Z M36,28.5 C36,29.3265 35.3265,30 34.5,30 L18.831,30 C18.0165,30 17.2155,30.222 16.515,30.642 L12,33.351 L12,13.5 C12,12.6735 12.6735,12 13.5,12 L34.5,12 C35.3265,12 36,12.6735 36,13.5 L36,28.5 Z M34.5,9 L13.5,9 C11.019,9 9,11.019 9,13.5 L9,36 C9,36.54 9.291,37.0395 9.7605,37.305 C9.99,37.4355 10.245,37.5 10.5,37.5 C10.767,37.5 11.034,37.4295 11.2725,37.2855 L18.0585,33.2145 C18.2925,33.0735 18.5595,33 18.831,33 L34.5,33 C36.981,33 39,30.981 39,28.5 L39,13.5 C39,11.019 36.981,9 34.5,9 L34.5,9 Z" fill="#7D91A4" fill-rule="nonzero"></path>
    </g>
</svg>