<?xml version="1.0" encoding="UTF-8"?>
<svg width="81px" height="47px" viewBox="0 0 81 47" version="1.1" xmlns="http://www.w3.org/2000/svg" xmlns:xlink="http://www.w3.org/1999/xlink">
    <title>reports</title>
    <g id="Page-1" stroke="none" stroke-width="1" fill="none" fill-rule="evenodd">
        <g id="Glocal-Dashboard" transform="translate(-178.000000, -328.000000)">
            <g id="Group-12" transform="translate(83.000000, 157.000000)">
                <g id="Group-5" transform="translate(0.000000, 135.000000)">
                    <g id="Group-4" transform="translate(17.000000, 36.000000)">
                        <g id="reports" transform="translate(78.000000, 0.000000)">
                            <path d="M2.95361005,32.9415829 C1.34585679,32.9415829 0.0436494095,31.6393755 0.0436494095,30.0316223 C0.0436494095,28.423869 1.34585679,27.1216617 2.95361005,27.1216617 C4.5613633,27.1216617 5.86357068,28.423869 5.86357068,30.0316223 C5.86357068,31.6393755 4.5540884,32.9415829 2.95361005,32.9415829 Z M2.95361005,28.576642 C2.15337087,28.576642 1.49862973,29.2313831 1.49862973,30.0316223 C1.49862973,30.8318615 2.15337087,31.4866026 2.95361005,31.4866026 C3.75384922,31.4866026 4.40859036,30.8318615 4.40859036,30.0316223 C4.40859036,29.2313831 3.75384922,28.576642 2.95361005,28.576642 Z" id="Shape" fill="#000000" fill-rule="nonzero"></path>
                            <g id="jobs" transform="translate(20.000000, 10.000000)">
                                <path d="M14.6,7.34591875e-13 L28.8,7.34591875e-13 C29.9045695,7.36351078e-13 30.8,0.8954305 30.8,2 L30.8,12.74 L30.8,12.74 L12.6,12.74 L12.6,2 C12.6,0.8954305 13.4954305,7.34794781e-13 14.6,7.34591875e-13 Z" id="Rectangle" stroke="#0057A8" stroke-width="2" fill="#FFFFFF" fill-rule="nonzero"></path>
                                <path d="M3,8.07692308 L39,8.07692308 C40.6568542,8.07692308 42,9.42006883 42,11.0769231 L42,32.8615385 C42,34.5183927 40.6568542,35.8615385 39,35.8615385 L3,35.8615385 C1.34314575,35.8615385 6.46995335e-16,34.5183927 0,32.8615385 L0,11.0769231 C9.76974179e-16,9.42006883 1.34314575,8.07692308 3,8.07692308 Z" id="Rectangle" stroke="#0057A8" stroke-width="2" fill="#FFFFFF" fill-rule="nonzero"></path>
                                <line x1="1.8" y1="21.4846154" x2="40.6" y2="21.4846154" id="Line" stroke="#0057A8" stroke-linecap="square"></line>
                                <circle id="Oval" fill="#E01F27" fill-rule="nonzero" cx="20.65" cy="21.8346154" r="5.25"></circle>
                            </g>
                            <path d="M79.7232548,6.9143768 C79.5341073,6.9143768 79.3522348,6.84162778 79.2067368,6.70340465 L73.8596841,1.35635198 C73.5759629,1.07263082 73.5759629,0.614312019 73.8596841,0.330590857 C74.1434053,0.0468696949 74.6017241,0.0468696949 74.8854452,0.330590857 L80.2324979,5.67764353 C80.516219,5.96136469 80.516219,6.41968349 80.2324979,6.70340465 C80.0942748,6.84162778 79.9124022,6.9143768 79.7232548,6.9143768 Z" id="Path" fill="#000000" fill-rule="nonzero"></path>
                            <path d="M74.3762021,6.9143768 C74.1870547,6.9143768 74.0051821,6.84162778 73.8596841,6.70340465 C73.5759629,6.41968349 73.5759629,5.96136469 73.8596841,5.67764353 L79.2067368,0.330590857 C79.4904579,0.0468696949 79.9487767,0.0468696949 80.2324979,0.330590857 C80.516219,0.614312019 80.516219,1.07263082 80.2324979,1.35635198 L74.8854452,6.70340465 C74.7472221,6.84162778 74.5653495,6.9143768 74.3762021,6.9143768 Z" id="Path" fill="#000000" fill-rule="nonzero"></path>
                        </g>
                    </g>
                </g>
            </g>
        </g>
    </g>
</svg>