<?xml version="1.0" encoding="UTF-8"?>
<svg width="48px" height="46px" viewBox="0 0 48 46" version="1.1" xmlns="http://www.w3.org/2000/svg" xmlns:xlink="http://www.w3.org/1999/xlink">
    <title>research</title>
    <g id="research" stroke="none" stroke-width="1" fill="none" fill-rule="evenodd">
        <g transform="translate(3.000000, 13.000000)">
            <path d="M1.7397977,19.8696995 C0.792764961,19.8696995 0.025711296,19.1026459 0.025711296,18.1556131 C0.025711296,17.2085804 0.792764961,16.4415267 1.7397977,16.4415267 C2.68683043,16.4415267 3.4538841,17.2085804 3.4538841,18.1556131 C3.4538841,19.1026459 2.68254522,19.8696995 1.7397977,19.8696995 Z M1.7397977,17.2985699 C1.26842394,17.2985699 0.882754497,17.6842394 0.882754497,18.1556131 C0.882754497,18.6269869 1.26842394,19.0126563 1.7397977,19.0126563 C2.21117146,19.0126563 2.5968409,18.6269869 2.5968409,18.1556131 C2.5968409,17.6842394 2.21117146,17.2985699 1.7397977,17.2985699 Z" id="Shape" fill="#000000" fill-rule="nonzero"></path>
            <path d="M42.2479446,9.25093428 C42.136529,9.25093428 42.0293986,9.20808212 41.9436943,9.12666301 L38.7940605,5.97702925 C38.6269371,5.80990582 38.6269371,5.53993722 38.7940605,5.37281379 C38.9611839,5.20569037 39.2311525,5.20569037 39.3982759,5.37281379 L42.5479097,8.52244756 C42.7150331,8.68957098 42.7150331,8.95953959 42.5479097,9.12666301 C42.4664906,9.20808212 42.3593602,9.25093428 42.2479446,9.25093428 Z" id="Path" fill="#000000" fill-rule="nonzero"></path>
            <path d="M39.0983108,9.25093428 C38.9868952,9.25093428 38.8797648,9.20808212 38.7940605,9.12666301 C38.6269371,8.95953959 38.6269371,8.68957098 38.7940605,8.52244756 L41.9436943,5.37281379 C42.1108177,5.20569037 42.3807863,5.20569037 42.5479097,5.37281379 C42.7150331,5.53993722 42.7150331,5.80990582 42.5479097,5.97702925 L39.3982759,9.12666301 C39.3168568,9.20808212 39.2097264,9.25093428 39.0983108,9.25093428 Z" id="Path" fill="#000000" fill-rule="nonzero"></path>
            <g id="Group-8" transform="translate(9.000000, 0.000000)">
                <line x1="14.8920898" y1="15.4033203" x2="20.8372484" y2="20.7563652" id="Line-2" stroke="#0057A8" stroke-width="2.5" stroke-linecap="round"></line>
                <circle id="Oval" stroke="#0057A8" stroke-width="2" fill="#FFFFFF" fill-rule="nonzero" cx="9.5" cy="9.5" r="8.5"></circle>
                <path d="M4.82738095,10.1071429 C4.45089286,10.1071429 4.14285714,10.4151786 4.14285714,10.7916667 C4.14285714,11.1681548 4.45089286,11.4761905 4.82738095,11.4761905 L8.31547619,11.4761905 C8.69196429,11.4761905 9,11.1681548 9,10.7916667 C9,10.4151786 8.69196429,10.1071429 8.31547619,10.1071429 L4.82738095,10.1071429 Z" id="Path" fill="#E01F27" fill-rule="nonzero" transform="translate(6.571429, 10.791667) rotate(-90.000000) translate(-6.571429, -10.791667) "></path>
                <path d="M6.4702381,8.46428571 C6.09375,8.46428571 5.78571429,8.77232143 5.78571429,9.14880952 C5.78571429,9.52529762 6.09375,9.83333333 6.4702381,9.83333333 L13.2440476,9.83333333 C13.6205357,9.83333333 13.9285714,9.52529762 13.9285714,9.14880952 C13.9285714,8.77232143 13.6205357,8.46428571 13.2440476,8.46428571 L6.4702381,8.46428571 Z" id="Path" fill="#E01F27" fill-rule="nonzero" transform="translate(9.857143, 9.148810) rotate(-90.000000) translate(-9.857143, -9.148810) "></path>
                <path d="M10.8566019,9.56493523 C10.4801138,9.56493523 10.1720781,9.87297095 10.1720781,10.249459 C10.1720781,10.6259471 10.4801138,10.9339829 10.8566019,10.9339829 L16.0589829,10.9339829 C16.4354709,10.9339829 14.7435067,10.6259471 14.7435067,10.249459 C14.7435067,9.87297095 16.4354709,9.56493523 16.0589829,9.56493523 L10.8566019,9.56493523 Z" id="Path" fill="#E01F27" fill-rule="nonzero" transform="translate(13.142857, 10.249459) rotate(-90.000000) translate(-13.142857, -10.249459) "></path>
            </g>
        </g>
    </g>
</svg>