<?xml version="1.0" encoding="UTF-8"?>
<svg width="73px" height="42px" viewBox="0 0 73 42" version="1.1" xmlns="http://www.w3.org/2000/svg" xmlns:xlink="http://www.w3.org/1999/xlink">
    <title>RSP</title>
    <g id="Page-1" stroke="none" stroke-width="1" fill="none" fill-rule="evenodd">
        <g id="Glocal-Dashboard" transform="translate(-803.000000, -333.000000)" fill-rule="nonzero">
            <g id="Group-12" transform="translate(83.000000, 157.000000)">
                <g id="Group-5" transform="translate(0.000000, 135.000000)">
                    <g id="Group-9" transform="translate(621.000000, 0.000000)">
                        <g id="Group-10" transform="translate(17.000000, 41.000000)">
                            <g id="RSP" transform="translate(82.000000, 0.000000)">
                                <path d="M2.95361005,24.9415829 C1.34585679,24.9415829 0.0436494095,23.6393755 0.0436494095,22.0316223 C0.0436494095,20.423869 1.34585679,19.1216617 2.95361005,19.1216617 C4.5613633,19.1216617 5.86357068,20.423869 5.86357068,22.0316223 C5.86357068,23.6393755 4.5540884,24.9415829 2.95361005,24.9415829 Z M2.95361005,20.576642 C2.15337087,20.576642 1.49862973,21.2313831 1.49862973,22.0316223 C1.49862973,22.8318615 2.15337087,23.4866026 2.95361005,23.4866026 C3.75384922,23.4866026 4.40859036,22.8318615 4.40859036,22.0316223 C4.40859036,21.2313831 3.75384922,20.576642 2.95361005,20.576642 Z" id="Shape" fill="#000000"></path>
                                <g transform="translate(17.000000, 7.000000)">
                                    <path d="M0,4.2 C0,1.88040419 1.88040419,0 4.2,0 L37.8,0 C40.1195978,0 42,1.88040419 42,4.2 L42,29.4 C42,31.7195958 40.1195978,33.6 37.8,33.6 L4.200001,33.6 C1.88040519,33.6 0,31.7195958 0,29.4 L0,4.2 C0,2.65360279 0,2.65360279 0,4.2 Z" id="basic-/-mail" stroke="#0057A8" stroke-width="2" fill="#FFFFFF"></path>
                                    <path d="M4.2,0 L37.8,0 C40.1195978,0 42,1.88040419 42,4.2 L20.5119141,16.4294118 L0,4.2 C0,1.88040419 1.88040419,0 4.2,0 Z" id="basic-/-mail" stroke="#0057A8" stroke-width="2" fill="#FFFFFF"></path>
                                    <path d="M13.9432198,22.755418 C12.9598607,22.755418 12.1552941,23.3990712 12.1552941,24.1857585 C12.1552941,24.9724458 12.9598607,25.6160991 13.9432198,25.6160991 L27.5314551,25.6160991 C28.5148142,25.6160991 29.3193808,24.9724458 29.3193808,24.1857585 C29.3193808,23.3990712 28.5148142,22.755418 27.5314551,22.755418 L13.9432198,22.755418 Z" id="Path" fill="#E01F27"></path>
                                </g>
                                <path d="M71.7232548,6.9143768 C71.5341073,6.9143768 71.3522348,6.84162778 71.2067368,6.70340465 L65.8596841,1.35635198 C65.5759629,1.07263082 65.5759629,0.614312019 65.8596841,0.330590857 C66.1434053,0.0468696949 66.6017241,0.0468696949 66.8854452,0.330590857 L72.2324979,5.67764353 C72.516219,5.96136469 72.516219,6.41968349 72.2324979,6.70340465 C72.0942748,6.84162778 71.9124022,6.9143768 71.7232548,6.9143768 Z" id="Path" fill="#000000"></path>
                                <path d="M66.3762021,6.9143768 C66.1870547,6.9143768 66.0051821,6.84162778 65.8596841,6.70340465 C65.5759629,6.41968349 65.5759629,5.96136469 65.8596841,5.67764353 L71.2067368,0.330590857 C71.4904579,0.0468696949 71.9487767,0.0468696949 72.2324979,0.330590857 C72.516219,0.614312019 72.516219,1.07263082 72.2324979,1.35635198 L66.8854452,6.70340465 C66.7472221,6.84162778 66.5653495,6.9143768 66.3762021,6.9143768 Z" id="Path" fill="#000000"></path>
                            </g>
                        </g>
                    </g>
                </g>
            </g>
        </g>
    </g>
</svg>