<?xml version="1.0" encoding="UTF-8"?>
<svg width="11px" height="11px" viewBox="0 0 11 11" version="1.1" xmlns="http://www.w3.org/2000/svg" xmlns:xlink="http://www.w3.org/1999/xlink">
    <title>Search</title>
    <g id="Page-1" stroke="none" stroke-width="1" fill="none" fill-rule="evenodd">
        <g id="Glocal-CreateJob" transform="translate(-99.000000, -144.000000)" fill="#0D1C2E" fill-rule="nonzero">
            <g id="Group-9" transform="translate(83.000000, 130.000000)">
                <g id="Group" transform="translate(16.000000, 14.000000)">
                    <path d="M1.22223302,4.8889321 C1.22223302,2.86674756 2.86674756,1.22223302 4.8889321,1.22223302 C6.91111664,1.22223302 8.55563117,2.86674756 8.55563117,4.8889321 C8.55563117,6.91111664 6.91111664,8.55563117 4.8889321,8.55563117 C2.86674756,8.55563117 1.22223302,6.91111664 1.22223302,4.8889321 M10.8210401,9.95692133 L8.74629952,7.88156966 C9.38980521,7.0541179 9.7778642,6.01705318 9.7778642,4.8889321 C9.7778642,2.19329716 7.58456703,0 4.8889321,0 C2.19329716,0 0,2.19329716 0,4.8889321 C0,7.58456703 2.19329716,9.7778642 4.8889321,9.7778642 C6.01705318,9.7778642 7.0541179,9.38980521 7.88156966,8.74629952 L9.95692133,10.8210401 C10.0760891,10.9402078 10.2325349,11.0000972 10.3889807,11.0000972 C10.5454265,11.0000972 10.7018724,10.9402078 10.8210401,10.8210401 C11.0599866,10.5820935 11.0599866,10.1958679 10.8210401,9.95692133" id="Search"></path>
                </g>
            </g>
        </g>
    </g>
</svg>