<?xml version="1.0" encoding="UTF-8"?>
<svg width="48px" height="48px" viewBox="0 0 48 48" version="1.1" xmlns="http://www.w3.org/2000/svg" xmlns:xlink="http://www.w3.org/1999/xlink">
    <title>Services</title>
    <g id="Services" stroke="none" stroke-width="1" fill="none" fill-rule="evenodd">
        <path d="M23.4579961,10 C24.6107444,10.0174 25.7852427,10.1333998 26.9104411,10.4030994 C27.68764,10.5915991 28.1675893,11.374598 27.9790896,12.1532469 C27.7920398,12.9304458 27.004691,13.4089451 26.2303921,13.2233454 C25.3299434,13.0058457 24.3743947,12.9144958 23.466696,12.8999958 C20.3680505,12.9086958 17.4579047,14.1237941 15.2742078,16.3205409 C13.089061,18.5172877 11.8913627,21.4346835 11.9000627,24.5333291 C11.9087627,27.6319746 13.1238609,30.5406704 15.3206078,32.7258173 C17.5101046,34.9022642 20.4130004,36.0999624 23.500046,36.0999624 L23.500046,36.0999624 L23.533396,36.0999624 C26.6320415,36.0912624 29.5421873,34.8761642 31.7258842,32.6794174 C33.911031,30.4812205 35.1087293,27.5652747 35.1000293,24.4666292 C35.0985793,23.6662303 35.7452784,23.0137313 36.5456772,23.0122813 L36.5456772,23.0122813 C37.3489761,23.0122813 37.9985751,23.6589803 38.000092,24.4579292 C38.0116251,28.3308736 36.5137773,31.9776184 33.7819812,34.7239144 C31.0516351,37.4702105 27.4150404,38.9883583 23.5420959,38.9999583 L23.5420959,38.9999583 L23.500046,38.9999583 C19.6416016,38.9999583 16.0122568,37.5035604 13.2761107,34.7819143 C10.5298147,32.0515683 9.01166686,28.4149735 9,24.5420291 C8.98846689,20.6676346 10.4863147,17.0223399 13.2181108,14.2760438 C15.9484569,11.5297478 19.5850516,10.0116 23.4579961,10 Z M32.559633,16.2942959 C33.0874322,15.6954468 34.0023809,15.6316469 34.60558,16.1594461 C35.2073291,16.6857954 35.2682291,17.6021941 34.7404298,18.2053932 L34.7404298,18.2053932 L24.5904444,29.8053765 C24.3265448,30.1069761 23.9495454,30.2853258 23.5478959,30.2998258 L23.5478959,30.2998258 L23.500046,30.2998258 C23.1157966,30.2998258 22.7474971,30.147576 22.4748975,29.8749764 L22.4748975,29.8749764 L18.1249037,25.5249827 C17.5579546,24.9580335 17.5579546,24.0416348 18.1249037,23.4746856 C18.6918529,22.9077364 19.6082516,22.9077364 20.1752008,23.4746856 L20.1752008,23.4746856 L23.4289961,26.7284809 Z" fill="#0057A8" fill-rule="nonzero"></path>
    </g>
</svg>