<?xml version="1.0" encoding="UTF-8"?>
<svg width="48px" height="48px" viewBox="0 0 48 48" version="1.1" xmlns="http://www.w3.org/2000/svg" xmlns:xlink="http://www.w3.org/1999/xlink">
    <title>sessions</title>
    <g id="sessions" stroke="none" stroke-width="1" fill="none" fill-rule="evenodd">
        <path d="M29.9369563,31.375 C30.9392688,31.375 31.7494563,32.187 31.7494563,33.1875 C31.7494563,34.188 30.9392688,35 29.9369563,35 L29.9369563,35 L19.0619563,35 C18.0614563,35 17.2494563,34.188 17.2494563,33.1875 C17.2494563,32.187 18.0614563,31.375 19.0619563,31.375 L19.0619563,31.375 Z M24.4994563,24.125 C25.4999563,24.125 26.3119563,24.937 26.3119563,25.9375 C26.3119563,26.938 25.4999563,27.75 24.4994563,27.75 L24.4994563,27.75 L19.0619563,27.75 C18.0614563,27.75 17.2494563,26.938 17.2494563,25.9375 C17.2494563,24.937 18.0614563,24.125 19.0619563,24.125 L19.0619563,24.125 Z M34.36725,38.625 L14.6309375,38.625 C14.0763125,38.625 13.625,38.219 13.625,37.71875 L13.625,10.53125 C13.625,10.031 14.0763125,9.625 14.6309375,9.625 L24.5,9.625 L24.5,15.334375 C24.5,18.183625 26.7058125,20.5 29.419125,20.5 L35.375,20.5 L35.375,37.71875 C35.375,38.219 34.9236875,38.625 34.36725,38.625 L34.36725,38.625 Z M28.125,11.397625 L33.094875,16.875 L29.419125,16.875 C28.705,16.875 28.125,16.1844375 28.125,15.334375 L28.125,11.397625 Z M38.52875,17.4695 L28.6615,6.5945 C28.317125,6.2156875 27.831375,6 27.3184375,6 L14.6309375,6 C12.077125,6 10,8.033625 10,10.53125 L10,37.71875 C10,40.216375 12.077125,42.25 14.6309375,42.25 L34.36725,42.25 C36.9210625,42.25 39,40.216375 39,37.71875 L39,18.6875 C39,18.2361875 38.8314375,17.803 38.52875,17.4695 L38.52875,17.4695 Z" fill="#0057A8" fill-rule="nonzero"></path>
    </g>
</svg>