<?xml version="1.0" encoding="UTF-8"?>
<svg width="48px" height="48px" viewBox="0 0 48 48" version="1.1" xmlns="http://www.w3.org/2000/svg" xmlns:xlink="http://www.w3.org/1999/xlink">
    <title>socia-events</title>
    <g id="socia-events" stroke="none" stroke-width="1" fill="none" fill-rule="evenodd">
        <g transform="translate(9.000000, 9.000000)" fill-rule="nonzero">
            <path d="M26.8571429,0.619047619 C28.5139971,0.619047619 29.8571429,1.96219337 29.8571429,3.61904762 L29.8571429,20.2380952 C29.8571429,21.8949495 28.5139971,23.2380952 26.8571429,23.2380952 L20.812,23.2380476 L15.5,30 L10.188,23.2380476 L3,23.2380952 C1.34314575,23.2380952 2.41027941e-15,21.8949495 0,20.2380952 L0,3.61904762 C-2.02906125e-16,1.96219337 1.34314575,0.619047619 3,0.619047619 L26.8571429,0.619047619 Z" id="Combined-Shape" stroke="#0057A8" stroke-width="2" fill="#FFFFFF"></path>
            <path d="M15.3499986,13.075 C13.0499662,13.075 11.0552586,14.3822477 10.0683285,16.2942835 C11.6592898,17.0852376 13.4527041,17.53 15.35,17.53 C17.2472945,17.53 19.0407088,17.0852376 20.6316694,16.2942835 C19.6447393,14.3822463 17.650031,13.075 15.3499986,13.075 Z" id="user-/-user_circle" fill="#E01F27"></path>
            <circle id="Oval" fill="#E01F27" cx="14.85" cy="9.95" r="2.65"></circle>
        </g>
    </g>
</svg>