<?xml version="1.0" encoding="UTF-8"?>
<svg width="48px" height="46px" viewBox="0 0 48 46" version="1.1" xmlns="http://www.w3.org/2000/svg" xmlns:xlink="http://www.w3.org/1999/xlink">
    <title>standard</title>
    <defs>
        <path d="M29.2272093,31.1116215 C29.0920604,31.1116215 28.9569114,31.0801717 28.8336624,31.0155722 L24.499547,28.7511903 L20.1654316,31.0155722 C19.8781339,31.165171 19.5313366,31.1388213 19.2720887,30.9484228 C19.0102908,30.7580243 18.8802418,30.4358769 18.9346414,30.1171294 L19.7608348,25.3333676 L16.2588627,21.9461446 C16.0251146,21.7208964 15.9418153,21.3825991 16.0412645,21.0740515 C16.1398637,20.765504 16.4067616,20.5411058 16.727209,20.4943562 L21.5730203,19.7905618 L23.7379531,15.4334965 C24.0252508,14.8555012 24.9738432,14.8555012 25.2611409,15.4334965 L27.4260737,19.7905618 L32.271885,20.4943562 C32.5923324,20.5411058 32.8592303,20.765504 32.9578295,21.0740515 C33.0572787,21.3825991 32.9739794,21.7208964 32.7402313,21.9461446 L29.2382592,25.3333676 L30.0644526,30.1171294 C30.1188522,30.4358769 29.9888032,30.7580243 29.7270053,30.9484228 C29.5799565,31.0572219 29.4040079,31.1116215 29.2272093,31.1116215" id="path-1"></path>
    </defs>
    <g id="standard" stroke="none" stroke-width="1" fill="none" fill-rule="evenodd">
        <mask id="mask-2" fill="white">
            <use xlink:href="#path-1"></use>
        </mask>
        <use fill="#B1D9FE" xlink:href="#path-1"></use>
    </g>
</svg>