<?xml version="1.0" encoding="UTF-8"?>
<svg width="86px" height="58px" viewBox="0 0 86 58" version="1.1" xmlns="http://www.w3.org/2000/svg" xmlns:xlink="http://www.w3.org/1999/xlink">
    <title>success-icon</title>
    <g id="Page-1" stroke="none" stroke-width="1" fill="none" fill-rule="evenodd">
        <g id="Glocal-CSR-Test-Submit" transform="translate(-627.000000, -189.000000)" fill-rule="nonzero">
            <g id="Group-6" transform="translate(431.000000, 141.000000)">
                <g id="Group-2" transform="translate(35.000000, 48.000000)">
                    <g id="success-icon" transform="translate(161.000000, 0.000000)">
                        <g id="Group-10" transform="translate(0.345763, 1.097037)">
                            <path d="M2.81922106,45.2668229 C1.26160142,45.2668229 0,44.0052215 0,42.4476018 C0,40.8899822 1.26160142,39.6283808 2.81922106,39.6283808 C4.37684069,39.6283808 5.63844211,40.8899822 5.63844211,42.4476018 C5.63844211,44.0052215 4.36979264,45.2668229 2.81922106,45.2668229 Z M2.81922106,41.0379913 C2.04393527,41.0379913 1.40961053,41.672316 1.40961053,42.4476018 C1.40961053,43.2228876 2.04393527,43.8572124 2.81922106,43.8572124 C3.59450685,43.8572124 4.22883158,43.2228876 4.22883158,42.4476018 C4.22883158,41.672316 3.59450685,41.0379913 2.81922106,41.0379913 Z" id="Shape" fill="#000000"></path>
                            <g id="Group" transform="translate(23.417394, 4.560857)">
                                <path d="M24.8947368,-1.13157895 C10.5207995,-1.13157895 -1.13157895,10.5207995 -1.13157895,24.8947368 C-1.13157895,39.2686741 10.5207995,50.9210526 24.8947368,50.9210526 C39.2686741,50.9210526 50.9210526,39.2686741 50.9210526,24.8947368 C50.9210526,10.5207995 39.2686741,-1.13157895 24.8947368,-1.13157895 Z M24.8947368,1.13157895 C38.0187666,1.13157895 48.6578947,11.7707071 48.6578947,24.8947368 C48.6578947,38.0187666 38.0187666,48.6578947 24.8947368,48.6578947 C11.7707071,48.6578947 1.13157895,38.0187666 1.13157895,24.8947368 C1.13157895,11.7707071 11.7707071,1.13157895 24.8947368,1.13157895 Z" id="Oval" fill="#0057A8"></path>
                                <path d="M37.232342,29.8743175 C36.4206754,35.9638591 31.2062913,40.6614036 24.8947369,40.6614036 C18.5831825,40.6614036 13.3687984,35.9638591 12.5571318,29.8743175 Z" id="Combined-Shape" fill="#E01F27"></path>
                                <rect id="Rectangle" fill="#E01F27" x="11.755848" y="15.0751462" width="6.47239395" height="6.59007384" rx="3.23619697"></rect>
                                <rect id="Rectangle" fill="#E01F27" x="31.6716374" y="15.0751462" width="6.47239395" height="6.59007384" rx="3.23619697"></rect>
                            </g>
                            <path d="M83.5891995,6.58464318 C83.4059501,6.58464318 83.2297488,6.51416265 83.0887878,6.38024965 L77.9084691,1.19993096 C77.633595,0.925056909 77.633595,0.481029593 77.9084691,0.20615554 C78.1833431,-0.0687185132 78.6273704,-0.0687185132 78.9022445,0.20615554 L84.0825632,5.38647423 C84.3574372,5.66134828 84.3574372,6.1053756 84.0825632,6.38024965 C83.9486502,6.51416265 83.7724489,6.58464318 83.5891995,6.58464318 Z" id="Path" fill="#000000"></path>
                            <path d="M78.4088808,6.58464318 C78.2256314,6.58464318 78.0494301,6.51416265 77.9084691,6.38024965 C77.633595,6.1053756 77.633595,5.66134828 77.9084691,5.38647423 L83.0887878,0.20615554 C83.3636618,-0.0687185132 83.8076891,-0.0687185132 84.0825632,0.20615554 C84.3574372,0.481029593 84.3574372,0.925056909 84.0825632,1.19993096 L78.9022445,6.38024965 C78.7683315,6.51416265 78.5921302,6.58464318 78.4088808,6.58464318 Z" id="Path" fill="#000000"></path>
                        </g>
                    </g>
                </g>
            </g>
        </g>
    </g>
</svg>