<?xml version="1.0" encoding="UTF-8"?>
<svg width="27px" height="25px" viewBox="0 0 27 25" version="1.1" xmlns="http://www.w3.org/2000/svg" xmlns:xlink="http://www.w3.org/1999/xlink">
    <title>thumb</title>
    <defs>
        <linearGradient x1="75.4384499%" y1="0%" x2="37.6304531%" y2="76.3239139%" id="linearGradient-1">
            <stop stop-color="#FFDC11" offset="0%"></stop>
            <stop stop-color="#FEB606" offset="100%"></stop>
        </linearGradient>
        <linearGradient x1="59.9380381%" y1="0%" x2="45.1675897%" y2="76.3239139%" id="linearGradient-2">
            <stop stop-color="#FFDC11" offset="0%"></stop>
            <stop stop-color="#FEB606" offset="100%"></stop>
        </linearGradient>
    </defs>
    <g id="Page-1" stroke="none" stroke-width="1" fill="none" fill-rule="evenodd">
        <g id="Glocal-CSR-Test-Q1" transform="translate(-934.000000, -129.000000)" fill-rule="nonzero" stroke="#E8A500">
            <g id="Group-12" transform="translate(407.000000, 104.000000)">
                <g id="Group" transform="translate(528.000000, 26.000000)">
                    <path d="M23.8541667,12.5260417 C24.53125,12.1354167 24.9479167,11.3802083 24.84375,10.546875 C24.7135417,9.50520833 23.75,8.77604167 22.7083333,8.77604167 L16.1979167,8.77604167 C16.25,8.64583333 16.328125,8.46354167 16.3802083,8.30729167 C16.7708333,7.31770833 17.5,5.49479167 17.5,3.61979167 C17.5,1.51041667 16.015625,0.234375 15,0.15625 C14.375,0.130208333 13.90625,0.520833333 13.8020833,1.22395833 C13.6197917,2.55208333 12.734375,4.50520833 12.3697917,5.26041667 C12.265625,5.49479167 12.1354167,5.703125 11.953125,5.88541667 C11.3541667,6.5625 9.84375,8.22916667 8.41145833,9.21875 C8.41145833,9.27083333 8.4375,9.34895833 8.4375,9.40104167 L8.4375,21.875 C8.4375,21.9791667 8.41145833,22.0833333 8.41145833,22.1875 C10.859375,22.890625 13.0729167,23.2291667 15.4947917,23.2291667 L21.0416667,23.2291667 C22.0052083,23.2291667 22.9166667,22.578125 23.0989583,21.640625 C23.2552083,20.859375 22.96875,20.15625 22.4479167,19.6875 C23.3333333,19.4791667 24.0104167,18.671875 24.0104167,17.734375 C24.0104167,17.1354167 23.75,16.5885417 23.3072917,16.2239583 C24.1927083,16.015625 24.8697917,15.2083333 24.8697917,14.2708333 C24.8697917,13.5416667 24.4791667,12.890625 23.8541667,12.5260417 Z" id="Path" fill="url(#linearGradient-1)"></path>
                    <path d="M5.57291667,8.30729167 L1.22395833,8.30729167 C0.625,8.30729167 0.130208333,8.80208333 0.130208333,9.40104167 L0.130208333,21.875 C0.130208333,22.4739583 0.625,22.96875 1.22395833,22.96875 L5.57291667,22.96875 C6.171875,22.96875 6.66666667,22.4739583 6.66666667,21.875 L6.66666667,9.42708333 C6.66666667,8.80208333 6.19791667,8.30729167 5.57291667,8.30729167 Z M3.41145833,21.0677083 C2.78645833,21.0677083 2.265625,20.546875 2.265625,19.921875 C2.265625,19.296875 2.78645833,18.7760417 3.41145833,18.7760417 C4.03645833,18.7760417 4.55729167,19.296875 4.55729167,19.921875 C4.55729167,20.546875 4.03645833,21.0677083 3.41145833,21.0677083 Z" id="Shape" fill="url(#linearGradient-2)"></path>
                </g>
            </g>
        </g>
    </g>
</svg>