<?xml version="1.0" encoding="UTF-8"?>
<svg width="10px" height="8px" viewBox="0 0 10 8" version="1.1" xmlns="http://www.w3.org/2000/svg" xmlns:xlink="http://www.w3.org/1999/xlink">
    <title>tick</title>
    <g id="Page-1" stroke="none" stroke-width="1" fill="none" fill-rule="evenodd">
        <g id="Glocal-CSR-Test-Q7" transform="translate(-796.000000, -560.000000)" fill="#FFFFFF" fill-rule="nonzero">
            <g id="Group-6" transform="translate(435.000000, 193.000000)">
                <g id="Group-2" transform="translate(19.000000, 215.000000)">
                    <g id="Group-5" transform="translate(28.000000, 96.000000)">
                        <path d="M315.298368,60.0246822 C315.001011,59.7273258 314.520374,59.7273258 314.223017,60.0246822 C313.925661,60.3220386 313.925661,60.8026761 314.223017,61.1000326 L316.504524,63.3815397 C316.647499,63.5245141 316.840666,63.6043669 317.0422,63.6043669 C317.050565,63.6043669 317.058931,63.6043669 317.067296,63.6043669 C317.277955,63.5967619 317.475686,63.5032201 317.614097,63.3450356 L322.937614,57.2610166 C323.214437,56.9446476 323.182496,56.4640101 322.866887,56.1879477 C322.550518,55.9111249 322.070641,55.944587 321.793818,56.2586744 L317.004935,61.7312495 L315.298368,60.0246822 Z" id="tick"></path>
                    </g>
                </g>
            </g>
        </g>
    </g>
</svg>