<?xml version="1.0" encoding="UTF-8"?>
<svg width="48px" height="48px" viewBox="0 0 48 48" version="1.1" xmlns="http://www.w3.org/2000/svg" xmlns:xlink="http://www.w3.org/1999/xlink">
    <title>unlocked-icon</title>
    <g id="unlocked-icon" stroke="none" stroke-width="1" fill="none" fill-rule="evenodd">
        <g transform="translate(7.000000, 10.000000)" fill-rule="nonzero">
            <path d="M25.5789474,11.4868421 L12.7894737,11.4868421 C10.9582137,11.4868421 9.47368421,12.9713716 9.47368421,14.8026316 L9.47368421,24.7995179 C9.47368421,26.6307779 10.9582137,28.1153074 12.7894737,28.1153074 L25.5789474,28.1153074 C27.4102073,28.1153074 28.8947368,26.6307779 28.8947368,24.7995179 L28.8947368,14.8026316 C28.8947368,12.9713716 27.4102073,11.4868421 25.5789474,11.4868421 Z M12.7894737,12.4342105 L25.5789474,12.4342105 C26.8869902,12.4342105 27.9473684,13.4945888 27.9473684,14.8026316 L27.9473684,24.7995179 C27.9473684,26.1075607 26.8869902,27.167939 25.5789474,27.167939 L12.7894737,27.167939 C11.4814309,27.167939 10.4210526,26.1075607 10.4210526,24.7995179 L10.4210526,14.8026316 C10.4210526,13.4945888 11.4814309,12.4342105 12.7894737,12.4342105 Z" id="Rectangle" fill="#0057A8"></path>
            <path d="M24.6420266,4.30263158 C25.1414611,4.30263158 25.5506311,4.68910001 25.5867965,5.17929678 L25.589395,5.25 L25.589395,11.9720738 C25.589395,12.4715083 25.2029266,12.8806783 24.7127298,12.9168437 L24.6420266,12.9194422 L22.0074352,12.9194422 C21.7175923,12.9194422 21.4452632,12.7868905 21.2664515,12.562381 L21.2200603,12.4989017 L22.0074352,11.9720738 L24.6420266,11.9720738 L24.6420266,5.25 L17.5097349,5.25 L17.5097349,4.30263158 L24.6420266,4.30263158 Z" id="Rectangle" fill="#0057A8" transform="translate(21.549565, 8.611037) rotate(-90.000000) translate(-21.549565, -8.611037) "></path>
            <rect id="Rectangle" fill="#E01F27" x="17.1315789" y="17.6052632" width="4.34053425" height="4.41945305" rx="2.17026713"></rect>
            <g id="Group-10" transform="translate(0.144738, 0.459225)" fill="#000000">
                <path d="M1.18013905,18.9489026 C0.528112223,18.9489026 0,18.4207904 0,17.7687636 C0,17.1167367 0.528112223,16.5886245 1.18013905,16.5886245 C1.83216587,16.5886245 2.36027809,17.1167367 2.36027809,17.7687636 C2.36027809,18.4207904 1.82921552,18.9489026 1.18013905,18.9489026 Z M1.18013905,17.178694 C0.855600809,17.178694 0.590069523,17.4442253 0.590069523,17.7687636 C0.590069523,18.0933018 0.855600809,18.3588331 1.18013905,18.3588331 C1.50467728,18.3588331 1.77020857,18.0933018 1.77020857,17.7687636 C1.77020857,17.4442253 1.50467728,17.178694 1.18013905,17.178694 Z" id="Shape"></path>
                <path d="M34.9908277,2.75636226 C34.9141187,2.75636226 34.84036,2.72685878 34.781353,2.67080218 L32.6128475,0.502296682 C32.497784,0.387233125 32.497784,0.201361225 32.6128475,0.0862976678 C32.7279111,-0.0287658893 32.913783,-0.0287658893 33.0288465,0.0862976678 L35.197352,2.25480317 C35.3124156,2.36986672 35.3124156,2.55573862 35.197352,2.67080218 C35.1412954,2.72685878 35.0675367,2.75636226 34.9908277,2.75636226 Z" id="Path"></path>
                <path d="M32.8223222,2.75636226 C32.7456132,2.75636226 32.6718545,2.72685878 32.6128475,2.67080218 C32.497784,2.55573862 32.497784,2.36986672 32.6128475,2.25480317 L34.781353,0.0862976678 C34.8964166,-0.0287658893 35.0822885,-0.0287658893 35.197352,0.0862976678 C35.3124156,0.201361225 35.3124156,0.387233125 35.197352,0.502296682 L33.0288465,2.67080218 C32.9727899,2.72685878 32.8990312,2.75636226 32.8223222,2.75636226 Z" id="Path"></path>
            </g>
        </g>
    </g>
</svg>