<?xml version="1.0" encoding="UTF-8"?>
<svg width="48px" height="46px" viewBox="0 0 48 46" version="1.1" xmlns="http://www.w3.org/2000/svg" xmlns:xlink="http://www.w3.org/1999/xlink">
    <title>upload</title>
    <defs>
        <path d="M23.312,22.499 L20.4625,24.6375 C20.24875,24.7978125 19.999375,24.875 19.7511875,24.875 C19.389,24.875 19.0339375,24.711125 18.8,24.4 C18.40575,23.875125 18.512625,23.1305625 19.0375,22.7375 L23.7875,19.175 C24.198375,18.86625 24.763625,18.8579375 25.1828125,19.153625 L29.9328125,22.49525 C30.4695625,22.872875 30.599,23.613875 30.221375,24.1494375 C29.84375,24.685 29.1039375,24.815625 28.5671875,24.438 L25.6840802,22.4091706 C25.6863464,22.4391511 25.6875,22.4694413 25.6875,22.5 L25.6875,32 C25.6875,32.6555 25.1566875,33.1875 24.5,33.1875 C23.8433125,33.1875 23.3125,32.6555 23.3125,32 L23.312,22.499 Z M32.8125,13 C33.465625,13 34,13.534375 34,14.1875 L34,16.5625 C34,17.215625 33.465625,17.75 32.8125,17.75 C32.159375,17.75 31.625,17.215625 31.625,16.5625 L31.625,15.375 L17.375,15.375 L17.375,16.5625 C17.375,17.215625 16.840625,17.75 16.1875,17.75 C15.534375,17.75 15,17.215625 15,16.5625 L15,14.1875 C15,13.534375 15.534375,13 16.1875,13 L32.8125,13 L32.8125,13 Z" id="path-1"></path>
    </defs>
    <g id="upload" stroke="none" stroke-width="1" fill="none" fill-rule="evenodd">
        <mask id="mask-2" fill="white">
            <use xlink:href="#path-1"></use>
        </mask>
        <use fill="#0057A8" fill-rule="nonzero" xlink:href="#path-1"></use>
    </g>
</svg>