<?xml version="1.0" encoding="UTF-8"?>
<svg width="48px" height="48px" viewBox="0 0 48 48" version="1.1" xmlns="http://www.w3.org/2000/svg" xmlns:xlink="http://www.w3.org/1999/xlink">
    <title>video-watched</title>
    <g id="video-watched" stroke="none" stroke-width="1" fill="none" fill-rule="evenodd">
        <g transform="translate(9.000000, 9.000000)">
            <path d="M7,0 L23,0 C26.8659932,-7.10171439e-16 30,3.13400675 30,7 L30,23 C30,26.8659932 26.8659932,30 23,30 L7,30 C3.13400675,30 4.73447626e-16,26.8659932 0,23 L0,7 C-4.73447626e-16,3.13400675 3.13400675,7.10171439e-16 7,0 Z" id="Rectangle" fill="#0057A8"></path>
            <path d="M10.4934602,15.6294304 C10.1514231,15.2873932 9.59856504,15.2873932 9.25652787,15.6294304 C8.91449071,15.9714676 8.91449071,16.5243256 9.25652787,16.8663627 L11.8808539,19.4906888 C12.0453117,19.6551466 12.2675047,19.746998 12.4993201,19.746998 C12.5089427,19.746998 12.5185652,19.746998 12.5281877,19.746998 C12.7705005,19.7382502 12.9979421,19.6306529 13.1571512,19.4486996 L19.2805787,12.4504967 C19.5989969,12.0865902 19.5622564,11.5337322 19.1992246,11.2161887 C18.835318,10.8977705 18.2833348,10.9362606 17.9649166,11.2975428 L12.4564561,17.5924263 L10.4934602,15.6294304 Z" id="🎨-Icon-Сolor" fill="#FFFFFF" fill-rule="nonzero"></path>
        </g>
    </g>
</svg>