<?xml version="1.0" encoding="UTF-8"?>
<svg width="48px" height="46px" viewBox="0 0 48 46" version="1.1" xmlns="http://www.w3.org/2000/svg" xmlns:xlink="http://www.w3.org/1999/xlink">
    <title>website</title>
    <g id="website" stroke="none" stroke-width="1" fill="none" fill-rule="evenodd">
        <g transform="translate(2.000000, 15.000000)" fill-rule="nonzero">
            <path d="M1.7397977,15.8696995 C0.792764961,15.8696995 0.025711296,15.1026459 0.025711296,14.1556131 C0.025711296,13.2085804 0.792764961,12.4415267 1.7397977,12.4415267 C2.68683043,12.4415267 3.4538841,13.2085804 3.4538841,14.1556131 C3.4538841,15.1026459 2.68254522,15.8696995 1.7397977,15.8696995 Z M1.7397977,13.2985699 C1.26842394,13.2985699 0.882754497,13.6842394 0.882754497,14.1556131 C0.882754497,14.6269869 1.26842394,15.0126563 1.7397977,15.0126563 C2.21117146,15.0126563 2.5968409,14.6269869 2.5968409,14.1556131 C2.5968409,13.6842394 2.21117146,13.2985699 1.7397977,13.2985699 Z" id="Shape" fill="#000000"></path>
            <path d="M42.2479446,5.25093428 C42.136529,5.25093428 42.0293986,5.20808212 41.9436943,5.12666301 L38.7940605,1.97702925 C38.6269371,1.80990582 38.6269371,1.53993722 38.7940605,1.37281379 C38.9611839,1.20569037 39.2311525,1.20569037 39.3982759,1.37281379 L42.5479097,4.52244756 C42.7150331,4.68957098 42.7150331,4.95953959 42.5479097,5.12666301 C42.4664906,5.20808212 42.3593602,5.25093428 42.2479446,5.25093428 Z" id="Path" fill="#000000"></path>
            <path d="M39.0983108,5.25093428 C38.9868952,5.25093428 38.8797648,5.20808212 38.7940605,5.12666301 C38.6269371,4.95953959 38.6269371,4.68957098 38.7940605,4.52244756 L41.9436943,1.37281379 C42.1108177,1.20569037 42.3807863,1.20569037 42.5479097,1.37281379 C42.7150331,1.53993722 42.7150331,1.80990582 42.5479097,1.97702925 L39.3982759,5.12666301 C39.3168568,5.20808212 39.2097264,5.25093428 39.0983108,5.25093428 Z" id="Path" fill="#000000"></path>
            <g id="events" transform="translate(10.000000, 0.000000)">
                <path d="M3,1.59904762 L20,1.59904762 C21.6568542,1.59904762 23,2.94219337 23,4.59904762 L23,18.477619 C23,20.1344733 21.6568542,21.477619 20,21.477619 L3,21.477619 C1.34314575,21.477619 6.46995335e-16,20.1344733 0,18.477619 L0,4.59904762 C2.41183085e-16,2.94219337 1.34314575,1.59904762 3,1.59904762 Z" id="Rectangle" stroke="#0057A8" stroke-width="2" fill="#FFFFFF"></path>
                <path d="M3.9702381,10.6785714 C3.59375,10.6785714 3.28571429,10.9866071 3.28571429,11.3630952 C3.28571429,11.7395833 3.59375,12.047619 3.9702381,12.047619 L12.4583333,12.047619 C12.8348214,12.047619 13.1428571,11.7395833 13.1428571,11.3630952 C13.1428571,10.9866071 12.8348214,10.6785714 12.4583333,10.6785714 L3.9702381,10.6785714 Z" id="Path" fill="#E01F27"></path>
                <path d="M3.9702381,13.9642857 C3.59375,13.9642857 3.28571429,14.2723214 3.28571429,14.6488095 C3.28571429,15.0252976 3.59375,15.3333333 3.9702381,15.3333333 L15.7440476,15.3333333 C16.1205357,15.3333333 16.4285714,15.0252976 16.4285714,14.6488095 C16.4285714,14.2723214 16.1205357,13.9642857 15.7440476,13.9642857 L3.9702381,13.9642857 Z" id="Path" fill="#E01F27"></path>
                <path d="M3.9702381,17.25 C3.59375,17.25 3.28571429,17.5580357 3.28571429,17.9345238 C3.28571429,18.3110119 3.59375,18.6190476 3.9702381,18.6190476 L9.17261905,18.6190476 C9.54910714,18.6190476 9.85714286,18.3110119 9.85714286,17.9345238 C9.85714286,17.5580357 9.54910714,17.25 9.17261905,17.25 L3.9702381,17.25 Z" id="Path" fill="#E01F27"></path>
                <path d="M3,0.777619048 L20,0.777619048 C21.6568542,0.777619048 23,2.1207648 23,3.77761905 L23,7.38190476 L23,7.38190476 L0,7.38190476 L0,3.77761905 C-2.02906125e-16,2.1207648 1.34314575,0.777619048 3,0.777619048 Z" id="Rectangle" stroke="#0057A8" stroke-width="2" fill="#FFFFFF"></path>
                <path d="M4.38095252,3.28571429 C3.77857149,3.28571429 3.28571429,3.77857149 3.28571429,4.38095252 C3.28571429,4.98333355 3.77857149,5.47619075 4.38095252,5.47619075 C4.98333355,5.47619075 5.47619075,4.98333355 5.47619075,4.38095252 C5.47619075,3.77857149 4.98333355,3.28571429 4.38095252,3.28571429" id="Path" fill="#0057A8"></path>
                <path d="M7.94047633,3.0502381 C7.3380953,3.0502381 6.8452381,3.5430953 6.8452381,4.14547633 C6.8452381,4.74785736 7.3380953,5.24071456 7.94047633,5.24071456 C8.54285736,5.24071456 9.03571456,4.74785736 9.03571456,4.14547633 C9.03571456,3.5430953 8.54285736,3.0502381 7.94047633,3.0502381" id="Path" fill="#0057A8"></path>
                <path d="M11.2261906,3.0502381 C10.6238096,3.0502381 10.1309524,3.5430953 10.1309524,4.14547633 C10.1309524,4.74785736 10.6238096,5.24071456 11.2261906,5.24071456 C11.8285716,5.24071456 12.3214288,4.74785736 12.3214288,4.14547633 C12.3214288,3.5430953 11.8285716,3.0502381 11.2261906,3.0502381" id="Path" fill="#0057A8"></path>
            </g>
        </g>
    </g>
</svg>