<?xml version="1.0" encoding="UTF-8"?>
<svg width="48px" height="48px" viewBox="0 0 48 48" version="1.1" xmlns="http://www.w3.org/2000/svg" xmlns:xlink="http://www.w3.org/1999/xlink">
    <title>workshop</title>
    <g id="workshop" stroke="none" stroke-width="1" fill="none" fill-rule="evenodd">
        <g transform="translate(9.000000, 6.000000)">
            <path d="M27,2.51515152 L4,2.51515152 C1.790861,2.51515152 0,4.30601252 0,6.51515152 L0,22.4848485 C0,24.6939875 1.790861,26.4848485 4,26.4848485 L27,26.4848485 C29.209139,26.4848485 31,24.6939875 31,22.4848485 L31,6.51515152 C31,4.30601252 29.209139,2.51515152 27,2.51515152 Z M4,4.51515152 L27,4.51515152 C28.1045695,4.51515152 29,5.41058202 29,6.51515152 L29,22.4848485 C29,23.589418 28.1045695,24.4848485 27,24.4848485 L4,24.4848485 C2.8954305,24.4848485 2,23.589418 2,22.4848485 L2,6.51515152 C2,5.41058202 2.8954305,4.51515152 4,4.51515152 Z" id="Rectangle" fill="#0057A8" fill-rule="nonzero"></path>
            <path d="M9.55128224,9.58216783 C8.73333342,9.58216783 8.06410256,10.2513987 8.06410256,11.0693475 C8.06410256,11.8872963 8.73333342,12.5565272 9.55128224,12.5565272 C10.3692311,12.5565272 11.0384619,11.8872963 11.0384619,11.0693475 C11.0384619,10.2513987 10.3692311,9.58216783 9.55128224,9.58216783" id="Path" fill="#E01F27" fill-rule="nonzero"></path>
            <path d="M14.9423077,9.81876457 C14.4310897,9.81876457 14.0128205,10.2370338 14.0128205,10.7482517 C14.0128205,11.2594697 14.4310897,11.6777389 14.9423077,11.6777389 L22.0064103,11.6777389 C22.5176282,11.6777389 22.9358974,11.2594697 22.9358974,10.7482517 C22.9358974,10.2370338 22.5176282,9.81876457 22.0064103,9.81876457 L14.9423077,9.81876457 Z" id="Path" fill="#E01F27" fill-rule="nonzero"></path>
            <path d="M9.55128224,13.9761072 C8.73333342,13.9761072 8.06410256,14.6453381 8.06410256,15.4632869 C8.06410256,16.2812357 8.73333342,16.9504666 9.55128224,16.9504666 C10.3692311,16.9504666 11.0384619,16.2812357 11.0384619,15.4632869 C11.0384619,14.6453381 10.3692311,13.9761072 9.55128224,13.9761072" id="Path" fill="#E01F27" fill-rule="nonzero"></path>
            <path d="M14.9423077,14.212704 C14.4310897,14.212704 14.0128205,14.6309732 14.0128205,15.1421911 C14.0128205,15.6534091 14.4310897,16.0716783 14.9423077,16.0716783 L22.0064103,16.0716783 C22.5176282,16.0716783 22.9358974,15.6534091 22.9358974,15.1421911 C22.9358974,14.6309732 22.5176282,14.212704 22.0064103,14.212704 L14.9423077,14.212704 Z" id="Path" fill="#E01F27" fill-rule="nonzero"></path>
            <line x1="15.5" y1="0" x2="15.5" y2="2.2983683" id="Line-2" stroke="#0057A8" stroke-width="2.5" stroke-linecap="round"></line>
            <path d="M8.51984361,26.2405299 C8.8958384,25.6615487 9.66999941,25.4969957 10.2489806,25.8729905 C10.7893631,26.2239189 10.9687325,26.9216944 10.6845491,27.4839046 L10.61652,27.6021275 L5.0571393,36.1628231 C4.6811445,36.7418043 3.9069835,36.9063573 3.32800229,36.5303625 C2.78761983,36.179434 2.60825039,35.4816585 2.89243385,34.9194483 L2.96046288,34.8012255 L8.51984361,26.2405299 Z" id="Line-2" fill="#0057A8" fill-rule="nonzero"></path>
            <path d="M26.0956012,26.2405299 C26.471596,25.6615487 27.245757,25.4969957 27.8247382,25.8729905 C28.3651206,26.2239189 28.5444901,26.9216944 28.2603066,27.4839046 L28.1922776,27.6021275 L22.6328969,36.1628231 C22.2569021,36.7418043 21.4827411,36.9063573 20.9037599,36.5303625 C20.3633774,36.179434 20.184008,35.4816585 20.4681914,34.9194483 L20.5362205,34.8012255 L26.0956012,26.2405299 Z" id="Line-2" fill="#0057A8" fill-rule="nonzero" transform="translate(24.364249, 31.201676) scale(-1, 1) translate(-24.364249, -31.201676) "></path>
            <path d="M15.5,25.1136364 C16.1472087,25.1136364 16.6795339,25.605511 16.7435464,26.2358311 L16.75,26.3636364 L16.75,36.5710956 C16.75,37.2614515 16.1903559,37.8210956 15.5,37.8210956 C14.8527913,37.8210956 14.3204661,37.3292209 14.2564536,36.6989008 L14.25,36.5710956 L14.25,26.3636364 C14.25,25.6732804 14.8096441,25.1136364 15.5,25.1136364 Z" id="Line-2" fill="#0057A8" fill-rule="nonzero"></path>
        </g>
    </g>
</svg>