<svg width="98" height="87" viewBox="0 0 98 87" fill="none" xmlns="http://www.w3.org/2000/svg">
<path d="M52.4473 76.2204L55.8847 54.9267C56.0287 54.0695 56.3144 53.2567 56.7928 52.5412C57.2225 51.8724 57.8427 51.2543 58.5602 50.7738L76.0312 38.84C76.7953 38.3617 77.5107 38.2664 78.2262 38.9353L79.1808 39.746C79.9449 40.3196 80.4698 41.035 80.9016 41.8457C80.9969 42.1315 81.1408 42.468 81.2361 42.7538L85.3868 19.409C86.297 14.3968 86.8664 12.8685 92.0713 13.7279C93.7413 13.965 95.1764 14.9196 96.0824 16.2108C97.037 17.4977 97.4667 19.1212 97.1788 20.7933L91.6882 54.8293C91.5485 55.7395 91.2119 56.4994 90.7822 57.2191C90.306 57.8837 89.781 58.4107 89.1609 58.9357L73.9314 71.2525C73.451 71.6357 73.0721 72.0167 72.8308 72.4442C72.5958 72.7808 72.4498 73.2105 72.4053 73.6888L71.9714 77.7444L68.9657 77.5073L69.3954 73.3544C69.5394 72.3998 69.8251 71.587 70.3014 70.825C70.7818 70.1074 71.3512 69.4894 72.0222 68.9623L87.2516 56.6497C87.6771 56.2623 88.0157 55.9321 88.3015 55.5511C88.5407 55.2146 88.6825 54.8315 88.7777 54.3573L94.2684 20.3192C94.3636 19.4598 94.1731 18.6492 93.6969 17.9824C93.2164 17.3135 92.4523 16.7886 91.5929 16.6447C88.6825 16.215 88.9217 16.7865 88.3481 19.9382L83.8628 43.3274C83.0479 45.9542 83.3824 46.0028 79.947 48.1026L68.7244 56.3131C67.1983 57.2233 65.8627 55.2146 67.1496 54.1668C67.5349 53.7837 77.9891 46.2865 78.1796 45.8589C78.3701 45.4271 78.5098 44.9995 78.4653 44.5212C78.4653 44.0449 78.3701 43.5666 78.1796 43.1856C77.9891 42.7559 77.6991 42.3728 77.3202 42.0383L76.9858 41.7991L60.2303 53.2101C59.8493 53.4958 59.5127 53.8282 59.2756 54.1647C59.0365 54.5457 58.8946 54.9754 58.846 55.4051L55.4551 76.4574L52.4473 76.2204Z" fill="#0E559C"/>
<path d="M24.7615 75.4076H25.4304L25.2864 73.6888C25.2399 73.2105 25.0473 72.7808 24.8081 72.4442C24.5689 72.0188 24.1879 71.6357 23.7095 71.2526L8.5288 58.9357C7.85993 58.4128 7.335 57.8858 6.85663 57.2191C6.42695 56.4994 6.09251 55.7395 5.9507 54.8293L0.462179 20.7955C0.176429 19.1254 0.606113 17.5019 1.56073 16.2129C2.46878 14.9238 3.89965 13.9671 5.57181 13.73C10.7746 12.8707 11.3482 14.3968 12.2562 19.4112L16.4091 42.7559C16.5044 42.4701 16.6483 42.1336 16.7901 41.8478C17.1733 41.0371 17.7448 40.3196 18.4623 39.7481L19.4169 38.9374C20.1324 38.2685 20.8499 38.3638 21.6119 38.8422L39.0829 50.7759C39.7983 51.2564 40.4206 51.8745 40.8969 52.5433C41.3265 53.2588 41.6123 54.0716 41.7562 54.9288L45.0985 75.5536C45.6234 75.7441 46.1483 76.0299 46.578 76.4617C47.2448 77.1284 47.63 78.0365 47.63 79.0377V83.0953C47.63 84.1007 47.2448 85.0024 46.578 85.6755C45.9113 86.2936 45.0032 86.7233 44.0486 86.7233H24.7615C23.7582 86.7233 22.8523 86.2936 22.2321 85.6755C21.5632 85.0045 21.1335 84.1007 21.1335 83.0953V79.0377C21.1335 78.0365 21.5632 77.1305 22.2321 76.4617C22.8523 75.8373 23.7582 75.4076 24.7615 75.4076ZM28.436 75.4076H42.042L38.8437 55.4072C38.7485 54.9775 38.6045 54.5478 38.3653 54.1668C38.1283 53.8303 37.7938 53.498 37.4107 53.2122L20.6531 41.8013L20.3186 42.0404C19.9376 42.3749 19.6519 42.758 19.4593 43.1877C19.2688 43.5687 19.1735 44.047 19.1735 44.5233C19.1735 45.0017 19.2688 45.4292 19.4593 45.861C19.6498 46.2886 30.104 53.7858 30.485 54.1689C31.774 55.2167 30.485 57.2233 28.9102 56.3152L17.6919 48.1047C14.2544 46.005 14.5888 45.9563 13.7781 43.3295L9.2908 19.9403C8.71718 16.7886 8.95636 16.2171 6.04383 16.6468C5.18446 16.7886 4.46903 17.3157 3.9441 17.9845C3.46573 18.6513 3.27523 19.4641 3.41916 20.3213L8.86111 54.3594C8.95636 54.8357 9.1003 55.2167 9.33948 55.5532C9.62523 55.9342 9.95966 56.2644 10.3893 56.6518L25.6166 68.9644C26.2855 69.4915 26.857 70.1096 27.3354 70.8271C27.8138 71.5891 28.1461 72.4019 28.2434 73.3565L28.436 75.4076ZM42.6135 80.4685H26.1458V81.6623H42.6135V80.4685Z" fill="#0E559C"/>
<path fill-rule="evenodd" clip-rule="evenodd" d="M24.7616 77.9395H44.0466C44.6202 77.9395 45.1451 78.4178 45.1451 79.0359V83.0935C45.1451 83.7158 44.6181 84.1942 44.0466 84.1942H24.7616C24.1415 84.1942 23.6631 83.7158 23.6631 83.0935V79.0359C23.6631 78.4178 24.1393 77.9395 24.7616 77.9395Z" fill="#63AB45"/>
<path d="M53.6413 75.4082H72.8797C73.8851 75.4082 74.7889 75.7892 75.4091 76.4602H75.4578C76.078 77.1269 76.5077 78.035 76.5077 79.0362V83.0938C76.5077 84.0992 76.078 85.0009 75.4578 85.674C74.7889 86.2921 73.883 86.7218 72.8776 86.7218H53.6392C52.6359 86.7218 51.73 86.2921 51.0611 85.674C50.4409 85.003 50.0112 84.0992 50.0112 83.0938V79.0362C50.0112 78.035 50.4409 77.1291 51.0611 76.4602C51.7321 75.8379 52.6401 75.4082 53.6413 75.4082ZM71.4954 80.4691H55.0277V81.663H71.4954V80.4691Z" fill="#0E559C"/>
<path fill-rule="evenodd" clip-rule="evenodd" d="M53.6412 77.9395H72.8796C73.4998 77.9395 74.0247 78.4178 74.0247 79.0359V83.0935C74.0247 83.7158 73.4998 84.1942 72.8796 84.1942H53.6412C53.021 84.1942 52.4961 83.7158 52.4961 83.0935V79.0359C52.4961 78.4178 53.021 77.9395 53.6412 77.9395Z" fill="#63AB45"/>
<path fill-rule="evenodd" clip-rule="evenodd" d="M48.8196 48.3418C61.9006 48.3418 72.5941 37.6483 72.5941 24.5695C72.5941 11.4885 61.8985 0.84375 48.8196 0.84375C35.7408 0.84375 25.0474 11.4885 25.0474 24.5695C25.0474 37.6483 35.7408 48.3418 48.8196 48.3418Z" fill="#63AB45" stroke="#63AB45" stroke-width="1.5024" stroke-miterlimit="10"/>
<path d="M39.9887 31.203C38.9388 31.203 38.0794 31.5861 37.5058 32.3502C36.9322 33.0656 36.6465 34.1155 36.6465 35.4067C36.6465 36.7423 36.9322 37.7435 37.4571 38.5076C37.9821 39.2251 38.8414 39.6061 39.94 39.6061C40.4649 39.6061 40.9433 39.5596 41.373 39.4622C41.8492 39.3669 42.3276 39.2251 42.8525 39.0325V40.7978C42.3763 40.9883 41.8979 41.1322 41.4217 41.2275C40.9433 41.3227 40.3718 41.3714 39.7495 41.3714C38.5557 41.3714 37.6011 41.0857 36.7904 40.6073C36.0263 40.1289 35.4527 39.4135 35.0717 38.5541C34.6885 37.6482 34.498 36.5962 34.498 35.4045C34.498 34.2107 34.6885 33.2074 35.1182 32.3015C35.5479 31.3935 36.1681 30.7267 36.9788 30.2018C37.7916 29.6747 38.7928 29.4377 39.9866 29.4377C40.5602 29.4377 41.1317 29.5329 41.7053 29.6282C42.2789 29.7721 42.8038 29.9626 43.2801 30.2018L42.6112 31.9205C42.1815 31.73 41.7519 31.5374 41.3243 31.3935C40.8967 31.2495 40.4184 31.203 39.9887 31.203ZM52.0664 38.0292C52.0664 39.0325 51.732 39.8432 50.9678 40.4634C50.2037 41.037 49.2004 41.3714 47.8627 41.3714C46.5757 41.3714 45.5259 41.1322 44.6178 40.7047V38.7468C45.0962 38.9859 45.6211 39.1764 46.2434 39.3669C46.8149 39.5088 47.3885 39.6061 48.0087 39.6061C48.7242 39.6061 49.2004 39.4622 49.537 39.2251C49.8693 38.9394 50.0153 38.6028 50.0153 38.1266C50.0153 37.6482 49.8248 37.2672 49.3952 36.9815C49.012 36.6936 48.3918 36.4078 47.6298 36.0734C47.1494 35.8342 46.6752 35.595 46.2455 35.358C45.8159 35.0701 45.4327 34.6891 45.1936 34.2594C44.9078 33.8297 44.7639 33.2561 44.7639 32.5873C44.7639 31.6326 45.0983 30.822 45.8159 30.2949C46.4805 29.7213 47.4372 29.4355 48.5845 29.4355C49.2046 29.4355 49.7761 29.4821 50.3519 29.626C50.8768 29.77 51.4017 29.9605 51.9267 30.1997L51.2578 31.8718C50.7816 31.6326 50.3519 31.4887 49.8735 31.3935C49.4459 31.2495 49.0163 31.203 48.5379 31.203C47.9643 31.203 47.5346 31.2982 47.2488 31.5861C46.9631 31.8253 46.8192 32.1597 46.8192 32.5407C46.8192 32.8751 46.9165 33.1609 47.0583 33.3535C47.2002 33.5927 47.488 33.7832 47.8225 33.9737C48.1548 34.1642 48.5845 34.3547 49.1581 34.5939C49.7317 34.8796 50.3032 35.1675 50.7329 35.4532C51.1626 35.739 51.497 36.0734 51.7362 36.5031C51.9711 36.9328 52.0664 37.409 52.0664 38.0292ZM57.5549 29.6282C59.0852 29.6282 60.2304 29.8673 60.9479 30.441C61.6612 31.0125 62.0465 31.8739 62.0465 33.0169C62.0465 33.5906 61.9512 34.0689 61.712 34.4499C61.5215 34.8796 61.2358 35.214 60.8992 35.4532C60.5669 35.739 60.2325 35.9295 59.8515 36.0734L63.1429 41.1809H60.8061L58.0354 36.5962H56.3632V41.1809H54.2656V29.6282H57.5549ZM57.4596 31.3469H56.3632V34.9262H57.5104C58.3698 34.9262 58.99 34.7357 59.3731 34.4478C59.7562 34.1599 59.9467 33.6858 59.9467 33.0635C59.9467 32.4433 59.7562 32.0136 59.3244 31.7279C58.9392 31.4887 58.2746 31.3469 57.4596 31.3469Z" fill="white"/>
<path fill-rule="evenodd" clip-rule="evenodd" d="M52.3522 25.4258V25.3771L46.9123 18.3138C46.9589 18.3138 47.0076 18.2651 47.0076 18.2651C47.4859 18.2651 48.3453 17.9306 49.4904 17.2639C50.826 16.214 51.4949 15.1642 51.4949 14.1122H53.8825C53.9291 14.1122 53.9778 14.0656 53.9778 14.0169V13.0623C53.9778 13.0157 53.9312 12.9671 53.8825 12.9671H51.3997L51.351 12.6326C51.0652 11.7267 50.6355 11.1531 50.064 10.8673V10.7721H53.8846C53.9312 10.7721 53.9799 10.7255 53.9799 10.6768V9.7222C53.9799 9.67352 53.9333 9.62695 53.8846 9.62695H43.7627C43.7162 9.62695 43.6675 9.67352 43.6675 9.7222V10.6768C43.6675 10.7234 43.7162 10.7721 43.7627 10.7721H45.5767C46.2456 10.7721 46.961 10.9626 47.7272 11.3923C48.2501 11.7754 48.6332 12.3003 48.8237 12.9671H43.7648C43.7183 12.9671 43.6696 13.0157 43.6696 13.0623V14.0169C43.6696 14.0656 43.7183 14.1122 43.7648 14.1122H48.8745V14.2074C48.8745 14.3492 48.8258 14.4932 48.8258 14.7324C48.3495 16.3558 46.9652 17.2152 44.6263 17.2152H44.0061V17.2639C48.159 22.7058 50.2609 25.4258 50.3075 25.4258H52.3522Z" fill="white" stroke="white" stroke-width="0.2268" stroke-miterlimit="10"/>
<path fill-rule="evenodd" clip-rule="evenodd" d="M10.3913 56.6501L25.6186 68.9627C26.2875 69.4898 26.859 70.1078 27.3373 70.8254C27.8157 71.5874 28.148 72.4002 28.2454 73.3548L28.4359 75.408H42.0418L38.8435 55.4076C38.7483 54.9779 38.6044 54.5482 38.3652 54.1672C38.1281 53.8307 37.7937 53.4983 37.4106 53.2126L20.6529 41.8016L20.3185 42.0408C19.9375 42.3753 19.6517 42.7584 19.4591 43.1881C19.2686 43.5691 19.1734 44.0474 19.1734 44.5237C19.1734 45.002 19.2686 45.4296 19.4591 45.8614C19.6496 46.289 30.1038 53.7862 30.4848 54.1693C31.7739 55.2171 30.4848 57.2237 28.91 56.3156L17.6917 48.1051C14.2542 46.0053 14.5887 45.9567 13.778 43.3299L9.29064 19.9407C8.71702 16.789 8.9562 16.2175 6.04367 16.6472C5.1843 16.789 4.46887 17.316 3.94394 17.9849C3.46557 18.6517 3.27507 19.4645 3.419 20.3217L8.86096 54.3598C8.9562 54.8361 9.10014 55.2171 9.33932 55.5536C9.62719 55.9325 9.96162 56.2627 10.3913 56.6501Z" fill="white"/>
<path fill-rule="evenodd" clip-rule="evenodd" d="M58.844 55.4077L55.5991 75.4081H69.205L69.3955 73.355C69.5395 72.4003 69.8252 71.5875 70.3015 70.8255C70.782 70.108 71.3513 69.4899 72.0223 68.9629L87.2517 56.6502C87.6772 56.2629 88.0159 55.9327 88.3016 55.5517C88.5408 55.2151 88.6826 54.832 88.7779 54.3579L94.2685 20.3198C94.3637 19.4604 94.1732 18.6497 93.697 17.983C93.2165 17.3141 92.4524 16.7892 91.593 16.6452C88.6826 16.2155 88.9218 16.787 88.3482 19.9388L83.863 43.3279C83.048 45.9547 83.3825 46.0034 79.9471 48.1031L68.7246 56.3137C67.1985 57.2238 65.8628 55.2151 67.1498 54.1674C67.535 53.7843 77.9892 46.287 78.1797 45.8595C78.3702 45.4277 78.5099 45.0001 78.4655 44.5217C78.4655 44.0455 78.3702 43.5671 78.1797 43.1861C77.9892 42.7564 77.6992 42.3733 77.3203 42.0389L76.9859 41.7997L60.2304 53.2106C59.8494 53.4964 59.5128 53.8287 59.2758 54.1653C59.0345 54.5484 58.8948 54.9781 58.844 55.4077Z" fill="white"/>
</svg>
