<svg width="58" height="91" viewBox="0 0 58 91" fill="none" xmlns="http://www.w3.org/2000/svg">
<path fill-rule="evenodd" clip-rule="evenodd" d="M29.1229 41.524C40.3434 41.524 49.462 32.4033 49.462 21.1828C49.462 9.96235 40.3412 0.84375 29.1229 0.84375C17.9025 0.84375 8.78174 9.96447 8.78174 21.1828C8.78174 32.4011 17.9003 41.524 29.1229 41.524Z" fill="#FDB614"/>
<path d="M43.5817 51.7812H38.6012L30.7992 62.8218C29.8403 64.1426 28.2803 64.0833 27.3194 62.7011L19.5808 51.7812H14.6596C10.9406 51.7812 7.57933 53.282 5.11977 55.7415C2.71947 58.1418 1.21875 61.501 1.21875 65.2221V89.5828H7.45868H7.99843H50.2386H50.7191H57.0204V65.2221C57.0204 61.501 55.5218 58.1418 53.0601 55.7415C50.6598 53.282 47.3007 51.7812 43.5817 51.7812Z" stroke="#0E559C" stroke-width="1.5024" stroke-miterlimit="10"/>
<path fill-rule="evenodd" clip-rule="evenodd" d="M21.2612 77.1008L26.4809 57.0602H31.7006L36.9796 77.1008L29.1204 84.0604L21.2612 77.1008ZM26.4809 49.2031H31.7006L34.3401 50.943L31.7006 57.0623H26.4809L23.9007 50.943L26.4809 49.2031Z" fill="#FDB614" stroke="white" stroke-width="0.9921" stroke-miterlimit="10" stroke-linecap="round" stroke-linejoin="round"/>
<path fill-rule="evenodd" clip-rule="evenodd" d="M23.9604 68.5843L22.8809 72.5425L34.6411 70.3835L33.6208 66.3047L23.9604 68.5843Z" fill="white"/>
</svg>
