<svg width="101" height="100" viewBox="0 0 101 100" fill="none" xmlns="http://www.w3.org/2000/svg">
<path d="M22.2718 71.7549C33.7907 71.7549 43.1506 62.395 43.1506 50.8718C43.1506 39.3529 33.7907 29.9316 22.2718 29.9316C10.7508 29.9316 1.39087 39.3508 1.39087 50.8718C1.39087 62.395 10.7508 71.7549 22.2718 71.7549Z" stroke="#63AB45" stroke-width="1.5024" stroke-miterlimit="10"/>
<path d="M78.8524 71.7549C90.3713 71.7549 99.7925 62.395 99.7925 50.8718C99.7925 39.3529 90.3734 29.9316 78.8524 29.9316C67.3313 29.9316 57.9714 39.3508 57.9714 50.8718C57.9693 62.395 67.3292 71.7549 78.8524 71.7549Z" stroke="#63AB45" stroke-width="1.5024" stroke-miterlimit="10"/>
<path fill-rule="evenodd" clip-rule="evenodd" d="M51.6108 99.0506C63.0726 99.0506 72.4918 89.6907 72.4918 78.1739C72.4918 66.6529 63.0726 57.293 51.6108 57.293C40.0919 57.293 30.6707 66.6529 30.6707 78.1739C30.6707 89.6928 40.0919 99.0506 51.6108 99.0506Z" fill="#0E559C" stroke="#0E559C" stroke-width="1.5024" stroke-miterlimit="10"/>
<path fill-rule="evenodd" clip-rule="evenodd" d="M51.6108 42.6525C63.0726 42.6525 72.4918 33.2926 72.4918 21.7715C72.4918 10.2505 63.0726 0.890625 51.6108 0.890625C40.0919 0.890625 30.6707 10.2505 30.6707 21.7715C30.6707 33.2926 40.0919 42.6525 51.6108 42.6525Z" fill="#0E559C" stroke="#0E559C" stroke-width="1.5024" stroke-miterlimit="10"/>
<path d="M49.2106 21.953H51.1918C51.9115 21.953 52.5126 22.0123 52.8703 22.1922C53.2894 22.3128 53.4715 22.6727 53.4715 23.2124C53.4715 23.5723 53.3487 23.8728 53.1095 24.112C52.809 24.3512 52.4491 24.4718 52.03 24.4718H49.6911V24.711C49.6911 25.6106 49.4519 26.3917 49.0921 27.1727C48.6709 27.9516 47.9512 28.8512 46.931 29.9921C47.2315 29.9328 47.53 29.8715 47.8306 29.8122C48.1311 29.7529 48.4296 29.6915 48.7894 29.6323C49.1492 29.573 49.5705 29.573 49.9896 29.573C50.5907 29.573 51.431 29.6323 52.5105 29.7529C53.5286 29.8736 54.2483 29.9921 54.6102 29.9921C55.0907 29.9921 55.6284 29.8715 56.2295 29.6915C56.8306 29.5116 57.1905 29.391 57.3704 29.391C57.7302 29.391 58.09 29.5709 58.3906 29.8715C58.7504 30.2313 58.8711 30.5911 58.8711 31.0123C58.8711 31.7934 58.4499 32.3331 57.6096 32.7522C56.7714 33.1121 55.931 33.3513 54.9701 33.3513C54.3689 33.3513 52.7497 33.0507 50.0509 32.3903C49.9896 32.3903 49.871 32.331 49.6911 32.2696C49.5112 32.2083 49.3313 32.2104 49.0307 32.149C48.7894 32.0897 48.491 32.0897 48.1311 32.0897C47.7713 32.0897 47.4707 32.149 47.1702 32.2696C46.8696 32.3903 46.3891 32.5702 45.6716 32.8708C45.0112 33.11 44.5307 33.2899 44.2915 33.2899C43.9317 33.2899 43.5718 33.11 43.2713 32.8094C42.9707 32.5088 42.7908 32.0897 42.7908 31.6092C42.7908 31.4293 42.85 31.2494 42.9707 31.0081C43.0913 30.8282 43.2713 30.589 43.5104 30.3477C43.7496 30.0471 44.1095 29.6873 44.6513 29.2682C45.0704 28.9084 45.4895 28.3686 45.7922 27.6468C46.0928 26.9864 46.2113 26.326 46.2113 25.6656C46.2113 25.4265 46.2113 25.0052 46.0907 24.4655H44.9498C44.2894 24.4655 43.8089 24.4062 43.5104 24.2263C43.1506 24.0464 42.9707 23.7458 42.9707 23.2653C42.9707 22.3658 43.5718 21.9445 44.7106 21.9445H45.4895C45.009 20.5645 44.8291 19.485 44.8291 18.6447C44.8291 17.5652 45.0683 16.6042 45.6102 15.7639C46.0907 14.8643 46.8696 14.2039 47.8306 13.7255C48.7894 13.245 49.8689 13.0059 51.1304 13.0059C52.2099 13.0059 53.1688 13.1265 53.952 13.425C54.7309 13.6663 55.3913 14.1446 55.9903 14.7458C57.0719 15.8253 57.5503 16.9661 57.5503 18.2256C57.5503 18.6447 57.3704 19.0045 57.0698 19.3664C56.7079 19.7263 56.2909 19.8469 55.8104 19.8469C54.9701 19.8469 54.3668 19.3664 54.0705 18.4076C53.8313 17.508 53.4715 16.7862 53.0503 16.3671C52.5698 15.948 51.9708 15.7067 51.1918 15.7067C50.4108 15.7067 49.7504 16.0073 49.2106 16.4878C48.7301 17.0275 48.491 17.7472 48.491 18.5875C48.491 19.068 48.5502 19.5485 48.6116 19.9676C48.7301 20.4523 48.9122 21.1127 49.2106 21.953Z" fill="white"/>
<path d="M17.4712 56.3324H20.6505V54.2919H17.4712C16.1504 54.2919 15.4921 53.8728 15.4921 52.9711C15.4921 52.1329 16.1525 51.7117 17.4712 51.7117H19.2725L15.073 45.1119C14.7725 44.6315 14.5333 44.2716 14.4126 44.0303C14.3534 43.7911 14.292 43.5498 14.292 43.2514C14.292 42.7709 14.4126 42.4132 14.7111 42.1105C15.0117 41.8099 15.3715 41.6914 15.852 41.6914C16.3325 41.6914 16.6923 41.8121 16.9929 42.1105C17.2934 42.4132 17.6533 42.8323 18.0724 43.4906L22.5724 50.5708L26.5919 43.9118C26.7719 43.6726 26.8925 43.372 27.0724 43.0736C27.2523 42.8344 27.4323 42.5931 27.5529 42.3539C27.7328 42.174 27.9127 41.992 28.154 41.8713C28.3953 41.7507 28.6938 41.6914 28.9944 41.6914C29.4748 41.6914 29.8326 41.8121 30.1352 42.1105C30.4358 42.3518 30.6157 42.7116 30.6157 43.1307C30.6157 43.4906 30.5565 43.7298 30.4358 44.0303C30.3152 44.3309 30.1352 44.6315 29.8961 45.0506L25.8151 51.7096H27.6164C28.9372 51.7096 29.5955 52.1287 29.5955 52.969C29.5955 53.8707 28.9351 54.2898 27.6164 54.2898H24.4372V56.3303H27.6164C28.9372 56.3303 29.5955 56.7494 29.5955 57.6511C29.5955 58.4893 28.9351 58.9126 27.6164 58.9126H24.4372V60.0535C24.4372 61.9098 23.836 62.8729 22.5766 62.8729C21.3172 62.8729 20.6568 61.9098 20.6568 60.0535V58.9126H17.4776C16.1568 58.9126 15.4985 58.4914 15.4985 57.6511C15.49 56.7515 16.1504 56.3324 17.4712 56.3324Z" fill="#63AB45" stroke="#63AB45" stroke-width="0.1984" stroke-miterlimit="10"/>
<path d="M47.6506 83.6319C48.0104 86.9932 49.0307 88.6717 50.8912 88.6717C51.5516 88.6717 52.1506 88.4939 52.7518 88.1912C53.2915 87.8314 53.8334 87.0546 54.371 85.9137C54.733 85.0755 54.9722 84.5908 55.2113 84.413C55.5119 84.231 55.7511 84.1103 56.0517 84.1103C56.5893 84.1103 57.0105 84.2923 57.3111 84.5908C57.6709 84.9549 57.7916 85.3718 57.7916 85.9709C57.7916 87.3509 57.1312 88.6125 55.8125 89.7533C54.4324 90.89 52.811 91.4932 50.8912 91.4932C49.0921 91.4932 47.5321 90.8307 46.2113 89.5713C44.8905 88.2526 44.0502 86.2714 43.811 83.6298H42.0711C41.8912 83.6298 41.7705 83.5092 41.7705 83.27C41.7705 83.0308 41.8912 82.7324 42.0711 82.4318C42.251 82.072 42.3716 81.8899 42.4923 81.8899H43.6924V81.3523C43.6924 80.9311 43.7517 80.3321 43.7517 79.6124H42.0711C41.8912 79.6124 41.7705 79.4917 41.7705 79.2526C41.7705 79.0134 41.8912 78.7107 42.0711 78.3509C42.251 77.991 42.3716 77.809 42.4923 77.809H43.9316C44.5328 72.9512 46.8124 70.5488 50.7706 70.5488C52.5719 70.5488 54.0726 70.97 55.3299 71.8717C56.5893 72.7692 57.2497 73.9101 57.2497 75.2288C57.2497 75.7093 57.0698 76.0712 56.7692 76.431C56.4665 76.7295 56.1067 76.9115 55.6897 76.9115C55.2071 76.9115 54.8494 76.7909 54.6695 76.5517C54.4303 76.3125 54.189 75.8892 54.007 75.4108C53.7085 74.7483 53.4079 74.2128 53.0481 73.9101C52.629 73.5503 52.0279 73.3682 51.1283 73.3682C50.1081 73.3682 49.327 73.7323 48.728 74.452C48.1882 75.1716 47.8284 76.2511 47.7078 77.809H52.2078C52.3877 77.809 52.4491 77.9296 52.4491 78.1731C52.4491 78.4122 52.3898 78.7107 52.2078 79.0705C52.0279 79.4304 51.9072 79.6124 51.7273 79.6124H47.5871L47.5278 80.9311C47.5278 81.3523 47.5278 81.7121 47.5871 81.8899H52.2078C52.3877 81.8899 52.4491 82.0106 52.4491 82.2498C52.4491 82.4932 52.3898 82.7916 52.2078 83.1515C52.0279 83.4541 51.9072 83.6319 51.7273 83.6319H47.6506Z" fill="white"/>
<path d="M79.9912 39.4122V40.9129C80.9521 41.0336 81.8517 41.2135 82.51 41.5119C83.2297 41.8718 83.8901 42.293 84.4298 42.9534C84.8489 43.4339 85.1516 43.9122 85.3908 44.3948C85.63 44.9346 85.7506 45.3537 85.7506 45.7728C85.7506 46.2533 85.5686 46.6745 85.2088 46.9729C84.8489 47.3328 84.4298 47.5127 83.9493 47.5127C83.0497 47.5127 82.4486 47.0322 82.2094 46.012C81.9089 44.8732 81.1278 44.0922 79.9891 43.6731V49.4939C81.1278 49.8537 82.0295 50.1543 82.7492 50.3935C83.4117 50.6327 84.0107 50.9925 84.5505 51.5344C85.1516 52.0148 85.6321 52.6731 85.9305 53.3335C86.2311 54.0553 86.411 54.8342 86.411 55.6746C86.411 56.7519 86.1105 57.7743 85.6321 58.6739C85.1516 59.6327 84.3706 60.3524 83.4117 60.9514C82.4507 61.5504 81.312 61.9103 79.9912 62.0309V65.5128C79.9912 66.0547 79.9319 66.4145 79.8113 66.7109C79.6906 66.9543 79.4514 67.0749 79.0916 67.0749C78.7889 67.0749 78.5497 66.9543 78.3719 66.7722C78.2513 66.5331 78.1899 66.2304 78.1899 65.8134V62.0309C77.1104 61.9103 76.1515 61.6711 75.3112 61.2541C74.5323 60.8943 73.8126 60.4159 73.2708 59.8105C72.731 59.2115 72.3119 58.6125 72.0727 58.0114C71.8335 57.3488 71.7129 56.7498 71.7129 56.1529C71.7129 55.6724 71.8907 55.2512 72.1934 54.8914C72.5532 54.5908 72.9723 54.4109 73.5121 54.4109C73.9333 54.4109 74.2931 54.4702 74.5916 54.6501C74.8942 54.8893 75.0742 55.1306 75.1927 55.4883C75.4319 56.2693 75.6732 56.8684 75.8531 57.2282C76.0351 57.6494 76.3336 58.0092 76.6913 58.3691C77.0532 58.7289 77.593 58.9681 78.192 59.1501V52.6096C76.9326 52.3091 75.9145 51.89 75.072 51.4709C74.2317 51.0496 73.5121 50.4506 73.0316 49.6696C72.4918 48.8906 72.2505 47.8683 72.2505 46.6703C72.2505 45.0489 72.7331 43.7281 73.7512 42.71C74.7715 41.6897 76.2722 41.0886 78.192 40.9087V39.4122C78.192 38.6333 78.4947 38.2734 79.0937 38.2734C79.6927 38.2734 79.9912 38.6333 79.9912 39.4122ZM78.1899 49.0134V43.6117C77.411 43.8509 76.8098 44.1514 76.3293 44.5726C75.9124 44.9325 75.6689 45.5315 75.6689 46.3104C75.6689 47.0322 75.9102 47.572 76.3293 47.9911C76.7506 48.353 77.3517 48.7128 78.1899 49.0134ZM79.9912 53.1515V59.2729C80.8908 59.0909 81.6125 58.731 82.1523 58.132C82.6328 57.5901 82.9333 56.934 82.9333 56.1529C82.9333 55.3719 82.6942 54.7115 82.1523 54.2924C81.6718 53.814 80.9521 53.4542 79.9912 53.1515Z" fill="#63AB45"/>
</svg>
