<svg width="105" height="109" viewBox="0 0 105 109" fill="none" xmlns="http://www.w3.org/2000/svg">
<path d="M26.6785 72.08C24.9386 67.0402 24.4581 61.0394 25.6582 55.8811C26.7991 50.9006 29.2587 46.1614 33.1576 42.2604L40.2378 34.761C39.4568 34.4605 38.7985 33.98 38.1974 33.381C36.9972 32.1808 36.2776 30.5594 36.2776 28.8195C36.2776 27.0204 36.9972 25.399 38.1974 24.2602C38.917 23.5406 39.8166 23.0008 40.7776 22.641C36.8787 18.0817 35.6172 14.4812 35.7971 11.9603C35.9177 10.521 36.5167 9.32081 37.3571 8.48049C38.1974 7.64229 39.3383 7.10042 40.5363 6.92051C41.7957 6.74059 43.1758 6.92051 44.4966 7.40099C44.9157 6.02093 45.5761 4.76151 46.4757 3.74127C47.9764 2.00137 50.0761 0.921875 52.3558 0.921875C54.6947 0.921875 56.7965 2.00137 58.2951 3.74127C59.1968 4.76151 59.8551 6.02092 60.2763 7.46026C61.5971 6.92051 63.0386 6.74059 64.2959 6.97977C65.496 7.15969 66.5755 7.69944 67.4772 8.53976C68.3154 9.38007 68.9166 10.5802 69.0351 12.0196C69.2171 14.5998 68.017 18.141 64.1752 22.7003C65.1362 23.0008 65.9765 23.5406 66.6941 24.2602C67.8349 25.4011 68.6139 27.0204 68.6139 28.8195C68.6139 30.5594 67.8349 32.1787 66.6941 33.381C66.1543 33.9207 65.496 34.3991 64.7764 34.7018L71.7338 42.2604C76.5958 47.1202 79.2946 53.3602 79.8364 59.7208C80.3741 66.1999 78.7527 72.7996 74.8538 78.322L70.413 79.1602L68.3133 80.4218C68.4932 80.0619 68.7345 79.7 68.8552 79.3401C69.3357 78.322 69.5748 77.179 69.5748 76.0403L69.5135 74.4189C69.6341 73.2209 68.9758 72.5583 67.8942 72.2578C35.0181 63.0206 42.998 65.241 42.2783 65.0611C41.1988 64.7605 40.1786 64.642 39.0991 64.7605C38.0788 64.8812 37.0586 65.241 36.0998 65.84L29.5 69.8003L29.6206 70.1602L26.6785 72.08ZM42.9366 31.9395L43.1758 31.6389L43.3557 31.9395H62.194C63.4556 31.9395 64.4737 30.5002 64.6557 29.1794V29.1201V29.0608V29.0016L64.7129 28.9423V28.883V28.8217V28.7624V28.6989L64.6557 28.6396V28.5804V28.5211V28.4618C64.4737 27.141 63.4556 25.7017 62.194 25.7017H42.6953C41.4359 25.7017 40.4156 27.141 40.2357 28.4618L40.1765 28.5211V28.5804V28.6396V28.6989V28.7582V28.8174V28.8788V28.9381V28.9973V29.0566V29.1159L40.2357 29.1751C40.4156 30.4959 41.4359 31.9353 42.6953 31.9353H42.9366V31.9395Z" fill="#0E559C"/>
<path fill-rule="evenodd" clip-rule="evenodd" d="M42.6973 31.9392H62.196C63.5761 31.9392 64.7149 30.4998 64.7149 28.8192C64.7149 27.0793 63.5761 25.6992 62.196 25.6992H42.6973C41.3172 25.6992 40.1785 27.0793 40.1785 28.8192C40.1785 30.4998 41.3172 31.9392 42.6973 31.9392Z" fill="white"/>
<path fill-rule="evenodd" clip-rule="evenodd" d="M17.5577 78.0805L39.7573 65.1794C40.3585 64.8196 40.9575 64.7603 41.6179 64.9402L66.3977 71.7792C70.0574 72.7973 69.397 80.2988 64.3572 79.3378L47.6779 76.0379L66.1564 81.0777C66.8168 81.2576 67.3566 81.137 67.9577 80.8978L96.0374 66.1362C102.161 62.8977 107.679 70.0372 100.899 74.2366L64.5985 96.976C64.0588 97.2766 63.519 97.3951 62.8586 97.2766L36.4003 92.7173C35.8606 92.5966 35.3822 92.7173 34.9017 92.9564L30.7022 95.1176C29.682 95.6594 28.4819 95.4181 27.7622 94.5185L16.9608 81.6788C16.4804 81.1391 16.3004 80.4194 16.4211 79.6976C16.5375 78.9801 16.9566 78.4403 17.5577 78.0805Z" fill="white" stroke="#0E559C" stroke-width="1.5591" stroke-miterlimit="10"/>
<path fill-rule="evenodd" clip-rule="evenodd" d="M13.1784 76.8813L30.3975 97.5209C31.5976 98.9624 31.4177 101.062 29.9784 102.262L24.2189 107.122C22.7775 108.32 20.6185 108.14 19.4183 106.701L2.19923 86.1205C0.999079 84.6812 1.179 82.5222 2.61833 81.3199L8.37778 76.4601C9.81711 75.2599 11.9782 75.442 13.1784 76.8813Z" fill="#63AB45" stroke="#63AB45" stroke-width="1.5024" stroke-miterlimit="10"/>
<path fill-rule="evenodd" clip-rule="evenodd" d="M10.9579 87.5006C12.1581 87.5006 13.119 86.5397 13.119 85.3395C13.119 84.1394 12.1581 83.1191 10.9579 83.1191C9.75778 83.1191 8.73755 84.1373 8.73755 85.3395C8.73755 86.5397 9.75778 87.5006 10.9579 87.5006Z" fill="white"/>
<path fill-rule="evenodd" clip-rule="evenodd" d="M58.2379 68.1785V68.0579L49.3564 56.4776C49.4156 56.4776 49.477 56.4776 49.477 56.4183C50.3152 56.4183 51.636 55.8786 53.558 54.7991C55.717 53.1184 56.7965 51.3785 56.7965 49.6386H60.7546C60.8753 49.6386 60.9367 49.5794 60.9367 49.4587V47.8987C60.9367 47.7781 60.8753 47.7781 60.7546 47.7188H56.6758L56.6165 47.2383C56.0747 45.7397 55.4164 44.7788 54.5168 44.2983V44.1184H60.7546C60.8753 44.1184 60.9367 44.1184 60.9367 43.9977V42.4377C60.9367 42.3171 60.8753 42.3171 60.7546 42.2578H44.1346C44.0753 42.2578 44.0139 42.3192 44.0139 42.4377V43.9977C44.0139 44.1184 44.0732 44.1184 44.1346 44.1184H47.1953C48.2155 44.1184 49.3564 44.4782 50.6158 45.1386C51.5768 45.799 52.1758 46.6986 52.4171 47.7188H44.1367C44.0774 47.7188 44.016 47.7781 44.016 47.8987V49.4587C44.016 49.5794 44.0753 49.6386 44.1367 49.6386H52.4764V49.8185C52.4764 49.9985 52.4764 50.299 52.4171 50.5996C51.6974 53.3597 49.4178 54.6805 45.5781 54.6805H44.5579V54.8012C51.3968 63.7399 54.8174 68.1806 54.8766 68.1806H58.2379V68.1785Z" fill="white"/>
</svg>
