<svg width="97" height="91" viewBox="0 0 97 91" fill="none" xmlns="http://www.w3.org/2000/svg">
<path d="M14.9167 68.4844H82.4532V85.9215C82.4532 87.8836 80.8742 89.5029 78.8739 89.5029H18.4981C16.5381 89.5029 14.9167 87.8815 14.9167 85.9215V68.4844Z" stroke="#0E559C" stroke-width="1.5024" stroke-miterlimit="10"/>
<path fill-rule="evenodd" clip-rule="evenodd" d="M1.7405 54.8828H95.6676C96.3915 54.8828 96.9905 55.4776 96.9905 56.2036V64.901C96.9905 65.627 96.3915 66.2662 95.6676 66.2662H1.7405C0.974262 66.2662 0.375244 65.627 0.375244 64.901V56.2036C0.377361 55.4776 0.974262 54.8828 1.7405 54.8828Z" fill="#FDB614"/>
<path fill-rule="evenodd" clip-rule="evenodd" d="M5.23722 43.7969H27.1087C27.3649 43.7969 27.5342 44.0107 27.5342 44.2244V45.632C27.5342 45.8458 27.3649 46.0151 27.1087 46.0151H5.23722C4.9811 46.0151 4.81177 45.8437 4.81177 45.632V44.2244C4.81177 44.0128 4.9811 43.7969 5.23722 43.7969Z" fill="#0E559C"/>
<path fill-rule="evenodd" clip-rule="evenodd" d="M5.23722 47.3379H27.1087C27.3649 47.3379 27.5342 47.5093 27.5342 47.721V49.1286C27.5342 49.3424 27.3649 49.5562 27.1087 49.5562H5.23722C4.9811 49.5562 4.81177 49.3424 4.81177 49.1286V47.721C4.81177 47.5072 4.9811 47.3379 5.23722 47.3379Z" fill="#FDB614"/>
<path fill-rule="evenodd" clip-rule="evenodd" d="M5.23722 50.832H27.1087C27.3649 50.832 27.5342 51.0035 27.5342 51.2173V52.6227C27.5342 52.8789 27.3649 53.0482 27.1087 53.0482H5.23722C4.9811 53.0482 4.81177 52.8789 4.81177 52.6227V51.2173C4.81177 51.0035 4.9811 50.832 5.23722 50.832Z" fill="#0E559C"/>
<path fill-rule="evenodd" clip-rule="evenodd" d="M69.5754 47.3379H91.4913C91.7072 47.3379 91.8766 47.5093 91.8766 47.721V49.1286C91.8766 49.3424 91.7072 49.5562 91.4913 49.5562H69.5754C69.3637 49.5562 69.1499 49.3424 69.1499 49.1286V47.721C69.1478 47.5072 69.3637 47.3379 69.5754 47.3379Z" fill="#FDB614"/>
<path fill-rule="evenodd" clip-rule="evenodd" d="M69.5754 50.832H91.4913C91.7072 50.832 91.8766 51.0035 91.8766 51.2173V52.6227C91.8766 52.8789 91.7072 53.0482 91.4913 53.0482H69.5754C69.3637 53.0482 69.1499 52.8789 69.1499 52.6227V51.2173C69.1478 51.0035 69.3637 50.832 69.5754 50.832Z" fill="#0E559C"/>
<path fill-rule="evenodd" clip-rule="evenodd" d="M48.6839 33.5226C53.8845 33.5226 58.1052 29.2998 58.1052 24.0992C58.1052 18.8985 53.8845 14.6758 48.6839 14.6758C43.5235 14.6758 39.2605 18.8985 39.2605 24.0992C39.2605 29.302 43.5256 33.5226 48.6839 33.5226Z" fill="#FDB614"/>
<path fill-rule="evenodd" clip-rule="evenodd" d="M40.6257 34.7578C38.7927 34.8446 37.129 35.6532 35.9352 36.8893C34.6123 38.1678 33.8037 39.9606 33.8037 41.9206V54.9254H37.1713H37.4274H59.9382H60.1922H63.5619V41.9206C63.5619 39.9606 62.7512 38.1699 61.4749 36.8893C60.2388 35.6532 58.5772 34.8446 56.742 34.7578L49.8777 41.6645C49.2384 42.3037 48.1716 42.3037 47.4901 41.6645L40.6257 34.7578Z" fill="#0E559C"/>
<path fill-rule="evenodd" clip-rule="evenodd" d="M76.8673 23.8867C82.9231 23.8867 87.8677 18.9422 87.8677 12.8864C87.8677 6.78828 82.9231 1.84375 76.8673 1.84375C70.8116 1.84375 65.8691 6.78828 65.8691 12.8864C65.8691 18.9401 70.8116 23.8867 76.8673 23.8867Z" fill="white" stroke="#0E559C" stroke-width="1.9843" stroke-miterlimit="10"/>
<path d="M76.9076 12.8867H82.195C82.2818 12.8867 82.3644 12.9714 82.3644 13.0582C82.3644 13.1428 82.2818 13.2275 82.195 13.2275H76.9076C76.8251 13.2275 76.7383 13.1428 76.7383 13.0582C76.7383 12.9714 76.8251 12.8867 76.9076 12.8867Z" stroke="#0E559C" stroke-width="1.5024" stroke-miterlimit="10"/>
<path d="M72.3484 7.77017L76.9077 12.8438C76.9521 12.9285 76.9521 13.0131 76.9077 13.0999C76.8251 13.1423 76.7383 13.1423 76.6516 13.0999L72.0923 7.98395C72.0055 7.94162 72.0499 7.8125 72.0923 7.77017C72.179 7.68338 72.2616 7.68338 72.3484 7.77017Z" stroke="#0E559C" stroke-width="1.5024" stroke-miterlimit="10"/>
<path fill-rule="evenodd" clip-rule="evenodd" d="M48.1314 40.8134L45.9132 38.5528L43.9955 36.6351C43.824 36.4637 43.7817 36.2097 43.9087 36.0382C44.0378 35.8244 44.2918 35.6953 44.5902 35.6953H48.6839H52.8177C53.076 35.6953 53.33 35.8244 53.4591 36.0382C53.5882 36.2097 53.5882 36.4637 53.4167 36.6351L51.499 38.5528L49.2787 40.8134C49.1517 40.9425 48.94 41.0272 48.6839 41.0272C48.4701 41.0272 48.2584 40.9404 48.1314 40.8134Z" fill="white"/>
</svg>
