<svg width="65" height="80" viewBox="0 0 65 80" fill="none" xmlns="http://www.w3.org/2000/svg">
<path fill-rule="evenodd" clip-rule="evenodd" d="M5.23047 52.7009C5.23047 54.1995 6.18932 55.6409 7.86996 56.7204C8.71027 57.2602 9.67124 57.6793 10.81 57.9798C11.8895 58.2804 13.0897 58.4603 14.2898 58.5196V71.1201C14.2898 71.9583 14.5904 72.86 15.128 73.6389C15.6678 74.4179 16.4488 75.1396 17.4669 75.7387C19.0883 76.6975 21.188 77.2394 23.347 77.4786H41.5271C44.0438 77.2394 46.3848 76.5176 48.0676 75.3174C49.7461 74.1766 50.6478 72.678 50.5843 71.118V58.4582C51.7844 58.4582 52.9867 58.2783 54.1255 57.9777C55.2071 57.6771 56.2252 57.258 57.0041 56.6569C57.9058 56.1764 58.5641 55.5181 58.9853 54.8577C59.4658 54.136 59.705 53.4163 59.6479 52.6966V35.4162C59.6479 32.8973 57.9672 30.4356 55.0251 28.5772C53.5265 27.6776 51.7866 27.0172 49.8054 26.4775C47.8855 25.997 45.7858 25.7578 43.6839 25.7578H21.1901C16.9907 25.7578 12.9097 26.7759 9.96969 28.5772C6.97037 30.4378 5.28974 32.8973 5.23047 35.4162V52.7009ZM23.2899 71.1201V52.94H14.2898V35.4204C14.2898 34.3409 15.0095 33.2593 16.3282 32.4803C17.5897 31.6993 19.3275 31.2802 21.188 31.2188H43.6861C45.0661 31.2188 46.3848 31.5194 47.5257 31.9385C48.6666 32.4211 49.5662 33.0794 50.1059 33.799C50.4086 34.3409 50.5864 34.8806 50.5864 35.4204V52.94H41.5292V71.1201C41.5292 71.4207 41.29 71.6598 40.9873 71.899C40.8074 71.9583 40.6275 72.0789 40.3883 72.1382C40.1491 72.1975 39.9078 72.1975 39.6686 72.1975H25.0869C24.6064 72.1975 24.1873 72.0768 23.8275 71.8969C23.5312 71.6598 23.2899 71.4207 23.2899 71.1201ZM50.5885 52.94V35.4204C50.5885 34.8806 50.4107 34.3409 50.108 33.799C49.5683 33.0794 48.6687 32.4211 47.5278 31.9385C46.3869 31.5194 45.0683 31.2188 43.6882 31.2188H21.1901C19.3296 31.2781 17.5897 31.6993 16.3303 32.4803C15.0095 33.2593 14.2919 34.3409 14.2919 35.4204V52.94H23.292V71.1201C23.292 71.4207 23.5312 71.6598 23.8317 71.899C24.1916 72.0789 24.6128 72.1996 25.0912 72.1996H39.6729C39.912 72.1996 40.1534 72.1996 40.3925 72.1403C40.6317 72.0811 40.8116 71.9604 40.9916 71.9011C41.2942 71.662 41.5334 71.4207 41.5334 71.1222V52.9422H50.5885V52.94Z" fill="white"/>
<path fill-rule="evenodd" clip-rule="evenodd" d="M4.21021 54.6212C4.21021 56.0606 5.17117 57.4406 6.97034 58.5201C7.81066 59.062 8.83089 59.4811 9.96966 59.7817C11.1698 60.0822 12.4292 60.2621 13.6886 60.2621V72.6235C13.6886 73.4617 13.9278 74.302 14.529 75.083C15.0687 75.862 15.909 76.5816 16.9885 77.1235C18.6692 78.0231 20.8282 78.6221 23.1692 78.802H42.0668C44.7677 78.6221 47.2272 77.8432 48.9692 76.7023C50.707 75.5635 51.6087 74.1221 51.5495 72.6235V60.2621C52.8703 60.2621 54.1297 60.0822 55.2684 59.7817C56.4093 59.4811 57.4296 59.062 58.3291 58.5201C59.2287 57.9804 59.8891 57.3813 60.3696 56.7209C60.8501 56.0584 61.0893 55.3409 61.03 54.6212V37.7598C61.03 35.241 59.3494 32.8407 56.2294 31.0394C54.6694 30.2012 52.8089 29.4794 50.7705 28.999C48.7279 28.5185 46.5711 28.2793 44.3507 28.2793H20.8917C16.4509 28.2793 12.2514 29.2974 9.13145 31.0394C6.01149 32.8407 4.21232 35.2389 4.21232 37.7598V54.6212H4.21021ZM23.0507 72.6213V54.8604H13.6908V37.7598C13.6908 36.6803 14.4104 35.5987 15.7905 34.8812C17.1113 34.1001 18.9697 33.6196 20.8917 33.6196H44.3507C45.79 33.6196 47.2293 33.8588 48.3681 34.3414C49.5683 34.7605 50.5292 35.4209 51.0669 36.1406C51.4288 36.6825 51.6087 37.2222 51.5495 37.762V54.8625H42.0689V72.6235C42.0689 72.8626 41.8911 73.1632 41.5313 73.3431C41.3492 73.4638 41.1714 73.5231 40.9301 73.5823C40.691 73.6416 40.4497 73.703 40.2105 73.703H24.9705C24.4307 73.6437 24.0095 73.523 23.6497 73.3431C23.2898 73.1632 23.0507 72.8626 23.0507 72.6213ZM51.5495 54.8625V37.762C51.6087 37.2222 51.4288 36.6825 51.0669 36.1406C50.5292 35.4209 49.5683 34.7626 48.3681 34.3414C47.2293 33.8588 45.7879 33.6196 44.3507 33.6196H20.8917C18.9718 33.6196 17.1113 34.1001 15.7905 34.8812C14.4104 35.6008 13.6908 36.6825 13.6908 37.7598V54.8604H23.0507V72.6213C23.0507 72.8605 23.292 73.1611 23.6518 73.341C24.0116 73.5209 24.4328 73.6416 24.9726 73.7009H40.2126C40.4518 73.7009 40.6931 73.6416 40.9323 73.5802C41.1736 73.5209 41.3514 73.4595 41.5334 73.341C41.8932 73.1611 42.071 72.8605 42.071 72.6213V54.8604H51.5495V54.8625Z" fill="white"/>
<path fill-rule="evenodd" clip-rule="evenodd" d="M29.8304 12.4415C29.8304 12.8606 29.8897 13.2204 30.0103 13.5802C29.8918 13.2204 29.8304 12.8606 29.8304 12.4415C29.769 12.0816 29.8897 11.6604 30.0103 11.3006C30.131 10.9407 30.3701 10.6402 30.6093 10.401C30.9099 10.1004 31.2105 9.86125 31.5703 9.7406C31.8709 9.61995 32.2307 9.50142 32.6498 9.50142C33.3695 9.56068 34.0891 9.86125 34.631 10.401C34.6903 10.4603 34.7516 10.5809 34.8702 10.6402C34.7495 10.5809 34.6903 10.4603 34.631 10.401C34.0912 9.86125 33.3716 9.56068 32.6498 9.50142C32.29 9.50142 31.8687 9.62207 31.5703 9.7406C31.2105 9.92052 30.9099 10.1004 30.6093 10.401C30.3701 10.6402 30.1288 10.9407 30.0103 11.3006C29.8918 11.6604 29.8304 12.0816 29.8304 12.4415ZM30.4294 23.8397C31.928 24.1403 33.4287 24.1403 34.9294 23.7804C36.3688 23.4799 37.8102 22.8787 39.0083 21.9792C41.4678 20.2985 43.2077 17.5998 43.8089 14.6005C44.3507 11.6011 43.7517 8.47907 42.069 5.96023C40.4497 3.43928 37.8716 1.64012 34.9294 1.03898C31.9894 0.439968 28.9308 1.03898 26.4691 2.71962C25.2076 3.55993 24.0688 4.63943 23.2285 5.89885C22.3882 7.15827 21.7871 8.5976 21.4886 10.0983C21.188 11.599 21.188 13.159 21.4886 14.6597C21.7278 16.1583 22.3289 17.5998 23.1692 18.9206C24.0074 20.18 25.0891 21.2595 26.3485 22.0998C27.5507 22.9994 28.9901 23.5413 30.4294 23.8397Z" fill="#FDB614"/>
<path fill-rule="evenodd" clip-rule="evenodd" d="M57.3681 23.0596C58.9281 22.3992 60.2489 21.2604 61.2078 19.8211C62.1095 18.3796 62.5878 16.7011 62.5878 14.9612C62.5878 12.6816 61.6861 10.4612 60.1283 8.78055C59.2901 8.00162 58.3884 7.34122 57.366 6.92212C56.3479 6.5009 55.207 6.26172 54.1275 6.26172C52.4469 6.26172 50.7684 6.7422 49.3883 7.70105C48.0082 8.6599 46.8695 10.04 46.2662 11.6613C45.6079 13.2213 45.428 15.0205 45.7857 16.7011C46.0884 18.3796 46.9266 19.9396 48.1246 21.1419C49.2655 22.4013 50.8234 23.2416 52.4448 23.5422C54.1296 23.902 55.8103 23.7221 57.3681 23.0596Z" fill="#FDB614"/>
<path fill-rule="evenodd" clip-rule="evenodd" d="M47.4093 72.8616V60.5002C48.0719 60.5002 48.7894 60.3203 49.3905 60.0198C50.0531 59.7192 50.5886 59.3001 51.0691 58.7582C52.03 57.6787 52.5698 56.2987 52.5698 54.8593V38.0001C52.5698 36.5586 52.2713 35.1214 51.6702 33.8599C51.1897 32.901 50.5886 32.0586 49.8689 31.2797C48.1904 29.5398 45.8515 28.5195 43.4491 28.5195H55.8697C58.27 28.5195 60.6089 29.5376 62.2874 31.2797C64.0273 33.0809 64.9883 35.4791 64.9883 38.0001V54.8614C64.9883 56.3008 64.4485 57.6808 63.4897 58.7603C63.0071 59.3022 62.4694 59.7213 61.8069 60.0219C61.2079 60.3224 60.4882 60.5024 59.8257 60.5024V72.8637C59.8257 73.7019 59.6479 74.5422 59.3452 75.3233C59.0468 76.1022 58.5663 76.7626 57.9673 77.3637C57.0677 78.2633 55.8675 78.8623 54.6081 79.0422H44.228C43.8682 78.983 43.5655 78.9216 43.2078 78.8031C44.1095 78.5025 44.8884 78.0241 45.6102 77.3637C46.1478 76.7626 46.6283 76.1022 46.9289 75.3233C47.1088 74.8428 47.2294 74.3623 47.2887 73.8818C47.3501 73.5791 47.4093 73.2193 47.4093 72.8616Z" fill="#0E559C"/>
<path fill-rule="evenodd" clip-rule="evenodd" d="M17.831 72.8616V60.5002C17.1706 60.5002 16.451 60.3203 15.8498 60.0198C15.1894 59.7192 14.6497 59.3001 14.1713 58.7582C13.2103 57.6787 12.6706 56.2987 12.6706 54.8593V38.0001C12.6706 36.5586 13.0304 35.1214 13.6316 33.8599C14.0507 32.901 14.6518 32.0586 15.3715 31.2797C17.05 29.5398 19.391 28.5195 21.7913 28.5195H9.37072C6.97042 28.5195 4.6315 29.5376 2.95086 31.2797C1.27023 33.0809 0.25 35.4791 0.25 38.0001V54.8614C0.25 56.3008 0.789748 57.6808 1.7486 58.7603C2.22908 59.3022 2.76883 59.7213 3.42923 60.0219C4.02825 60.3224 4.75003 60.5024 5.4697 60.5024V72.8637C5.41043 73.7019 5.59035 74.5422 5.8888 75.3233C6.24863 76.1022 6.66985 76.7626 7.26887 77.3637C8.16845 78.2633 9.3686 78.8623 10.628 79.0422H21.0081C21.368 78.983 21.7278 78.9216 22.0284 78.8031C21.1881 78.5025 20.3477 78.0241 19.6873 77.3637C19.0883 76.7626 18.6078 76.1022 18.3073 75.3233C18.1274 74.8428 18.0067 74.3623 17.9474 73.8818C17.8903 73.5791 17.831 73.2193 17.831 72.8616Z" fill="#0E559C"/>
<path fill-rule="evenodd" clip-rule="evenodd" d="M14.4104 23.0596C15.9704 22.3992 17.2891 21.2604 18.25 19.8211C19.1496 18.3796 19.6301 16.7011 19.6301 14.9612C19.6301 12.6816 18.7305 10.4612 17.1705 8.78055C16.3302 8.00162 15.4306 7.34122 14.4104 6.92212C13.3902 6.5009 12.2493 6.26172 11.1698 6.26172C9.48916 6.26172 7.81064 6.7422 6.43057 7.70105C5.05051 8.66202 3.90962 10.04 3.31061 11.6613C2.65021 13.2213 2.47029 15.0205 2.83012 16.7011C3.13069 18.3796 3.97101 19.9396 5.17116 21.1419C6.31204 22.4013 7.86991 23.2416 9.49127 23.5422C11.1698 23.902 12.8504 23.7221 14.4104 23.0596Z" fill="#FDB614"/>
</svg>
